<svg id="Layer_1" data-name="Layer 1" xmlns="http://www.w3.org/2000/svg" width="400.04" height="400.43" viewBox="0 0 400.04 400.43"><defs><style>.cls-1{fill:#020202;}.cls-1,.cls-12{opacity:0.32;}.cls-2{fill:#6d4c16;stroke:#020202;stroke-miterlimit:10;}.cls-3{fill:#e8bf89;}.cls-4{fill:#967753;opacity:0.34;}.cls-5{fill:#e8c724;}.cls-6{opacity:0.23;}.cls-7,.cls-8{fill:#060707;}.cls-11,.cls-8{opacity:0.51;}.cls-9{fill:#f9af1d;}.cls-10{fill:none;}.cls-11{fill:#c68d25;}.cls-13{fill:#e49bc4;}.cls-14{fill:#bd86ba;opacity:0.55;}.cls-15{opacity:0.1;}.cls-16{fill:#3d2b15;}</style></defs><path class="cls-1" d="M89,273.18c5.73-2.73,45.38-24.69,102-56.28a14.77,14.77,0,0,1,.63-10.18c3-6.4,10.63-8.74,15.82-8.45,7.81.44,13.05,6.95,17.7,13,19.23,25,28,40.47,28,40.47,11.18,19.63,17.55,31.74,24,47.17,8,19,9.67,27.57,5.43,33.54-2.42,3.41-7.94,7.63-14.54,7.17a16,16,0,0,1-9.37-4.1c-55.9,32.23-95.17,55.06-99.35,58.09a7.77,7.77,0,0,1-5.35,1.64c-4.73-.63-7.44-7.95-7.57-7.88s1.73,3,1.62,3.11c-.6.44-47.69-80.37-57.87-100.87-2-4-5.69-12-2.61-15.42A4.14,4.14,0,0,1,89,273.18Z"/><path class="cls-2" d="M91.05,278.12a11.52,11.52,0,0,1,2.46-11.59,17.51,17.51,0,0,1,2.89-2.6l.25-.17c3.07-2.12,10.24-5.69,10.24-5.69,6.21-3.09,7.88-4.34,14.24-7.14h0c1.22-.53-.25.09,17.7-9.68,14.51-7.9,24.24-13.08,30.51-16.73.67-.39,2.12-1.23,4.13-2.32,1.44-.78,4.53-2.45,8.2-4.16,1.52-.7,3-1.51,4.52-2.19a14.29,14.29,0,0,0,1.53-.79,5.85,5.85,0,0,0,1.78-1.3c.6-.79.38-1.53.52-3a12.81,12.81,0,0,1,.78-3.41,32.2,32.2,0,0,1,4.6-7,21.73,21.73,0,0,1,4.71-4.38c4.65-3,9.87-2.4,11.59-2.21,9,1,15.7,10.3,20.4,17,7.52,10.79,16.27,23.92,25.68,39.3,4.75,9.09,8.65,16.91,11.62,23,.82,1.66,4,8.79,10.25,23A57.23,57.23,0,0,1,284,310.18c.57,3.37.86,5.06.7,7-.66,8.09-7.79,18-17.75,18.9a19,19,0,0,1-12.08-3.41c-12.3,6.84-21.63,12.13-28,15.75-3.39,1.94-5.67,3.24-9.79,5.57-10.72,6-11.87,6.51-19,10.58-7.29,4.18-7,4.2-13.85,8.07-10.33,5.83-9,4.63-12.93,7.14-3.45,2.18-7.19,3.86-10.73,5.86-1.75,1-3.46,2-5.59,1.72-2.76-.35-4.59-2.61-5.48-3.74-6.58-8.39-13.36-21.34-15.31-25-2.67-5-1.88-3-7.36-12.76-4.63-8.25-6.37-11.74-10.33-19-3.31-6.09-6.29-11.4-12.4-22-3.92-6.77-7-14-10.84-20.8A23,23,0,0,1,91.05,278.12Z"/><path class="cls-3" d="M96.1,269.86c1.36-3.55,4.9-5.22,7.32-6.36,6.87-3.25,13.87-6.6,21.76-10.34,33.55-17.83,57.89-30.82,63.65-33.68a12.69,12.69,0,0,0,5.5-4.52c1.95-3.06.74-4.74,2.52-8.46a16.8,16.8,0,0,1,6.71-7A17.34,17.34,0,0,1,211.9,197c6.38.05,10.7,7.34,18.07,18.71,15.74,24.28,16.25,22.17,23.13,35,1.41,2.63.63,1.3,10.55,20.69,3.07,6,4.47,8.7,6.52,13A141.76,141.76,0,0,1,278,303.76c2,6.47,3,9.77,2.42,12.85a17.38,17.38,0,0,1-12.31,13.29c-7.34,1.9-13.25-2.09-14.17-2.73-50.22,28.47-87.13,48.94-93.36,51.73a9.14,9.14,0,0,1-5.3.81c-5-.91-7.83-6.86-8.74-8.74-7.41-15.33-17-29.53-25.29-44.39,0,0-15.92-28.42-24.39-48C96.26,277.12,94.73,273.44,96.1,269.86Z"/><path class="cls-4" d="M100.05,283.81c9-9.21,20.14-15.44,32-20.13,4.84-1.9,9.78-3.51,14.76-5,2.49-.74,5-1.37,7.45-2.29.08,0,1.57-.67.58-.21l.34-.15c.55-.24,1.09-.49,1.64-.75,1.25-.59,2.48-1.23,3.7-1.89,4.79-2.6,9.32-5.63,13.87-8.62s8.92-5.59,13.27-8.56c1.08-.73,2.14-1.47,3.18-2.24l.77-.57c.87-.65.11-.06-.18.14a13.71,13.71,0,0,0,1.39-1.13,53,53,0,0,0,5.15-4.9c.5-.54,1-1.08,1.44-1.64l.62-.76.31-.42.59-.82c.39-.57.77-1.15,1.14-1.73,1.18-1.86,2.15-3.84,3.39-5.66a20.37,20.37,0,0,1,15.33-8.86,16.94,16.94,0,0,1,3.9,0C220.2,201,216.61,197,211.9,197a17.34,17.34,0,0,0-8.34,2.52,16.8,16.8,0,0,0-6.71,7c-1.78,3.72-.57,5.4-2.52,8.46a12.69,12.69,0,0,1-5.5,4.52c-5.76,2.86-30.1,15.85-63.65,33.68-7.89,3.74-14.89,7.09-21.76,10.34-2.42,1.14-6,2.81-7.32,6.36s.16,7.26.8,8.75c.81,1.88,1.69,3.83,2.62,5.83A8,8,0,0,1,100.05,283.81Z"/><path class="cls-4" d="M184.55,365.93l-.8.63,2.95-1.63Z"/><path class="cls-5" d="M111.07,283.46S100.41,268.07,114.7,264s25.39-19,25.39-19S158,233.64,166,236.42s24-20.87,24-20.87,15.75-13.46,17.39-7.51,11.5-17,15.38,3.71,17.51,21.36,20.62,24.43S255.53,254.77,255,271s7.93,8.22,7.93,8.22,7.66-1.87,8,12.34,14,8.18,1.82,16.06-26.87,6.18-27.16,3.82-7.07-4.46-10.43,6.5S226.65,335,219,334.44s-23.46,5.84-25.74,13.25S171.9,372.15,169,368.44s-14.38,5.09-15.65,1.53,5.11-8.94-4.36-18.75-18.77-12.32-17.68-22.56,1-18.73-6.52-22.8-9.94-9.4-8.27-15.93S111.07,283.46,111.07,283.46Z"/><g class="cls-6"><path class="cls-7" d="M89.84,233.67a4.31,4.31,0,0,0,1.7,1.68,24.62,24.62,0,0,0,6,1.74s-2.45,2.46-1.85,5.5c.23,1.14,1.13,1.79,4.34,5a4.94,4.94,0,0,0,.54.47,5.22,5.22,0,0,0,.57.36c1,.56,5.28.31,6.79,2.19a1.19,1.19,0,0,1,.31.51c.56,2-6.26,4.81-.83,7.62,5.88,3.06,5.78,1,8.22,4.13s2.59,2.38,1.25,6.1,6,6.85,6.45,6.49,10.79,8.56,7.21,11.29,7.7,12.37,8.8,9.61,7.67,5.05,7,8.2,4,12,8.38,8.34-3.16,8.81,1.56,11.25,6.81-3.87,10.31-2.19-1.2,7.65-2.53,8.34,7.94,13.75,9.46,5.52-1.11,2.57,3.74,3,7.76-4.25,8.91-7.18,7.54-2,9.3-3.45,12.26-4.44,9.38-13.5.8,1,.8,1,4.2,3.07,7.22-5.83c0,0,12.05-2.83,11.16-9,0,0,15-7.82,10.94-13.5,0,0,6.72,2.61,9.41-2.82,0,0,7.62-1,7.57-6.06,0,0,10.76-5,7.84-8s1.39-1.11,1.39-1.11,4.31,6,6.64.59,5.44-3.48,6.88-3.72,4.84,4.76,8.34,1,1.21,2.63,3.49-3.72,9.35,2.27,3.59-5.24-1.3-1.1-1.3-1.1,8.05,7.8,3.88-2.59c-2.3-5.73-.61-6.9-.88-8.81-.6-4.38-6.93-8.53-7.68-9C270,228.56,239.44,152,206.49,150.13c-8.69-.5-9,4.67-37.39,26.08C131.87,204.31,87.55,229.3,89.84,233.67Z"/><line class="cls-7" x1="234.78" y1="227.19" x2="234.78" y2="227.19"/><path class="cls-8" d="M168.55,324.63c-.14.12.65-.77.75-.91.23-.3.43-.6.63-.92h0c-.36.54-.23,0-.1-.19-.06-.1-.13-.21-.21-.32s-.44-.5-.63-.72-.57-.46-.71-.59a48.78,48.78,0,0,1-7.61,1.09c-2.46.05-4.84-2.88-4.4-5.28a18.61,18.61,0,0,0,0-5.27,12.45,12.45,0,0,1-2.77-.6,9.92,9.92,0,0,1-5.79-5.63c-.54-1.3-.94-2.64-1.54-3.92-.28-.6-.58-1.19-.88-1.78-.1-.2-.76-1.35-.46-.9a16.7,16.7,0,0,0-1.82-2.24c0,.05-.43-.33-.41-.31-.21-.15-.41-.31-.63-.46l-.43-.28-.24-.08c-2.29-.79-4.54-1.44-6.18-3.39s-2.34-4.6-2.88-7c-.24-1.06-.43-2.14-.67-3.21-.1-.43-.2-.86-.32-1.28,0,0-.28-.72-.33-.85s-.24-.52-.38-.77l-.06-.09-.43-.53c-.31-.25-.63-.49-1-.71l-.76-.46-.38-.2-.59-.29-1.15-.59a21.82,21.82,0,0,1-3.1-1.81,11.29,11.29,0,0,1-4.19-6.16c-.54-2-.4-4-1.2-5.34a3.84,3.84,0,0,1-.53-.72,9.57,9.57,0,0,0-1.34-.95c.69.46,0,0-.36-.13l-1.07-.47c-2.08-.94-4.09-2.15-5.05-4.34a8.79,8.79,0,0,1,.09-6.61l0,0,0,0v0l-.08-.08a11.45,11.45,0,0,0-1.31-1l-.5-.29c-.13,0-.39-.13-.4-.12.73,0-.28-.07-.59-.13a14.34,14.34,0,0,1-4.13-1.26c-2.62-1.4-4.4-3.76-4.21-6.84,0-.71.27-1.39.33-2.1,0-.1,0-.21,0-.31a1.19,1.19,0,0,1-.06-.22c0-.11-.05-.23-.07-.35s0-.07-.09-.21l0-.14a4.87,4.87,0,0,0-.35-.42c.39.44.15.22-.12,0l-.44-.18c-.49.11-.78.09-.88,0q-.49-.78,6.37-6.36a41.29,41.29,0,0,1-4.31.83c-1.44.2-2.15.22-3.77.52-2.19.42-3,.78-3.73,1.35-.55.44-1.28,1-1.27,1.65s1,2,7.74,3.42c0,0-2.45,2.46-1.85,5.5.23,1.14,1.13,1.79,4.34,5a4.94,4.94,0,0,0,.54.47,5.22,5.22,0,0,0,.57.36c1,.56,5.28.31,6.79,2.19a1.19,1.19,0,0,1,.31.51c.56,2-6.26,4.81-.83,7.62,5.88,3.06,5.78,1,8.22,4.13s2.59,2.38,1.25,6.1,6,6.85,6.45,6.49,10.79,8.56,7.21,11.29,7.7,12.37,8.8,9.61,7.67,5.05,7,8.2,4,12,8.38,8.34-3.16,8.81,1.56,11.25,6.81-3.87,10.31-2.19c1.4.67,1.49,2,1,3.46C168,325.19,168.26,324.92,168.55,324.63Z"/><path class="cls-8" d="M174,333.45a15.27,15.27,0,0,1-3.19,1.13c-3.51.83-5.79-2.37-5.53-5.35a5,5,0,0,1-1.15,1c-1.33.68,7.95,13.75,9.47,5.52C173.81,334.69,173.94,333.94,174,333.45Z"/><path class="cls-8" d="M204.92,314.72c-.38-1.17-.64-2-.81-2.61l-.25-.18a5.11,5.11,0,0,1-.55-.48,25.14,25.14,0,0,1-.87,3.08c0,.05-.09.28-.15.47s-.17.9-.19,1a14.63,14.63,0,0,1-.79,3.21c-2,4.81-7.23,7.25-12,8.38a7.19,7.19,0,0,0-1.87.6l-.06,0c-.23.37-.47.75-.71,1.11a10.57,10.57,0,0,1-.91,1.28c.4-.47.32-.62,0,0a8.93,8.93,0,0,1-2.24,3.18c-2.94,2.33-6,1.25-8-1.05l-.21.13c-.36.21-.72.4-1.08.58.06,1.53.4,5.14,3.16,5.38,4.84.42,7.76-4.25,8.91-7.18s7.54-2,9.3-3.45S207.8,323.78,204.92,314.72Z"/><path class="cls-8" d="M290.3,258.58c2.1,1.68,5.49,3.69,2.47-3.83-.19-.48-.35-.93-.49-1.35-.87,1.5-2,2.82-3,4.26-.33.58-.39.69-.2.32-.2.39-.41.77-.61,1.15a13.11,13.11,0,0,1-.82,1.35,10.86,10.86,0,0,1-2.83,2.66l-1,.63-.57.38a5,5,0,0,1-6,2.17,7.92,7.92,0,0,1-1.12-.49,4.81,4.81,0,0,1-2-1.35l-.38-.07-.5,0c-.4,0-.81-.06-1.22-.07h-.73a5,5,0,0,1-.63.37l-.13.07a.94.94,0,0,0-.14.19c-.35.51-.68,1-1.07,1.52a7.39,7.39,0,0,1-4.54,3,6.54,6.54,0,0,1-5.05-1.58l-.77-.6-.38-.21-.89-.4-.43-.17a3.41,3.41,0,0,1,0,.56c0,.28.07.55.1.83a4.53,4.53,0,0,1-.77,6.52A13.74,13.74,0,0,1,254,276l-1.14.53c-.1,0-.14.06-.16.05l-.22.18a5,5,0,0,1-2.51,1,6.88,6.88,0,0,1-1.11,2.52c-1.39,1.93-3.6,2.43-5.56,3.53s-4,1.93-6.22,1.57c0,0-.87-.15-1.6-.32a5.61,5.61,0,0,1-1.85,1.07,12.12,12.12,0,0,1,.33,1.59,8.58,8.58,0,0,1-2.53,7.48c-1.87,1.8-4.36,2.33-6.67,3.32l-.88.39c-.31.19-.33.36-.71,1,.43-.75-.19.42-.26.58-.31.64-.63,1.26-1,1.88-1.61,3-4,4.36-7.23,5.13-.19,0-2,.56-1,.19-.11,0-.35.1-.53.14l.12,0-.13.11-.21.33-.24.65c-1.38,3.38-5,5.41-8.28,3.42.56,1.43,1.3,3.46,1.3,3.46s4.21,3.07,7.22-5.83c0,0,12.05-2.83,11.16-9,0,0,15-7.82,10.94-13.5,0,0,6.72,2.61,9.41-2.82,0,0,7.62-1,7.57-6.06,0,0,10.76-5,7.84-8s1.39-1.11,1.39-1.11,4.31,6,6.64.59,5.44-3.48,6.88-3.72,4.84,4.76,8.34,1,1.21,2.63,3.49-3.72S295.86,265.84,290.3,258.58Z"/></g><path class="cls-9" d="M91,227.48a4.38,4.38,0,0,0,1.7,1.68,25.2,25.2,0,0,0,6,1.74s-2.45,2.45-1.85,5.49c.22,1.15,1.12,1.8,4.33,5.05a4.94,4.94,0,0,0,.54.47,5.22,5.22,0,0,0,.57.36c1,.55,5.28.31,6.79,2.19a1.37,1.37,0,0,1,.32.5c.55,2-6.26,4.81-.84,7.63,5.89,3.06,5.79.95,8.22,4.12s2.6,2.39,1.26,6.11,5.94,6.85,6.44,6.49,10.79,8.56,7.21,11.29,7.7,12.37,8.81,9.61,7.67,5.05,7,8.19,4,12,8.39,8.35-3.16,8.8,1.55,11.25,6.81-3.87,10.32-2.19-1.21,7.65-2.54,8.34,8,13.75,9.46,5.52-1.1,2.57,3.74,3,7.77-4.26,8.92-7.18,7.53-2,9.29-3.45,12.26-4.45,9.38-13.51.81,1.06.81,1.06,4.2,3.07,7.21-5.83c0,0,12.05-2.83,11.17-9,0,0,15-7.81,10.93-13.49,0,0,6.72,2.61,9.41-2.82,0,0,7.63-1,7.58-6.07,0,0,10.75-5,7.84-8s1.38-1.11,1.38-1.11,4.31,6,6.64.59,5.45-3.48,6.88-3.72,4.85,4.76,8.34,1,1.22,2.63,3.5-3.72,9.35,2.27,3.59-5.25-1.31-1.09-1.31-1.09,8.06,7.8,3.89-2.59c-2.3-5.73-.62-6.9-.88-8.81-.61-4.38-6.94-8.53-7.68-9-14.26-8.41-44.78-84.94-77.73-86.84-8.68-.5-9,4.67-37.39,26.08C133,198.12,88.72,223.1,91,227.48Z"/><line class="cls-10" x1="235.95" y1="221" x2="235.95" y2="221"/><path class="cls-11" d="M169.71,318.44c-.13.12.65-.77.75-.91.23-.3.43-.61.64-.92h0c-.36.53-.24,0-.11-.2-.05-.09-.13-.21-.2-.31l-.63-.72-.72-.59a49.87,49.87,0,0,1-7.6,1.09c-2.46.05-4.84-2.89-4.41-5.28a18.69,18.69,0,0,0,0-5.28,11.68,11.68,0,0,1-2.77-.59,10,10,0,0,1-5.8-5.63c-.53-1.31-.94-2.65-1.53-3.93-.28-.6-.59-1.19-.89-1.78-.1-.19-.75-1.34-.46-.89a16.69,16.69,0,0,0-1.81-2.24,3.55,3.55,0,0,1-.41-.32l-.63-.45-.44-.28-.23-.08c-2.3-.79-4.55-1.44-6.19-3.39s-2.34-4.6-2.88-7c-.24-1.07-.43-2.14-.67-3.21-.1-.43-.2-.86-.32-1.29,0,0-.27-.71-.33-.84s-.24-.53-.37-.78l-.07-.08c-.13-.18-.28-.36-.42-.53a9.64,9.64,0,0,0-1-.71l-.75-.46-.39-.2-.59-.3-1.15-.58a22.7,22.7,0,0,1-3.09-1.81,11.3,11.3,0,0,1-4.2-6.16c-.54-2-.39-4-1.19-5.34a4.64,4.64,0,0,1-.54-.72,9,9,0,0,0-1.34-.95c.7.46,0,0-.35-.14l-1.07-.46c-2.09-1-4.1-2.15-5.06-4.35a8.77,8.77,0,0,1,.1-6.6l0,0,0,0h0l-.09-.08a10.39,10.39,0,0,0-1.31-1l-.5-.29-.4-.13c.74,0-.28-.06-.59-.12a14.76,14.76,0,0,1-4.13-1.26c-2.61-1.4-4.4-3.76-4.21-6.85,0-.71.27-1.39.33-2.1,0-.1,0-.2,0-.3a1.19,1.19,0,0,1-.06-.22c0-.12,0-.23-.07-.35a1.51,1.51,0,0,1-.08-.21c0-.07,0-.11,0-.14a3.54,3.54,0,0,0-.35-.42c.39.44.15.21-.12,0l-.44-.18c-.48.11-.78.09-.87-.06q-.51-.78,6.37-6.35a41.79,41.79,0,0,1-4.31.83c-1.45.2-2.16.22-3.78.52-2.18.41-3,.78-3.73,1.35-.55.44-1.28,1-1.27,1.65s1,2,7.75,3.42c0,0-2.45,2.45-1.85,5.49.22,1.15,1.12,1.8,4.33,5.05a4.94,4.94,0,0,0,.54.47,5.22,5.22,0,0,0,.57.36c1,.55,5.28.31,6.79,2.19a1.37,1.37,0,0,1,.32.5c.55,2-6.26,4.81-.84,7.63,5.89,3.06,5.79.95,8.22,4.12s2.6,2.39,1.26,6.11,5.94,6.85,6.44,6.49,10.79,8.56,7.21,11.29,7.7,12.37,8.81,9.61,7.67,5.05,7,8.19,4,12,8.39,8.35-3.16,8.8,1.55,11.25,6.81-3.87,10.32-2.19c1.4.67,1.49,2,1,3.45C169.14,319,169.43,318.72,169.71,318.44Z"/><path class="cls-11" d="M175.19,327.26a15.86,15.86,0,0,1-3.19,1.13c-3.51.83-5.8-2.37-5.53-5.35a5.22,5.22,0,0,1-1.15,1c-1.34.68,7.94,13.75,9.46,5.52C175,328.5,175.11,327.75,175.19,327.26Z"/><path class="cls-11" d="M206.08,308.52c-.37-1.16-.63-2-.81-2.6l-.24-.18a5.11,5.11,0,0,1-.55-.48,25,25,0,0,1-.87,3.07c0,.06-.09.29-.16.48s-.17.9-.19,1a15.35,15.35,0,0,1-.78,3.21c-2,4.81-7.23,7.25-12,8.38a7.58,7.58,0,0,0-1.87.59l-.06,0c-.23.37-.48.74-.71,1.11a10.65,10.65,0,0,1-.92,1.28c.4-.47.32-.63,0,0a8.86,8.86,0,0,1-2.23,3.18c-3,2.33-6,1.25-8.05-1.05l-.22.13c-.36.2-.71.4-1.07.57.06,1.54.39,5.15,3.15,5.39,4.85.41,7.77-4.26,8.92-7.18s7.53-2,9.29-3.45S209,317.58,206.08,308.52Z"/><path class="cls-11" d="M291.47,252.39c2.1,1.68,5.48,3.69,2.47-3.83-.19-.48-.36-.93-.5-1.35-.86,1.49-2,2.81-3,4.26-.33.58-.39.69-.19.32l-.62,1.15a12.45,12.45,0,0,1-.82,1.35A10.82,10.82,0,0,1,286,257l-1,.63-.56.38a5,5,0,0,1-6,2.16,8,8,0,0,1-1.13-.49,4.78,4.78,0,0,1-2-1.35l-.38-.06-.49-.05-1.22-.06h-.74a6.5,6.5,0,0,1-.63.37l-.13.06-.14.19c-.35.52-.67,1-1.06,1.53a7.44,7.44,0,0,1-4.55,3,6.59,6.59,0,0,1-5.05-1.59l-.76-.59-.38-.21-.9-.4-.42-.17a5.12,5.12,0,0,1,0,.56c.05.27.08.55.11.83a4.55,4.55,0,0,1-.77,6.52,13.81,13.81,0,0,1-2.66,1.6l-1.13.52-.16.06-.22.18a5,5,0,0,1-2.52,1,6.74,6.74,0,0,1-1.1,2.51c-1.4,1.94-3.6,2.44-5.57,3.53a9.74,9.74,0,0,1-6.21,1.58s-.87-.16-1.6-.32a5.91,5.91,0,0,1-1.86,1.06,10,10,0,0,1,.33,1.59,8.58,8.58,0,0,1-2.52,7.49c-1.88,1.8-4.36,2.33-6.67,3.31l-.88.4c-.32.19-.34.36-.72,1,.44-.74-.18.43-.26.59-.3.63-.63,1.26-1,1.88-1.6,3-4,4.36-7.22,5.12-.2.05-2,.57-1,.2-.1,0-.35.09-.53.14l.12,0-.12.11-.22.33c-.08.22-.15.44-.24.65-1.37,3.37-5,5.4-8.27,3.42.56,1.43,1.3,3.46,1.3,3.46s4.2,3.07,7.21-5.83c0,0,12.05-2.83,11.17-9,0,0,15-7.81,10.93-13.49,0,0,6.72,2.61,9.41-2.82,0,0,7.63-1,7.58-6.07,0,0,10.75-5,7.84-8s1.38-1.11,1.38-1.11,4.31,6,6.64.59,5.45-3.48,6.88-3.72,4.85,4.76,8.34,1,1.22,2.63,3.5-3.72S297,259.65,291.47,252.39Z"/><path class="cls-12" d="M92.5,182.77s79.67-64.14,93.86-67.83c43.8-11.42,80.4,47,75.14,73.53-3.56,17.95-24.35,21.65-97.1,82l-3,2.48a1.35,1.35,0,0,1-.56.74c-4.92,2.86-32.25-35.68-37.84-43.56C115,218.89,104.25,202.92,92.5,182.77Z"/><path class="cls-13" d="M92,174.57l2.31-1.84c78.84-62.73,84.71-65.3,91.55-66,35-3.54,81.07,43.64,75.14,73.53-3.56,17.95-24.35,21.66-97.1,82-1.28,1.06-2.33,1.93-3,2.49a1.37,1.37,0,0,1-.56.73c-4.91,2.86-32.25-35.67-37.84-43.56C114.49,210.69,103.73,194.72,92,174.57Z"/><path class="cls-14" d="M105.73,194.16a23.64,23.64,0,0,1,1-3.95,35.07,35.07,0,0,1,4.89-9.47c5.18-7.19,12.78-12.23,19.54-17.83,3.81-3.15,7.45-6.46,11.39-9.46s8.28-6.07,12.52-9,8.26-5.62,12.35-8.49,8.1-6.1,12.4-8.79c8.14-5.1,17.37-9.63,26.87-11.61a12.76,12.76,0,0,1,6.26.4c-10.07-7.81-18.95-12.38-23.81-11.11C175,108.57,95.33,172.7,95.33,172.7a13.61,13.61,0,0,0-1.75,1.19,3.46,3.46,0,0,1-.45.38l-.26.2c-.07,0-.1.06-.11.1s0,.12.15.26l.13.23.39.65c.22.39.4.69.5.86.59,1,1.33,2.26,2.27,3.84.15.25.75,1.26,1.32,2.19,1.41,2.33,2.53,4.07,3,4.72,1.07,1.68,2.71,4.29,5.16,8.39A12.89,12.89,0,0,1,105.73,194.16Z"/><path class="cls-1" d="M86.18,110.89C91.28,107.11,126,78,175.51,36.12A14.74,14.74,0,0,1,174.19,26c1.74-6.85,8.75-10.6,13.91-11.31,7.74-1.07,14.13,4.32,19.86,9.37,23.66,20.87,35.26,34.36,35.26,34.36,14.73,17.13,23.3,27.8,32.62,41.7,11.48,17.1,14.77,25.2,11.75,31.88-1.72,3.81-6.32,9-12.89,9.82a16.08,16.08,0,0,1-10-2.23c-48.69,42.33-82.86,72.26-86.38,76a7.82,7.82,0,0,1-4.94,2.63c-4.77.29-8.83-6.38-8.94-6.28s2.28,2.63,2.18,2.74c-.5.54-62.19-69.76-76.1-87.92-2.71-3.53-7.89-10.68-5.53-14.64A4.31,4.31,0,0,1,86.18,110.89Z"/><path class="cls-2" d="M89.17,115.34a12.83,12.83,0,0,1-1.53-6.41,13,13,0,0,1,1.72-5.44,17.83,17.83,0,0,1,2.34-3.1l.22-.22c2.6-2.66,9-7.54,9-7.54,5.51-4.22,6.91-5.77,12.61-9.73h0c1.09-.76-.23.13,15.52-12.9,12.73-10.53,21.29-17.47,26.75-22.26.58-.5,1.83-1.61,3.61-3.07,1.26-1,4-3.27,7.24-5.64,1.36-1,2.65-2.06,4-3A15.83,15.83,0,0,0,172,34.94a6,6,0,0,0,1.5-1.61c.44-.9.08-1.59-.08-3.1a13.07,13.07,0,0,1,.12-3.5A32,32,0,0,1,176.69,19a21.79,21.79,0,0,1,3.79-5.2c4-3.8,9.23-4.25,11-4.39,9-.77,17.38,7.11,23.28,12.82,9.45,9.15,20.56,20.36,32.73,33.65,6.4,8,11.73,14.94,15.81,20.35,1.12,1.48,5.57,7.87,14.47,20.65a57,57,0,0,1,7,13c1.2,3.2,1.81,4.8,2,6.78.9,8.06-4.19,19.17-13.81,21.94a19,19,0,0,1-12.5-1c-10.76,9.07-18.91,16-24.46,20.82-3,2.55-4.94,4.26-8.55,7.33-9.36,8-10.4,8.67-16.58,14-6.36,5.5-6.06,5.46-12,10.58-9,7.7-7.9,6.25-11.33,9.49-3,2.79-6.31,5.15-9.41,7.8-1.53,1.31-3,2.6-5.15,2.75-2.78.19-5-1.67-6.1-2.61-8.06-7-17.2-18.39-19.82-21.61-3.57-4.39-2.41-2.59-9.66-11.12-6.13-7.21-8.5-10.3-13.78-16.7-4.41-5.34-8.36-10-16.38-19.17-5.14-5.9-9.59-12.36-14.62-18.34A23.13,23.13,0,0,1,89.17,115.34Z"/><path class="cls-3" d="M92.54,106.27c.65-3.75,3.81-6.06,6-7.65,6.12-4.5,12.34-9.13,19.37-14.31,29.52-23.93,50.92-41.34,56-45.24a12.8,12.8,0,0,0,4.53-5.49c1.33-3.38-.17-4.8.86-8.79a16.82,16.82,0,0,1,5.24-8.17,17.38,17.38,0,0,1,7.7-4.07c6.27-1.17,11.91,5.16,21.32,14.91,20.1,20.81,20.2,18.65,29.41,29.94,1.89,2.31.86,1.15,14.32,18.29,4.15,5.28,6,7.69,8.89,11.55a142,142,0,0,1,11.43,17.47c3.22,6,4.83,9,4.83,12.15a17.37,17.37,0,0,1-9.54,15.4c-6.84,3.27-13.41.48-14.42,0-43.85,37.57-76.16,64.73-81.74,68.65a9,9,0,0,1-5,1.81c-5.11.07-9-5.23-10.26-6.9-10.2-13.63-22.31-25.74-33.32-38.73,0,0-21.07-24.85-33.12-42.41C94.09,113.36,91.88,110.05,92.54,106.27Z"/><path class="cls-4" d="M99.09,119.21c7.07-10.78,16.81-19,27.59-25.89,4.38-2.8,8.92-5.33,13.52-7.74,2.3-1.2,4.67-2.31,6.88-3.68.07,0,1.41-1,.52-.32s.1-.07.31-.21l1.46-1c1.12-.83,2.21-1.69,3.28-2.57,4.19-3.47,8.06-7.31,12-11.11s7.68-7.2,11.39-11c.91-.92,1.81-1.85,2.68-2.81.22-.23.43-.47.65-.71.73-.79.1-.07-.14.18A12.66,12.66,0,0,0,180.33,51a53.29,53.29,0,0,0,4.12-5.79c.38-.62.74-1.25,1.09-1.89.16-.28.32-.57.47-.86l.23-.47c.13-.31.28-.61.41-.92.28-.63.54-1.27.79-1.92.8-2.05,1.38-4.18,2.25-6.2A20.35,20.35,0,0,1,203,21.3a17,17,0,0,1,3.83-.71c-5.71-5.67-10-8.9-14.63-8a17.38,17.38,0,0,0-7.7,4.07,16.82,16.82,0,0,0-5.24,8.17c-1,4,.47,5.41-.86,8.79a12.8,12.8,0,0,1-4.53,5.49c-5.11,3.9-26.51,21.31-56,45.24-7,5.18-13.25,9.81-19.37,14.31-2.16,1.59-5.32,3.9-6,7.65s1.55,7.09,2.46,8.43c1.16,1.69,2.4,3.44,3.69,5.23A6.3,6.3,0,0,1,99.09,119.21Z"/><path class="cls-4" d="M197.75,183.62l-.67.78,2.59-2.17Z"/><g class="cls-15"><path class="cls-16" d="M213.14,25.43,183.5,26.92c-9.61.49-9.67,15.49,0,15l29.64-1.49c9.61-.49,9.66-15.49,0-15Z"/></g><g class="cls-15"><path class="cls-16" d="M224.48,39.57l-70,9.86c-4,.57-6.23,5.69-5.24,9.23,1.21,4.31,5.18,5.81,9.23,5.24l70-9.87c4-.56,6.23-5.68,5.24-9.23-1.21-4.31-5.19-5.8-9.23-5.23Z"/></g><g class="cls-15"><path class="cls-16" d="M238.38,54.46l-90.09,9.15-12.88,1.31c-4,.41-7.5,3.16-7.5,7.5,0,3.74,3.44,7.91,7.5,7.5l90.08-9.15,12.89-1.31c4-.41,7.5-3.16,7.5-7.5,0-3.74-3.45-7.91-7.5-7.5Z"/></g><g class="cls-15"><path class="cls-16" d="M248.34,69.12l-117,10.21L115,80.75c-9.54.84-9.63,15.84,0,15l117-10.2,16.37-1.43c9.54-.83,9.63-15.84,0-15Z"/></g><g class="cls-15"><path class="cls-16" d="M256.7,84.77,116.58,95.44,96.78,97c-9.57.73-9.65,15.74,0,15L236.9,101.28l19.8-1.51c9.57-.73,9.65-15.73,0-15Z"/></g><g class="cls-15"><path class="cls-16" d="M264.61,96.78,123.86,110.09,104.14,112c-9.53.9-9.63,15.91,0,15l140.75-13.31,19.72-1.86c9.53-.91,9.62-15.91,0-15Z"/></g><g class="cls-15"><path class="cls-16" d="M275.06,111.89,137.27,128.06l-19.82,2.33c-4,.47-7.5,3.1-7.5,7.5,0,3.68,3.46,8,7.5,7.5l137.8-16.18,19.81-2.32c4-.47,7.5-3.11,7.5-7.5,0-3.69-3.45-8-7.5-7.5Z"/></g><g class="cls-15"><path class="cls-16" d="M274.63,127,147,146.16l-18.19,2.74c-4,.6-6.23,5.66-5.23,9.23,1.2,4.28,5.18,5.84,9.22,5.23l127.68-19.21,18.18-2.74c4-.6,6.24-5.66,5.24-9.22-1.2-4.29-5.19-5.85-9.23-5.24Z"/></g><g class="cls-15"><path class="cls-16" d="M230.17,150.33,151,163.67l-11.31,1.91c-9.5,1.6-5.47,16,4,14.46l79.17-13.34,11.31-1.9c9.5-1.6,5.47-16.06-4-14.47Z"/></g><g class="cls-15"><path class="cls-16" d="M202.53,171.11l-50.94,8.58c-9.5,1.6-5.47,16.06,4,14.46l50.94-8.58c9.49-1.6,5.47-16.06-4-14.46Z"/></g></svg>