<svg id="Layer_1" data-name="Layer 1" xmlns="http://www.w3.org/2000/svg" width="1920" height="392.17" viewBox="0 0 1920 392.17"><defs><style>.cls-1{opacity:0.27;}.cls-2{fill:#c68d19;}.cls-3{fill:#1d1d1b;}.cls-4{fill:#f9af1d;}</style></defs><path class="cls-1" d="M2031.53,12v91.18c0,9.47-.25,18.94,0,28.4.15,5.74.26,6.39,0,8.23-1.5,10.74-9.49,13.13-17.32,25.31-4,6.22-5.77,11.47-8.42,19.3a95.82,95.82,0,0,0-5.42,23.61c-.5,5.82.08,13,1.24,27.47.54,6.68.81,10,1.4,15,1.5,12.71,2.68,15.71,2.47,23.31-.18,7-.29,11-2.94,15.28-3.84,6.21-12.12,11.45-18.43,9.57-5.1-1.52-8.68-7.62-11.3-21.46-8.16-43,12.53-60.65.31-84-9.75-18.59-29.92-24.79-33.55-25.91-3.84-1.18-18.75-5.42-25.32.8-7.79,7.36-2.12,23.67-2.12,23.67a111.82,111.82,0,0,1,8.33,43.11c-.13,12.55-.3,27.95-10.32,34-4.39,2.65-10.64,3.49-15.63,1.18-10.06-4.65-11.32-20.38-11.84-26.84-2.3-28.81,14.46-41.48,6.41-60.6-1.06-2.5-3.45-8-9.09-11.53-10.52-6.59-26.68-2.83-35.1,4.53s-10.29,19.31-6.2,63c5.63,60.11,13.27,80.81,1.24,90.95-7.63,6.43-21.13,6.91-28.91,1.65-8.08-5.46-9.32-16.65-9.81-22.22-4.93-56.67,19-107.86-1.85-132.42-14.34-16.92-46.41-21.51-62.43-10-5.4,3.86-7.92,8.79-9.66,12.31-15.06,30.47,13.47,60.4,3.22,100.11-3.93,15.22-10.15,18.69-13.16,19.76-4.56,1.63-10.23,0-14.61-1.85-20.22-8.63,10.11-107.94,0-125.21a12.74,12.74,0,0,0-4.35-4.19c-10.76-7.3-31.2-3.79-37.78,6.65-8.54,13.55,10.44,32.23,1.76,42.28-4.66,5.41-15.73,6.49-21.48,2.06-10.77-8.31,3.55-32.81-8.48-45.8-5.22-5.63-13.3-6.82-19.6-6.88-17.37,4.37-24.07,11.79-27,17.39s-4.52,13.61,1.76,66.57c.87,7.33,1.81,14.89-2.79,19.14-5.43,5-17.23,4.16-21.68-1.54-4.63-5.93,1.47-13.47,4-28.71,3.63-21.69-1.47-49.71-15-54.56-7.53-2.71-15.54,2.54-16.88,3.42-16,10.45-13.74,37.44-13.4,41.6,1.09,13.09,5.41,18.06,7.79,41.33.65,6.38.9,11.71-2.48,16.05-4.88,6.26-15.81,8.58-22.3,4.32-3.65-2.39-5-6.29-5.64-8.21-5.81-18.55,5.23-32.55,3.78-53.83-1.26-18.42-11.63-38.48-25.23-41.91a34.78,34.78,0,0,0-13.18-.07,38.51,38.51,0,0,0-16.2,8.43c-14,12.54-13.65,36-13.53,43.43.31,19.39,6.52,24.3,5.07,46.73-.63,9.79-2.23,15.34-6.31,19.53-5.82,6-17.32,9.87-24,6.17-19.68-10.94,14.35-90-7.17-106.87a31.74,31.74,0,0,0-33.62-3.84c-13.46,6.18-21.44,29.66-17,57.73,7.34,17.67,4.36,32.72-3.1,36.42-4.9,2.43-12.86.5-17-4.32-5.13-5.93-3.46-15-2.79-19.14.88-5.49,8.27-53.73-8.06-71.61-8.1-8.88-20.83-8.95-41.24-9.06-16.74-.1-39.6-.22-49.2,13.69-5.36,7.77-4,19.35-1.35,42.51,3,25.82,7.79,33.65,2,42.37-5.47,8.21-17.74,13.26-25.57,9.69-4.82-2.19-7-7.23-8.17-10.39-10.5-29.24,13-61.33.91-82.64-11.36-20-51.86-26.52-71.86-11.42-6.23,4.71-9.28,10.78-11.37,14.9-9.58,18.81-5,38.59-2.26,50.54a109.17,109.17,0,0,0,7.75,22.22c4,7.53,4.45,16.18.31,22.23-6.9,10.06-22.59,7.14-26,6.51-4.17-.77-11.23-2.09-15.25-7.44-6.73-9,.12-22.55,4.65-38.89,3.42-12.36,6.62-30.28,5-53.71a22.22,22.22,0,0,0-2.48-10.8c-9.23-17.24-43.82-19.59-51.41-8.34-2.07,3.07-1.1,9.91.93,23.46,1.34,9,2.88,16.31,4,21.3.37.93,3.25,8.7-1.23,15.74a15.75,15.75,0,0,1-9.51,7c-.4.1-7.34,1.6-11.56-2-4.47-3.86-2.42-10.53-.93-34.57.81-12.95.69-18.57-2.78-24.08a25.2,25.2,0,0,0-9.61-8.64c-14.59-7.82-30.34-8.81-40.57-1.85-1.72,1.17-7.91,5.37-10.53,13a25.18,25.18,0,0,0-.62,13.27c3.65,19,14,72.89-3.82,86.76-6.08,4.73-17.77,6.63-25,1.53-23-16.28,23.27-86.81-4.08-114.73-12.15-12.4-37.51-15.07-47.71-5.27-4.31,4.14-6.89,10.85-6.36,21.1,2.08,40.3,26.63,72,12.19,87.79s-60.66,30.46-44.77-22.19c12.8-42.41,19.46-76.81,8.18-83.31-2.83-1.64-6.49-.82-11.46.44-.84.21-15.33,4.08-18.42,14.61-1.94,6.63,2.78,8.55,2.79,18.83,0,.8-.17,17.78-9,21-4.78,1.74-11.77-.71-15.43-5.5-7.81-10.22,5.07-23.92-2.53-35.86-4-6.35-12.5-10.06-19.2-8.64-12.49,2.63-15.9,22.39-16.28,24.57-1.39,8.07.16,12.76,4.79,31.52,8.51,34.41,8.38,39.12,7.4,43.82-2.38,11.45-10.45,26.2-21.92,27.28-7.48.7-13.35-4.7-14-5.27-8.68-8.23-7.36-22.59-5.88-34.88,6.52-54.42,17.61-80.67,6.19-90.75-3.51-3.1-8.13-3.76-9.91-4-10.91-1.56-22.18,5.51-27.53,14.31-3.78,6.23-3.82,12.06-3.75,23,.13,21.38,6.47,29.13,1.23,36.42-3.75,5.23-12.57,9-17.34,6.18-13-7.63,14.61-57.42-4.08-73.78-5.47-4.8-15.86-7.54-25-4.94a27.52,27.52,0,0,0-12.39,7.72,49.66,49.66,0,0,0-3.09,7.1c-6.89,19.94,4.09,30.28,1.55,50.93-1.77,14.32-9.69,30.86-19.64,32-3.52.39-6.48-1.34-7.82-2.12-3.13-1.81-9.53-6.92-11.3-25-2.56-26.09,9.28-30.68,5-46.21-5.29-19.19-27.9-28.64-37.78-30.87a32.13,32.13,0,0,0-16.21,0c-2.48.7-7,2-10.47,5.66-1,1-5.17,5.8-4.76,19.08.39,12.5,4.3,14.37,6.41,28.69C533.15,241,534.19,248,530,254.42c-3.65,5.53-10.85,10-18.14,9.25-6.8-.73-11.24-5.78-12.27-6.95-16.2-18.44,16.1-57,1.59-77.92-11.23-16.17-46.83-17-59.18-3.43-2.53,2.78-4.11,6.7-4.36,12.07-1.45,30.22,18.77,34.54,14.44,72s-21.67,64.77-39,37.42,21.67-138.17-24.55-122.33S361.05,199,363.94,216.22s16.48,63.33-6.2,63.33c-18.08,0-.84-86.85-26.93-98.16-5.8-2.52-12.28-.87-17.26,1.22-7.53,1.83-17.75,5.65-22.5,14.52-6.23,11.61-1.37,24,5,40.68,23.11,60.45-27.44,105.07-33.21,43.18-4-42.57,22.26-73.57,8.23-89.14-3.17-3.53-8-5.52-10-6.36-1.24-.52-17.56-7.07-28,1-5.85,4.56-7.18,11.68-7.85,15.3-3.5,18.77,9.72,30.73,4.83,45.8a14.89,14.89,0,0,1-4.83,7.45c-3.48,2.76-9.42,4.52-12.93,2.84-11.78-5.63,6-49.25-10.33-61.4a25.28,25.28,0,0,0-12.79-4.45A23.71,23.71,0,0,0,176,195.78a25.15,25.15,0,0,0-5.78,3.74c-10.85,9.44-10.09,25.82-9.94,28.22.94,15.44,9.93,18,12.83,39.24.86,6.29.64,10.26-1.28,14-4.08,8-13.55,10.21-18.16,11.57-15.8,4.65-29.5-2.94-29.5-2.94s-21.66-14.39-10.11-53.25-27.44-51.81-41.88-34.54c-15,17.9,29.23,66,11.56,89.23-4.37,5.73-11.07,8-15.73,9.05-17.27,3.27-32.29,0-37.17-8.85-1.88-3.41-1.95-7.11-2-10.27-.14-12.83,6.46-22.22,9.62-26.15,12.24-21.74,9-44.84-3.85-54.45-7.93-5.94-17.89-5.5-23-4.82a34.06,34.06,0,0,0-9.5,3.29c-13.19,6.93-22.7,23.36-22.39,38.95.42,20.74,17.94,27.93,14.75,49.13-.55,3.61-1.26,7.92-4.64,11.32-11.52,11.59-44.48,3.09-50.7-13-1.87-4.81-.53-8.24,4.54-23.66,15.06-45.76,16.67-56,11.62-62.3-3.19-3.94-7.75-5.65-14.56-6.13-17.39-1.24-28.63,2.57-35.69,9.39-10.41,10-13,26.4-10.53,38.1,1.37,6.34,4.48,12.27,1.87,14.76-2.15,2.05-6.94.58-10.73-1a21.28,21.28,0,0,1-3.51-6c-4.09-10.65,3.4-17.92,2.27-33.75-.19-2.58-.87-12.1-5-13.26-2.15-.6-4.41,1.26-5.09,1.82-10.2,8.37,6,42.18-2.9,79.76-1.2,5.06-6.11,25.84-16.54,27.3-4.5.63-8.38-2.61-9.45-3.43-13-10.08,15.89-115.14-11.55-95-11.47,8.42-19.41,9.05-24.77,6.92-4.38-1.74-3.17-6.33-9.89-11.24a26.16,26.16,0,0,0-7.51-3.79c-2-.45-14.88-3.09-21.34,4-5.38,5.94-3.27,15.31-1.48,22.78,6.31,26.28,23.92,31.54,24.48,52.82.24,9.51-3.12,14.66-4.26,16.26-5.72,8-15.18,9.55-18.15,9.89-10.68,1.22-23.73-3.71-27.15-13.19a15.55,15.55,0,0,1-.83-6.58c.52-2.05,2-7.75,2.48-9.88,14.22-56.64,18.58-73,11-79-2.27-1.79-4.9-2.11-8.29-2.52-7.27-.88-17.2,1.22-22.36,8.26-3.11,4.22-3.22,8.69-3.46,17.62-.25,9.69-.17,15.35,1.8,22.19s1.48,10.15.65,12.24a12,12,0,0,1-1.44,2.6c-3.58,4.83-11.52,7.08-15.66,4.79-5.29-2.93-4.6-13.43-4.44-16.56,1-19.74.4-110.76-.95-237.6Z"/><path class="cls-2" d="M2016.79-8V83.15c0,9.46-.25,18.93,0,28.4.15,5.74.26,6.38,0,8.23-1.5,10.73-9.49,13.13-17.32,25.31-4,6.22-5.77,11.46-8.42,19.29a95.93,95.93,0,0,0-5.42,23.61c-.5,5.83.08,13,1.24,27.48.54,6.67.81,10,1.4,15,1.5,12.7,2.68,15.7,2.47,23.3-.18,7-.29,11-2.94,15.28-3.84,6.22-12.12,11.45-18.43,9.57-5.1-1.52-8.68-7.61-11.3-21.45-8.16-43,12.53-60.66.31-84-9.75-18.59-29.92-24.8-33.55-25.92-3.84-1.18-18.75-5.41-25.32.8-7.79,7.36-2.12,23.67-2.12,23.67a111.86,111.86,0,0,1,8.33,43.12c-.13,12.55-.3,27.94-10.32,34-4.39,2.64-10.64,3.49-15.63,1.18-10.06-4.66-11.32-20.39-11.84-26.85-2.3-28.81,14.46-41.48,6.41-60.6-1.06-2.5-3.45-8-9.09-11.52-10.52-6.6-26.69-2.83-35.1,4.52s-10.29,19.32-6.2,63c5.63,60.12,13.27,80.81,1.24,91-7.63,6.43-21.13,6.9-28.91,1.64-8.08-5.46-9.32-16.65-9.81-22.22-4.93-56.67,19-107.85-1.85-132.42-14.34-16.91-46.41-21.5-62.43-10-5.4,3.86-7.92,8.79-9.66,12.32-15.06,30.46,13.47,60.4,3.22,100.11-3.93,15.22-10.15,18.68-13.16,19.75-4.56,1.63-10.23,0-14.61-1.84-20.22-8.64,10.11-108,0-125.22a13,13,0,0,0-4.35-4.19c-10.76-7.29-31.2-3.78-37.78,6.65-8.54,13.55,10.44,32.23,1.76,42.29-4.66,5.4-15.73,6.49-21.48,2.06-10.77-8.32,3.55-32.82-8.48-45.8-5.22-5.64-13.3-6.83-19.6-6.88-17.37,4.36-24.07,11.78-27,17.39s-4.53,13.61,1.76,66.57c.87,7.32,1.81,14.88-2.79,19.13-5.43,5-17.23,4.16-21.68-1.54-4.63-5.92,1.47-13.46,4-28.71,3.63-21.68-1.47-49.71-15-54.56-7.53-2.7-15.54,2.54-16.88,3.42-16,10.46-13.74,37.45-13.4,41.6,1.09,13.1,5.41,18.07,7.79,41.34.65,6.38.9,11.7-2.48,16-4.88,6.26-15.81,8.57-22.3,4.32-3.65-2.39-5-6.3-5.64-8.21-5.81-18.56,5.23-32.56,3.78-53.83-1.26-18.43-11.63-38.48-25.23-41.92a34.81,34.81,0,0,0-13.18-.06,38.56,38.56,0,0,0-16.2,8.42c-14,12.54-13.65,36-13.53,43.43.31,19.39,6.52,24.3,5.07,46.73-.63,9.8-2.23,15.34-6.31,19.53-5.82,6-17.32,9.87-24,6.18-19.67-10.95,14.36-90-7.16-106.88a36,36,0,0,0-15-6.61,36.39,36.39,0,0,0-18.59,2.78c-13.46,6.18-21.44,29.66-17,57.72,7.34,17.67,4.36,32.73-3.1,36.42-4.9,2.43-12.86.51-17-4.32-5.12-5.93-3.45-15-2.78-19.14.88-5.49,8.27-53.72-8.06-71.61-8.1-8.87-20.83-8.94-41.24-9.06-16.74-.09-39.6-.22-49.2,13.69-5.36,7.77-4,19.35-1.35,42.51,3,25.82,7.79,33.66,2,42.38-5.47,8.2-17.74,13.25-25.57,9.69-4.82-2.19-7-7.24-8.17-10.4-10.5-29.23,13-61.33.91-82.64-11.36-20-51.86-26.52-71.86-11.42-6.23,4.71-9.28,10.78-11.37,14.9-9.58,18.81-5,38.6-2.26,50.54a109.23,109.23,0,0,0,7.75,22.23c4,7.52,4.45,16.18.3,22.22-6.89,10.07-22.58,7.14-25.94,6.52-4.17-.78-11.23-2.09-15.25-7.44-6.73-9,.12-22.55,4.65-38.9,3.42-12.36,6.62-30.28,5-53.71a22.24,22.24,0,0,0-2.48-10.8c-9.23-17.23-43.82-19.59-51.41-8.33-2.07,3.07-1.1,9.9.93,23.46,1.34,9,2.88,16.3,4,21.29.37.93,3.25,8.7-1.24,15.75a15.76,15.76,0,0,1-9.5,7c-.4.09-7.34,1.6-11.56-2-4.47-3.85-2.42-10.53-.93-34.57.81-12.95.69-18.57-2.78-24.07a25.24,25.24,0,0,0-9.61-8.65c-14.59-7.81-30.34-8.81-40.57-1.85-1.72,1.17-7.91,5.38-10.53,13a25.18,25.18,0,0,0-.62,13.27c3.65,19,14,72.88-3.82,86.75-6.08,4.73-17.77,6.64-25,1.53-23-16.27,23.27-86.81-4.08-114.73-12.15-12.4-37.51-15.07-47.71-5.27-4.31,4.15-6.89,10.86-6.36,21.1,2.08,40.3,26.63,72,12.19,87.8s-60.66,30.45-44.77-22.19c12.79-42.42,19.46-76.82,8.18-83.32-2.83-1.64-6.49-.82-11.46.44-.84.22-15.33,4.08-18.42,14.62-2,6.62,2.78,8.54,2.79,18.83,0,.79-.17,17.78-9,21-4.78,1.75-11.77-.71-15.43-5.49-7.81-10.22,5.07-23.92-2.53-35.87-4-6.35-12.5-10-19.2-8.64C741,173,737.61,192.79,737.23,195c-1.39,8.07.16,12.75,4.79,31.51,8.51,34.41,8.38,39.12,7.4,43.82C747,281.76,739,296.52,727.5,297.59c-7.49.71-13.35-4.7-14-5.26-8.68-8.23-7.36-22.59-5.88-34.88,6.52-54.43,17.61-80.68,6.19-90.75-3.51-3.1-8.13-3.76-9.91-4-10.92-1.56-22.18,5.51-27.53,14.31-3.78,6.24-3.82,12.06-3.76,23,.14,21.38,6.48,29.14,1.24,36.43-3.75,5.22-12.57,9-17.34,6.17-13-7.62,14.61-57.42-4.08-73.78-5.47-4.79-15.86-7.53-25-4.93a27.43,27.43,0,0,0-12.39,7.71,50.18,50.18,0,0,0-3.09,7.1c-6.89,19.94,4.09,30.29,1.55,50.94-1.77,14.31-9.69,30.86-19.64,32-3.52.39-6.48-1.34-7.82-2.12-3.13-1.81-9.53-6.92-11.3-25-2.56-26.09,9.28-30.68,5-46.21-5.29-19.19-27.9-28.64-37.78-30.86a31.9,31.9,0,0,0-16.21,0c-2.48.69-7,1.95-10.47,5.66-1,1-5.17,5.8-4.76,19.07.39,12.5,4.3,14.37,6.41,28.69,1.48,10.08,2.52,17.13-1.71,23.54-3.65,5.52-10.85,10-18.14,9.24-6.8-.72-11.24-5.77-12.27-6.95-16.2-18.44,16.1-57,1.59-77.91-11.23-16.18-46.83-17-59.18-3.43-2.53,2.77-4.11,6.69-4.37,12.06-1.44,30.23,18.78,34.54,14.45,72s-21.67,64.77-39,37.43S420,138.63,373.75,154.46s-27.44,24.47-24.55,41.74,16.48,63.32-6.2,63.32c-18.08,0-.84-86.84-26.93-98.16-5.8-2.52-12.28-.87-17.26,1.22-7.53,1.84-17.75,5.66-22.5,14.52-6.23,11.62-1.37,24,5,40.69,23.11,60.44-27.44,105.06-33.21,43.17-4-42.57,22.26-73.57,8.23-89.14-3.17-3.52-8-5.52-10-6.36-1.24-.51-17.56-7.07-28,1-5.85,4.55-7.18,11.67-7.85,15.3-3.5,18.77,9.72,30.73,4.83,45.8a14.94,14.94,0,0,1-4.83,7.45c-3.48,2.75-9.42,4.51-12.93,2.84-11.78-5.64,6-49.26-10.33-61.41a25.33,25.33,0,0,0-12.79-4.44,23.64,23.64,0,0,0-13.22,3.7,25.25,25.25,0,0,0-5.78,3.75c-10.85,9.43-10.09,25.81-9.94,28.21.93,15.44,9.93,18,12.83,39.24.86,6.3.64,10.27-1.28,14-4.08,8-13.55,10.21-18.16,11.57-15.8,4.65-29.5-2.93-29.5-2.93S87.8,255.21,99.35,216.35s-27.44-51.82-41.88-34.54C42.51,199.7,86.7,247.85,69,271c-4.37,5.73-11.07,8-15.73,9-17.27,3.28-32.29,0-37.17-8.85-1.88-3.41-1.95-7.11-2-10.27-.14-12.82,6.46-22.22,9.62-26.15,12.24-21.73,9-44.84-3.85-54.44-7.93-6-17.89-5.5-23-4.83a34.35,34.35,0,0,0-9.5,3.3c-13.19,6.92-22.7,23.35-22.39,38.95.42,20.73,17.94,27.92,14.75,49.12-.55,3.62-1.26,7.92-4.64,11.32-11.52,11.59-44.48,3.09-50.7-13-1.87-4.82-.53-8.25,4.54-23.67,15.06-45.75,16.67-56,11.62-62.3-3.19-3.94-7.75-5.65-14.56-6.13-17.39-1.24-28.63,2.58-35.69,9.39-10.41,10.05-13,26.41-10.53,38.1,1.37,6.34,4.48,12.28,1.87,14.77-2.15,2-6.94.58-10.73-1a21.12,21.12,0,0,1-3.51-6c-4.09-10.64,3.4-17.91,2.27-33.75-.19-2.58-.87-12.1-5-13.26-2.15-.59-4.41,1.26-5.09,1.82-10.2,8.38,6,42.19-2.9,79.76-1.2,5.06-6.11,25.84-16.54,27.3-4.5.63-8.38-2.6-9.45-3.43-13-10.07,15.89-115.14-11.55-95-11.47,8.42-19.41,9.05-24.77,6.93-4.38-1.74-3.17-6.33-9.89-11.25a26.21,26.21,0,0,0-7.51-3.78c-2-.45-14.88-3.09-21.34,4-5.38,5.95-3.27,15.32-1.48,22.78,6.31,26.29,23.92,31.54,24.48,52.82.24,9.51-3.12,14.67-4.26,16.26-5.72,8-15.18,9.56-18.15,9.9-10.68,1.22-23.73-3.71-27.15-13.19a15.6,15.6,0,0,1-.83-6.59c.51-2.05,2-7.75,2.48-9.88,14.22-56.63,18.58-73,11-79-2.27-1.79-4.9-2.1-8.29-2.51-7.27-.89-17.2,1.21-22.36,8.25-3.11,4.23-3.22,8.69-3.46,17.62-.25,9.69-.17,15.35,1.8,22.19s1.48,10.15.65,12.24a12,12,0,0,1-1.44,2.6c-3.58,4.84-11.52,7.09-15.66,4.8-5.29-2.93-4.6-13.43-4.44-16.57,1-19.73.4-110.75-.95-237.6Z"/><path class="cls-3" d="M2015.79-18.72c0,17.53.06,60.21,0,77.06.07,12.85-.15,25.69-.07,38.53-.09,4.28.6,8.59,0,12.84-1.35,8.9-9.44,14-14.43,20.79-5.4,6.76-8.45,14.85-11.1,23a94.47,94.47,0,0,0-5.57,25,105.66,105.66,0,0,0,.3,12.83c1,12.8,1.85,25.63,3.78,38.33a74.45,74.45,0,0,1,.91,19.21,24.38,24.38,0,0,1-1.16,6.32,21.24,21.24,0,0,1-8,9.9c-16.39,10.69-21.21-6.08-23.59-19-3.48-16.92-1.72-34.29,2.13-51,1.74-8.3,3.31-17,1-25.35s-7.56-15.47-14-21a62.83,62.83,0,0,0-34.95-14.44c-4.09-.21-8.81.12-12.08,2.86s-4.37,7.3-4.46,11.46a39.11,39.11,0,0,0,2.05,12.55,114.08,114.08,0,0,1,8.2,37.52c0,12,1.31,31.73-9.68,39.19-5.29,3.63-13,4.2-18.43.54-8-6-9.28-17-10-26.33a70.81,70.81,0,0,1,2.88-25.47c2.27-8.19,5.88-16.23,5.71-24.84-.33-9.32-5.5-19.4-14.52-22.85-10.55-4.05-24.45-.55-32.53,7.23-6.24,6.19-6.64,15.56-7,23.84,0,33.74,5.94,68.68,9.32,102.24.52,8.31,1.44,18.08-4.22,24.93-8.27,9.32-27,10-35,0-5.57-6.95-6-16.16-6.54-24.62-.93-17.14.56-34.31,2.69-51.3,2.11-21.64,10.81-57-3.75-74.75-12.82-15.43-40.23-21.31-58.39-12.69-7.92,3.63-12.54,11.4-15.37,19.3-4.44,12.23-1.93,25.39,1,37.71,4.11,16.54,8.57,33.68,5.68,50.85-1.63,9.46-5.23,23.67-15.57,26.93-4.88,1.26-9.87-.26-14.35-2.16-20.18-10.05,8.64-102.05.43-124.21-2.74-5.76-9.67-8.07-15.64-8.73-7.74-.7-16.16,1.11-22.34,6a16.71,16.71,0,0,0-4.46,5.32c-4.69,10.51,3.15,21,4.65,31.52,1.82,10.58-8.08,15.53-17.36,14.48-21.51-2.91-4.93-30.94-13.25-45.16-4.19-7.73-13.35-10.13-21.62-10.1l.14,0a64.84,64.84,0,0,0-12.82,4.59c-6,3-11.61,7.45-14.43,13.65-2.59,6.32-1.92,13.42-1.81,20.14.63,13.72,2.19,27.42,3.74,41.07.47,4.55,1.27,9.09,1.16,13.79s-2.07,9.9-6.76,11.74c-5.94,2.56-13.57,1.8-18.46-2.53-4.5-4.12-2.47-10.16-1-15.12a87.54,87.54,0,0,0,3.13-47.16c-2.16-9.94-7.93-24.32-20.38-22.42a24.8,24.8,0,0,0-16.47,10.59c-7.32,11.43-7.68,26.45-5.8,39.55.74,4.48,2.07,8.87,3.19,13.33a148.29,148.29,0,0,1,3.67,20.38c.87,6.75,1.89,14.85-3.37,20.13a19.35,19.35,0,0,1-19.81,4.44c-7.19-2.69-9-11-9.74-17.72-1.15-13.92,5.37-27,5.39-40.86.41-15.84-7.12-38.62-22.43-45.63-4.44-1.78-9.39-1.64-14.08-1.05a34.45,34.45,0,0,0-12.44,5c-16.23,10.06-18.51,31.14-17.89,48.61.15,9.22,3,18,4.44,27a78.19,78.19,0,0,1,.73,13.84c-.28,9-1,19.79-8.88,25.63-6.77,5.19-19.66,9.52-25.87,1.34-12.79-19.34,15.58-87.23-3.71-103.69a34.08,34.08,0,0,0-15.2-6.73,36.45,36.45,0,0,0-13.35,1.1c-22.47,5.76-24.27,40.33-21.24,58.44,3.89,9.66,6.24,21,2.16,31-3.8,9.59-15.23,9.2-22.14,3.27-5.22-4.35-5.66-11.87-4.83-18a218.33,218.33,0,0,0,2.67-24.79c.51-15.43.48-34.83-8.82-47.78-5.06-6.77-13.45-9-21.54-9.69-8.26-.73-16.62-.58-24.91-.64-15.26.24-35.59.19-44.77,14.55-4,7.24-2.78,16.09-2.28,24.06.78,8.27,1.69,16.57,2.86,24.79.88,6.19,2.12,12.31,3.07,18.5.6,4.19,1.09,8.65-.43,12.75-3.27,8.06-11.52,13.44-20,14.66-17.88,2.33-20.55-20.92-19.75-33.9.79-12.61,4.59-24.6,6.38-37,.85-6.09,1.18-12.33-.55-18.25-6.63-21.38-38.29-27.66-57.7-23.17-7.91,1.82-15.59,5.64-20.65,12.13a57.31,57.31,0,0,0-9.41,19.22c-3.51,13.05-1.56,26.78,1.57,39.75a107.37,107.37,0,0,0,8.28,23.34,26.49,26.49,0,0,1,2.73,12.49c-.9,15.9-16.31,19.08-29.43,16.44-12.26-1.78-20.87-7.94-18.91-21.32.83-6.27,3-12.26,4.85-18.24a157,157,0,0,0,7.3-61.34,20.44,20.44,0,0,0-4-13c-5.8-7.42-15.48-10.82-24.61-11.91-7-.89-21.94-.16-24.4,8.06a26,26,0,0,0-.09,6.9,316.94,316.94,0,0,0,5.9,35.32c3.6,9.16-.6,21-11.21,23.71-4.54,1-10.07.65-13.39-3a8.55,8.55,0,0,1-1.7-3.52c-.79-3.88-.34-7.67-.11-11.53l.9-11.27c.28-3.75.54-7.51.74-11.26.22-5.54.71-11.21-1-16.5-4-11.85-20.28-17.39-31.66-18.5a34.92,34.92,0,0,0-10.94.8c-10.5,2.59-19.76,12.11-19.57,23.31-.09,3.19,1.07,7.82,1.62,11a328.72,328.72,0,0,1,4.73,33.66c.81,11.3,1.16,22.9-1.56,34-1.43,5.53-4,11.32-8.74,14.84a25.44,25.44,0,0,1-16.69,4.35c-14.73-1.34-17.06-14.39-15.66-26.68,2.13-18.76,8.55-36.76,10.59-55.5.8-7.41,1-15-.77-22.16-3.4-15.36-18.27-23.35-33-24.42-11.22-.83-23,2.59-25.86,14.72-1.85,7.19-.8,14.82.13,22.1,1.65,11.15,4.79,22,8.22,32.72,3.42,12,11.38,29.95,4.94,41.74-7.51,12.24-36.94,26.08-48.07,12.52-7.8-10.64-1.92-27.56,1.41-39,3.9-14.31,19.82-65.73,7.14-75.33-2.92-2.09-6.88-.79-10.18-.07-6.13,1.54-12.26,4.49-16.32,9.44-5.47,7.38-1.88,10.37-.21,17.9a38.46,38.46,0,0,1-1.22,17.21c-1.17,3.74-3.05,7.65-6.72,9.61-5.62,2.74-12.41.16-16.54-4-7.63-7.64-1.65-18.76-1.33-27.77.61-7.39-4.49-14-11.25-16.57-7.32-3-14.31-.79-18.57,5.83a45.33,45.33,0,0,0-6.73,20.81c-.24,7.39,2.26,14.73,3.89,21.92,1.83,7.31,3.63,14.64,5.31,22s3.47,14.75,3.88,22.43a26.25,26.25,0,0,1-1.34,8.62,48.2,48.2,0,0,1-5.93,13.07c-3.64,5.62-9.24,11-16.27,11.49-6.47.38-12.88-3.09-16.65-8.19s-4.85-11.79-4.94-18a93.74,93.74,0,0,1,.65-11.39c1.67-15,4.05-29.92,6.69-44.78,1.3-7.43,2.68-14.84,3.75-22.26.85-7.18,2.18-15-.32-21.9s-11.15-9.2-18-8.49c-10.64,1.33-20.87,9.44-23.76,19.93a47,47,0,0,0-1.07,11,125.13,125.13,0,0,0,2.45,27.91c.72,4.27,1.66,9-.45,13.08a18.84,18.84,0,0,1-13.2,8.91c-15.73,1.87-9.44-19.64-8-28.64,2.63-15.37,10.66-42.5-8.53-49.74a28,28,0,0,0-21.28,0c-3.21,1.21-7,4.43-8.66,6.11a44.28,44.28,0,0,0-5,15.62c-1.1,8.28,1.43,16.55,2.91,24.71a56.63,56.63,0,0,1-.93,25.47c-2.57,9-7.27,20.66-16.68,24.23-4.39,1.55-9.2-.4-12.66-3.15-6.78-5.78-8.65-15.18-9.67-23.52a61.3,61.3,0,0,1,2.17-25.4c1.55-5.28,3.94-10.47,3.64-16a27.67,27.67,0,0,0-2.48-9.79c-5.5-12-17.57-19.69-29.66-24.12-7.69-2.85-16.25-3.91-24.07-1a18.78,18.78,0,0,0-6.87,4c-3.84,3.74-4.77,9.68-5.06,14.9a43.79,43.79,0,0,0,2.09,16.27c.86,2.64,1.84,5.32,2.57,8.08a77.46,77.46,0,0,1,1.72,8.36c.76,5.64,1.87,11.33.92,17.08-1.49,8.79-9.6,15.79-18.35,16.76s-16.86-5.31-19.9-13.12c-3-8.67-.68-17.95,1.55-26.49,2.81-10.74,7-21.43,7.11-32.58.5-18.9-19.25-25.8-35.23-25.56-10.21.23-23.46,3-28.4,12.7-2.25,4.82-1.94,10.62-1.55,16.07a53.9,53.9,0,0,0,4.12,16c2.11,5.14,4.73,10.15,6.72,15.49,6.26,16.12,4.09,34,.1,50.37-2.15,8.21-5,16.49-10,23.49-5.84,8.42-14.68,11.16-22.61,2.81a41.14,41.14,0,0,1-5.23-6.89c-4.26-7.62-4.45-16.66-4.66-25.1,0-11.32,1-22.55,1.89-33.75.83-15.16,6-49.74-4.46-60.94-5-5.12-12.83-3-18.78-.68a120.13,120.13,0,0,0-15.39,6.51c-3.62,1.92-7.19,4.05-9.73,7.25-5.63,7.14,1.86,15.51,3.43,22.95,2.92,15.23,7,30.34,7.33,46-.07,5.75-.42,11.84-3.89,16.76l-.74.87-.37.44-.44.37-.88.75a12.49,12.49,0,0,1-5.29,2.09c-1.58.13-3.2.35-4.68-.37-4.27-2.17-5.24-7.42-6.22-11.52-2.48-13.91-2.16-28.15-3.26-42.12-1.55-19-3.72-55-31.88-42.86a45.21,45.21,0,0,0-14.29,5.87c-15.19,10.14-10.89,26.81-5.21,41.44,1.66,4.57,4,10.28,5.25,14.88,4.27,15.25,4.9,31.9-.72,46.94a39.43,39.43,0,0,1-8.33,13.65c-3.76,3.92-9.69,6.93-15.13,4.61a15.07,15.07,0,0,1-6.34-5.32c-9.38-14.34-8.62-38-5.69-54.28,1.88-10.38,5-20.44,7.83-30.49,1.82-7.38,4.26-15.16,2.22-22.65-3.18-11.38-22.07-16.2-32.21-14.21a17.84,17.84,0,0,0-6.84,2.84c-4.2,2.8-6.59,7.61-7.69,12.48a41.68,41.68,0,0,0-1.13,9.5L210,180l.05,1,.13.95.25,1.91c1.52,10.28,7.73,20.2,5.49,31-1,5.43-4.35,10.63-9.63,12.64a14.79,14.79,0,0,1-8.19,1.27c-2.95-.34-5.26-3.22-5.86-6-1.88-7.87-.36-15.92,0-23.79a115.67,115.67,0,0,0,.33-15.56c-.41-5-1.21-10.28-4.32-14.3s-8.27-5.82-13.1-6.56a22.06,22.06,0,0,0-14.46,3.45c-13.91,6.46-17.63,24.87-13.89,38.6,1.78,5.78,5.31,10.86,7.57,16.52a60.55,60.55,0,0,1,3.28,11.11c.86,5.39,2,10.88.25,16.3-2.51,7.86-10.69,11.85-18.08,13.83A42.49,42.49,0,0,1,108.56,260l-.26-.14-.07,0,0,0a1.25,1.25,0,0,1-.65-.9l.41.77a26.73,26.73,0,0,1-4.78-4.59,38.57,38.57,0,0,1-6.76-12.57c-3.22-10-2.75-20.62-.59-30.69,1.58-5.9,3.85-13.76,3.71-19.78.16-9.89-4.85-19.91-13.84-24.46-8.58-4.64-20.28-4.2-27.38,2.87-7.57,7.39-3,19.26-.15,27.92,2.3,6.35,5,12.59,7.5,18.93,7.91,19.43,15.53,44.84-11.1,52.45-14.66,3.38-34,2.88-40.6-9.52a19.55,19.55,0,0,1-1.67-7.77C11.44,242.23,15.89,231,22,223.69c7-12.61,10.33-28.37,4.75-42.07a26.8,26.8,0,0,0-8.52-11.34c-7.79-5.56-18.69-6.25-27.59-3-14,5.34-23.32,19.61-25.38,34.11-1.3,10.07,1.48,18.18,6.63,26.81,2.45,4.27,5.05,8.61,6.63,13.46a33.19,33.19,0,0,1-.89,22.47c-3.28,7.39-12.34,9.79-19.76,9.68A47.43,47.43,0,0,1-57,271.21c-7.12-2.45-14.13-6.38-18.5-12.74a15.22,15.22,0,0,1-2.72-7.31A24.77,24.77,0,0,1-77,243.58c5.21-16.2,11-33.28,15.38-49.63a95.2,95.2,0,0,0,2.8-14.41c.52-4.75-.44-9.61-4.47-12.54-3.73-2.95-8.9-3.54-13.58-3.75-7.32-.39-14.72.08-21.68,2.4a30.7,30.7,0,0,0-16.6,13.23,40.77,40.77,0,0,0-5.18,13.51,44.91,44.91,0,0,0-.5,14.49,42.38,42.38,0,0,0,1.6,7.11c.72,3.28,3.45,8.51.36,11.5-3.46,2.54-8.27.22-11.71-1.06a21.57,21.57,0,0,1-4.83-10.23c-1.09-7.32,2.31-14.33,3-21.46.73-4.82.84-27.92-8.66-19.33a6.6,6.6,0,0,0-1.46,1.89c-1.51,3-1.62,6.7-1.52,10.09.13,3.54.51,7.1.91,10.66.83,7.12,1.73,14.28,2.15,21.49,1,14.41-.25,29.09-4.66,42.9a60.53,60.53,0,0,1-4.11,10.11c-2.19,3.95-5.1,8.31-9.83,9.67-4.25,1.17-8.8-1.06-11.86-3.94a13.24,13.24,0,0,1-2.62-6.63c-1.11-7.24-.58-14.47-.17-21.71,1-14.36,2.83-28.62,3.61-42.93.19-7,.8-14.37-1.09-21.13-.73-2.16-1.95-4.67-4.59-4.38s-4.54,2-6.69,3.53c-4.55,3.1-9.44,5.78-15,6.71a17.16,17.16,0,0,1-8.38-.64,7.08,7.08,0,0,1-2.62-1.47c-1.53-1.43-2.19-3.22-3.1-4.67-2.63-4.54-7.29-7.47-12.21-9.08-6.47-1.31-15.54-1.65-20.58,3.93-4.82,5.81-3,14.29-1.37,21.17,2.4,11.22,8.47,20.94,15.32,30a65.33,65.33,0,0,1,6.07,9.84c4,8.79,4.72,19.57.28,28.35a23.79,23.79,0,0,1-13.41,11,31.79,31.79,0,0,1-22.89-.87,21.83,21.83,0,0,1-11-9.47,16,16,0,0,1-1.63-8.86c5.11-22,12.59-47,16.26-69.07,1.3-9.21,3.05-20.44-9.28-21.2a28.05,28.05,0,0,0-13.64,1.28,18.26,18.26,0,0,0-10.33,8.41c-2,4.13-1.94,9-2.1,13.59-.12,4.73-.29,9.46,0,14.13s1.7,9.13,2.69,13.85c1.95,8.34-2.85,14.83-10.87,16.77a11.18,11.18,0,0,1-7.46-.48c-2.36-1.21-3.66-3.7-4.32-6.13a35,35,0,0,1-.74-10.83c1.13-37.32.25-86.51.17-124.28l-1.06-113.68v-.7c-.21-.18,2329.83.83,2329.92.7Zm0,0c.09-.6-2332.1,2-2328.52,0,.21,38.14,1.46,133.75,1.46,170.52,0,21.32.23,42.65-.33,64-.26,8-1.8,22.49,10.55,19.46,4.22-1,8.53-3.95,9.71-8.33s-.67-9.11-1.66-13.58c-1.6-7-1.26-14.32-1.09-21.42.19-7.56.33-14.89,7-19.9,6.89-5.3,16.14-6.2,24.38-4.23,9.93,2.51,8.17,14.59,7,22.32-2.32,14.06-6,27.83-9.36,41.65,0-.12-7,28.07-6.89,27.44-.61,5.54,2.4,10.87,6.92,13.92,10.45,7.38,26.65,7.05,35.84-2.28,7.8-8.23,7.31-21.51,2.91-31.32-3.24-6.75-8.38-12.49-12.5-19a65.68,65.68,0,0,1-9-21.16c-2.28-9.26-4.15-21.43,6.61-26.16,5.47-2.36,11.67-2.06,17.36-.92,5.22,1.68,10.42,4.94,13.21,9.83,1,1.59,1.65,3.26,2.79,4.29a9.08,9.08,0,0,0,4.51,1.74c5.26.78,10.29-1.2,14.89-3.68,3.31-1.7,5.77-4.06,9.15-5.79,9.63-4.44,10.46,9.39,10.57,15.6.21,21.62-3.91,43-4.28,64.5,0,4.82-.24,13.33,3.2,16.72,2.67,2.22,6.28,4.05,9.78,3.09,4.14-1.26,6.71-5.07,8.77-8.83,7.87-16,9.61-34.46,8.56-52.11-.53-10.76-2.55-21.4-3.06-32.2-.1-4.13,0-8.69,2.53-12.21,1.74-2.2,5.19-4.52,8.08-2.92,3.64,2.63,4,7.64,4.53,11.7a49.42,49.42,0,0,1-.08,10.94c-1,8.63-5.63,17.48-1.49,25.87a21.07,21.07,0,0,0,2.78,4.34l-.33-.24c2.91,1.22,11,4.42,10.54-1.43-.48-4.72-3-9.5-3.36-14.38a46.77,46.77,0,0,1,2.57-22.33c3.51-9.55,11-17.65,20.85-20.77a62.64,62.64,0,0,1,29.86-1.58c4.36.95,8.77,3.58,10.84,7.71,1.62,2.92,1.49,6.42,1.33,9.53a94.08,94.08,0,0,1-2.85,14.72c-3.76,14-8.61,28.81-13.17,42.61-1.43,4.55-3.36,9.34-3.37,14.06.46,4.66,3.69,8.75,7.29,11.67a45.1,45.1,0,0,0,27,9.29c5.77,0,12.32-1.23,16.28-5.76,4.66-5.68,5.08-17.23,2.68-24.09-3.31-9.91-11.09-18.15-13-28.74a39,39,0,0,1-.37-12.3C-34.38,186-24.59,171.18-10,165.58a33.38,33.38,0,0,1,15-1.84,28.2,28.2,0,0,1,14.26,5.11,28.59,28.59,0,0,1,9.11,12.09c5.81,14.24,2.37,30.6-4.84,43.62-6.34,7.82-10.11,17.71-9.46,27.84a15.7,15.7,0,0,0,2.72,9.11c4.09,5.23,10.94,7.27,17.37,7.95A60.32,60.32,0,0,0,54.09,268c25.47-7.08,17.13-32,9.9-50-2.5-6.3-5.2-12.55-7.52-19-3.25-9.29-7.52-21.88.57-29.81,7.67-7.66,20.29-8.19,29.51-3.2,9.62,4.84,15,15.55,14.82,26.07.2,6.26-2.22,14.13-3.75,20.17-2.1,9.74-2.56,20.18.54,29.73a35.67,35.67,0,0,0,7.25,12.9,22,22,0,0,0,3.56,3.3l.41.76a.68.68,0,0,0-.34-.72h0l.06,0,.24.12a42.11,42.11,0,0,0,16.71,4,39.58,39.58,0,0,0,13.22-1.9c4.22-1.22,8.6-2.82,11.95-5.66,6.39-5.09,6.32-12.75,5-20.13a56,56,0,0,0-3.54-13C150.42,216.05,146.81,211,145,205a37.31,37.31,0,0,1-1.44-9.25c-.19-9.28,2.14-19.13,8.65-26.05a26,26,0,0,1,7.56-5.45,23.73,23.73,0,0,1,15.61-3.66A25.39,25.39,0,0,1,186.72,165c9.72,7.49,7.91,23.13,7.38,34-.42,7.69-1.77,15.62-.07,23.14,1.42,5.84,6.92,5.44,11.52,3.5,7.42-2.87,9.67-11.6,8.79-18.82-.59-5.06-2.46-10-3.92-15a52.12,52.12,0,0,1-2.28-11.74,40.48,40.48,0,0,1,1.08-12c3.56-16.2,17.5-19.78,31.95-15.72,11.64,3.25,20.21,9.62,19.21,22.6a77.44,77.44,0,0,1-3,15.59c-2.82,10.11-5.94,20.08-7.79,30.33-2.88,15.92-3.59,38.93,5.37,52.83,10.17,13.62,22.79-1.7,26.48-12.51,5.45-14.54,4.84-30.9.66-45.74-1.36-4.77-3.45-10.14-5.2-14.73-6-15.42-10.27-32.76,5.93-43.71,4.12-2.92,10.36-5,14.61-6,12.94-5.59,23.39-2.07,28.59,11.14a74,74,0,0,1,4.21,16.52c2.54,16.7,2.21,33.74,3.81,50.46.67,5.17,1.39,15.74,6.29,18.38a7.15,7.15,0,0,0,3.62.22c9-1.3,9.9-12,9.94-19.34-.33-15.36-4.4-30.43-7.27-45.47-1.39-5.48-4.64-10.33-5.5-16-1.09-8,6.53-13.2,12.77-16.39a123,123,0,0,1,15.64-6.62c5.26-2,11.57-3.9,17.08-1.45,10.46,5.07,10.49,21.28,10.74,31.34-.07,22.53-3.86,44.84-3.84,67.3.17,8.18.4,16.87,4.38,24.11a39.9,39.9,0,0,0,5,6.51c15.72,15.52,26.31-13.2,29.24-25.4,3.9-16,6.06-33.51,0-49.18-4.05-10.39-10.2-20.49-11-32-.59-7.08-.77-15.13,4.16-20.86,10.55-11.23,30.74-12,44.69-7.68,21.53,6.94,23,22.73,17.7,42-2.1,8.19-4.89,16.11-6.5,24.36-1,5.33-1.59,11,0,16.2,2.36,7.48,10.14,13.66,18.15,12.8a20,20,0,0,0,13.46-7.9c5.29-6.79,3.26-15.8,2.21-23.68a69.9,69.9,0,0,0-1.67-8.14c-1.45-5.4-3.89-10.7-4.44-16.38-.69-7.11-.6-14.67,2.68-21.21,3.63-6.67,11.65-9.15,18.76-9.85,8.65-.57,17.1,2.39,24.76,6.14,9.49,4.75,18.51,11.92,22.93,21.81a26.36,26.36,0,0,1,1.48,19.13c-1.63,5.41-3.61,10.56-4.45,16.12a65.92,65.92,0,0,0-.2,16.55c1,8,2.68,16.79,9,22.22,13.64,11,23.38-8.86,26.25-20.07a55,55,0,0,0,.9-24.63c-1.53-8.33-4.07-16.64-2.93-25.27a43.73,43.73,0,0,1,.94-5.31,48.15,48.15,0,0,1,4.43-11.2c8-9,21.24-11.29,32.22-6.76,8,3,12.37,9.78,13.26,18,1.28,11.42-1.49,22.8-3.56,33.89-.93,6.16-5.39,22.19,1,25.77,5.54,2.56,13.94-2.21,16.69-7.28,1.86-3.66.9-7.94.27-11.87a128.52,128.52,0,0,1-2.48-28.27c-.1-7.87,1.12-15.63,6.62-21.71,6.24-7.36,16-12.33,25.79-11,3.86.52,7.87,1.8,10.75,4.61,7.06,7.08,4.74,19,3.76,27.86-1.08,7.5-2.47,14.91-3.77,22.33-2.63,14.81-5,29.69-6.67,44.65-1,10.53-2,23.32,6.63,31,16.63,13.48,30.17-6,33.53-21.41,1.35-5.45,0-10.94-.92-16.41-2.18-11.07-4.92-22-7.64-33-1.69-7.41-4.19-14.7-3.94-22.46a48.32,48.32,0,0,1,2.2-11.3c3.58-12,12-22.47,25.66-17,7.44,2.84,13.06,10.2,12.41,18.37-.5,10.92-7.82,23,5.1,29.52,13.52,6.38,17.23-8.35,17.51-18.82a28,28,0,0,0-2-10.7,14.59,14.59,0,0,1-1.19-5.85A16.07,16.07,0,0,1,799.83,162a34.49,34.49,0,0,1,15.32-7.92c6.55-1.8,12.33-2.1,15.37,5.18,5,13.28-1,36.86-4.19,50.67-1.81,7.33-3.82,14.61-5.93,21.86-3,10.49-7.15,21.76-4.13,32.63,2.22,7.75,9.51,10.35,17,9.49a48.17,48.17,0,0,0,28.94-14.86c4.83-5.8,4.11-13.89,2.67-20.87-4.26-18.28-12-35.87-14.52-54.62-1-7.56-2-15.31-.08-22.83,3.17-13.05,15.62-17,27.73-16.05,11.33.92,23.28,5.55,30,15.2,10.55,16.06,5,38.22,1.46,55.71-2.46,13.27-12.79,43.63-2.19,53.78,6.86,6.43,19.33,5,26.16-.78,14.14-13.08,8.4-51.1,5.79-68.8-.59-3.72-1.25-7.42-1.94-11.12-.57-3.37-1.74-7.92-1.64-11.33-.21-9.46,6.07-17.94,14.12-22.38A32.81,32.81,0,0,1,968,151.53c12.25,1.21,28.93,7.08,33.18,19.69,1.79,5.54,1.29,11.49,1.07,17.15-.2,3.77-.47,7.54-.75,11.3l-.9,11.27c-.19,3.62-.68,7.47.07,11,1.18,5.61,8.3,6.35,13,5.29,9.24-2.32,13.39-12.94,10-21.51-2.21-9.39-3.76-19-5.1-28.49-.54-5.16-1.83-10.37-.48-15.57a10.55,10.55,0,0,1,4.52-5c10.3-5.92,25.12-4.21,35.6.33,6.67,2.93,13,8.2,15.09,15.47a23.92,23.92,0,0,1,1,7.29,158.76,158.76,0,0,1-7.39,62c-2.42,8.72-8.12,21-2.86,29.42,3.3,5.26,9.71,6.91,15.59,7.95a39.92,39.92,0,0,0,12.18.53c8.36-.84,15-6.52,15.25-15.37a24.81,24.81,0,0,0-2.57-11.68,105.28,105.28,0,0,1-4.87-11.6,143.68,143.68,0,0,1-6-24.4c-2-12.39-1.36-25.71,4.19-37.19,5.57-12.81,14.23-20.52,28-23.62,19.26-4.22,46.11.83,57.14,18.43,13,22.91-12.77,56.86.43,85.78,5.55,13.28,22.28,8.54,29.79-.39a17.69,17.69,0,0,0,3.07-5.08c1.39-3.81.94-8,.36-12-2.55-14.37-4.68-28.83-5.92-43.38-.52-8.28-1.68-17.36,2.49-25,9.62-15.07,30.21-15.09,46.13-15.33,8.36.07,16.7-.09,25.06.66a45.52,45.52,0,0,1,12.39,2.66c8.21,3,13.46,10.92,15.88,19,3.7,12.08,4,24.92,3.45,37.42a220.3,220.3,0,0,1-2.7,24.91c-.53,4-.53,8.24.94,11.94,3.45,9.13,19.28,12.78,23.2,2,3.93-9.63,1.49-20.62-2.22-30-2.55-17.59-1.82-38.92,10.26-53.09,6.35-7.16,16.74-9.12,25.92-8.27a36.67,36.67,0,0,1,13.07,5,19,19,0,0,1,5.34,4.68c4.14,5.82,4.78,13.29,4.93,20.17a132.48,132.48,0,0,1-.69,13.81c-1.6,18.25-6.13,36.24-6,54.59.4,5.3.72,11.69,5.42,15,2.74,1.81,6.26,2,9.47,1.47a27.24,27.24,0,0,0,12.17-5.31,18.73,18.73,0,0,0,6.86-11.07,81,81,0,0,0,.79-27.12c-1.41-9-4.29-18-4.45-27.2-.64-17.83,1.89-39.53,18.54-49.78a33.59,33.59,0,0,1,19.94-5.53,22.23,22.23,0,0,1,7.78,1.51l.8.39,1.59.79c14.39,8.8,21.1,29.75,20.83,45.7.06,15.93-8.87,31.51-4.2,47.36a17.3,17.3,0,0,0,2.66,6.06c5.34,7.48,17.59,5.78,23.51-.18,3.21-3.21,4-7.89,3.66-12.31a152.72,152.72,0,0,0-4.26-27c-2.5-8.81-4.52-18-4.15-27.25s1.74-18.79,7-26.61a25.72,25.72,0,0,1,10.59-9c4.24-2,9.22-3.08,13.79-1.48,12.83,5.11,15.73,25.21,16.43,36.47a85.15,85.15,0,0,1-3,27.42c-1.11,4.4-3,8.73-3.62,13.18a8.6,8.6,0,0,0,.81,5.48,10.7,10.7,0,0,0,5.68,4.42c6,2.17,14.28,1.53,17.66-4.52,2.76-6.28.82-13.39.27-20-1.56-13.69-3.11-27.37-3.74-41.15-.09-6.86-.79-14.12,1.91-20.65,2.92-6.44,8.75-11.14,15-14.19a66.81,66.81,0,0,1,13.12-4.68,35.34,35.34,0,0,1,12.85,2.21c27,11.18-2.3,49.85,22.22,53.09A18.32,18.32,0,0,0,1644,187.2a9.42,9.42,0,0,0,3.79-4.62,12.58,12.58,0,0,0,.43-6.08c-1.29-8.3-6-16-6.16-24.91-.09-17.46,26-23.24,38.88-16.47,2.83,1.59,5.87,3.53,7.08,6.76,2.23,6.19,1.59,12.9,1.32,19.31-.59,8.58-1.72,17.08-2.87,25.56-2.27,16.95-5.09,33.88-6,51-.12,7.53-1.21,24,6.54,27.88,4.29,1.82,9.09,3.3,13.7,2.12,6.12-1.85,9.61-8.11,11.74-13.83a64.51,64.51,0,0,0,3.16-12.33c2.84-17-1.54-34-5.63-50.49-2.92-12.38-5.42-25.84-.93-38.21,2.88-8.1,7.74-16.06,15.82-19.77,19.25-9,46.66-2.36,59.38,12.94,14.9,18.19,5.93,53.65,3.87,75.35-2.14,17-3.64,34.07-2.72,51.17.62,8.34.93,17.43,6.37,24.23,3.92,5,10.73,7,16.93,6.93s12.84-2.18,17.08-7c2.8-3.18,3.88-7.49,4.25-11.68.62-8.51-.55-17.07-1.49-25.54-1.91-15.31-4.49-36-5.86-51-.78-8.53-1.5-17.07-1.88-25.63s-.62-17.23,1.17-25.67a22.36,22.36,0,0,1,5.83-11.41,31.18,31.18,0,0,1,10.94-6.76c7.08-2.54,15.06-3.36,22.18-.57,9.25,3.54,14.43,13.81,14.82,23.32.18,8.7-3.49,16.77-5.75,25a70.58,70.58,0,0,0-2.88,25.3c.87,8.76,1.71,18.75,8.59,25,5.23,4.58,13.61,4.28,19.19.44,4.4-3,6.89-8.18,8-13.29,1.8-8.34,1.67-17,1.54-25.52a113.69,113.69,0,0,0-8.15-37.41,39.74,39.74,0,0,1-2.07-12.69c0-10.79,6.64-15.45,16.93-14.65a63.11,63.11,0,0,1,35.14,14.54c9.79,8.3,16.61,20.85,15,34-.74,8.55-3.16,16.83-4.48,25.29a107.28,107.28,0,0,0,.28,38.28c2.29,12.71,7.09,29.41,23.23,18.83a21.09,21.09,0,0,0,7.91-9.79c1.36-4.06,1.26-8.44,1.4-12.68a69.29,69.29,0,0,0-1.15-12.76c-1.37-8.46-2-17-2.78-25.53-.59-8.54-1.64-17.08-1.26-25.65a94.63,94.63,0,0,1,5.6-25c2.63-8.14,5.75-16.25,11.13-23,3.8-5.19,9.11-9.14,12.37-14.71,2.14-3.75,2.57-8.18,2.24-12.42-.21-6.42-.19-12.85-.13-19.27.39-29.47-.1-73,.11-102.75Z"/><path class="cls-4" d="M2010.85-4.86V86.32c0,9.47-.25,18.94,0,28.4.15,5.74.26,6.38,0,8.23-1.5,10.74-9.49,13.13-17.32,25.31-4,6.22-5.77,11.47-8.42,19.3a95.82,95.82,0,0,0-5.42,23.61c-.5,5.82.08,13,1.24,27.47.54,6.68.81,10,1.4,15,1.5,12.71,2.68,15.71,2.47,23.31-.18,7-.29,11-2.94,15.28-3.84,6.21-12.12,11.45-18.43,9.56-5.1-1.52-8.68-7.61-11.3-21.45-8.16-43,12.53-60.65.31-84-9.75-18.59-29.92-24.79-33.55-25.91-3.84-1.18-18.75-5.42-25.33.8-7.78,7.36-2.11,23.67-2.11,23.67a111.79,111.79,0,0,1,8.33,43.11c-.13,12.55-.3,27.95-10.32,34-4.39,2.65-10.64,3.49-15.63,1.18-10.06-4.65-11.32-20.39-11.84-26.84-2.3-28.81,14.46-41.48,6.4-60.6-1.05-2.5-3.45-8-9.08-11.53-10.52-6.6-26.69-2.83-35.1,4.53s-10.29,19.31-6.2,63c5.63,60.11,13.27,80.81,1.24,91-7.63,6.43-21.13,6.91-28.91,1.65-8.08-5.46-9.32-16.65-9.81-22.23-4.93-56.66,19-107.85-1.86-132.42-14.33-16.91-46.4-21.5-62.42-10-5.4,3.86-7.92,8.79-9.66,12.31-15.06,30.47,13.47,60.4,3.22,100.11-3.93,15.22-10.15,18.69-13.16,19.76-4.56,1.63-10.23,0-14.61-1.85-20.22-8.64,10.11-107.94,0-125.21a12.74,12.74,0,0,0-4.35-4.19c-10.76-7.3-31.2-3.79-37.78,6.65-8.54,13.55,10.44,32.23,1.76,42.28-4.66,5.41-15.73,6.49-21.48,2.06-10.77-8.31,3.55-32.81-8.48-45.8-5.22-5.64-13.3-6.82-19.6-6.88-17.37,4.37-24.07,11.79-27,17.39s-4.53,13.61,1.76,66.57c.86,7.32,1.81,14.89-2.79,19.14-5.43,5-17.23,4.16-21.68-1.55-4.63-5.92,1.47-13.46,4-28.7,3.63-21.69-1.47-49.71-15-54.56-7.53-2.71-15.54,2.54-16.88,3.42-16,10.45-13.74,37.44-13.4,41.6,1.09,13.09,5.41,18.06,7.79,41.33.65,6.38.9,11.71-2.48,16-4.88,6.26-15.81,8.57-22.3,4.32-3.65-2.39-5-6.29-5.64-8.21-5.82-18.56,5.23-32.56,3.78-53.83-1.26-18.42-11.63-38.48-25.23-41.91a34.78,34.78,0,0,0-13.18-.07,38.51,38.51,0,0,0-16.2,8.43c-14,12.54-13.65,36-13.53,43.43.31,19.39,6.52,24.3,5.07,46.73-.63,9.79-2.23,15.34-6.31,19.53-5.82,6-17.32,9.87-24,6.17-19.67-10.94,14.36-90-7.16-106.87a36,36,0,0,0-15-6.62,36.39,36.39,0,0,0-18.59,2.78c-13.46,6.18-21.44,29.66-17,57.72,7.34,17.68,4.35,32.73-3.1,36.43-4.9,2.43-12.86.5-17-4.32-5.12-5.93-3.45-15-2.78-19.14.88-5.49,8.27-53.73-8.06-71.61-8.1-8.88-20.83-8.95-41.25-9.06-16.73-.1-39.6-.23-49.19,13.69-5.36,7.77-4,19.35-1.35,42.51,3,25.82,7.79,33.65,2,42.37-5.47,8.2-17.74,13.25-25.57,9.69-4.82-2.19-7-7.23-8.17-10.4-10.5-29.23,13-61.33.91-82.63-11.36-20-51.86-26.52-71.86-11.42-6.24,4.71-9.28,10.78-11.37,14.9-9.58,18.81-5,38.59-2.26,50.54a109.66,109.66,0,0,0,7.74,22.22c4,7.53,4.46,16.18.31,22.23-6.89,10.06-22.58,7.14-25.94,6.51-4.17-.77-11.23-2.09-15.25-7.44-6.74-9,.12-22.55,4.65-38.89,3.42-12.36,6.61-30.28,5-53.71a22.2,22.2,0,0,0-2.48-10.8c-9.23-17.24-43.82-19.59-51.41-8.34-2.07,3.07-1.1,9.91.93,23.46,1.34,9,2.88,16.31,4,21.3.37.93,3.24,8.7-1.24,15.74a15.69,15.69,0,0,1-9.5,7c-.4.09-7.34,1.6-11.56-2-4.47-3.86-2.42-10.53-.93-34.57.81-13,.69-18.57-2.78-24.08a25.27,25.27,0,0,0-9.61-8.64c-14.59-7.82-30.34-8.81-40.57-1.85-1.72,1.17-7.91,5.37-10.53,13a25.18,25.18,0,0,0-.62,13.27c3.65,19,14,72.88-3.82,86.76-6.08,4.73-17.77,6.63-25,1.52-23-16.27,23.27-86.8-4.08-114.72-12.15-12.4-37.51-15.07-47.71-5.27-4.31,4.14-6.89,10.85-6.36,21.1,2.08,40.3,26.63,72,12.19,87.79S796.74,304.67,812.63,252c12.79-42.41,19.46-76.81,8.18-83.32-2.83-1.63-6.49-.81-11.46.45-.84.21-15.33,4.08-18.42,14.61-1.95,6.63,2.78,8.55,2.79,18.83,0,.8-.17,17.78-9,21-4.79,1.74-11.77-.71-15.43-5.5-7.81-10.22,5.07-23.92-2.53-35.86-4-6.35-12.5-10.06-19.2-8.65-12.49,2.63-15.9,22.39-16.28,24.58-1.39,8.07.15,12.76,4.79,31.52,8.51,34.41,8.38,39.12,7.4,43.82-2.38,11.45-10.45,26.2-21.92,27.28-7.49.7-13.35-4.7-13.95-5.27-8.68-8.23-7.36-22.59-5.89-34.88,6.53-54.42,17.62-80.67,6.2-90.75-3.51-3.1-8.13-3.76-9.91-4-10.92-1.56-22.18,5.5-27.53,14.31-3.78,6.23-3.82,12.06-3.76,23,.14,21.37,6.48,29.13,1.24,36.42-3.75,5.23-12.57,9-17.34,6.17-13-7.62,14.61-57.41-4.08-73.77-5.47-4.8-15.86-7.54-25-4.94a27.52,27.52,0,0,0-12.39,7.72,49.66,49.66,0,0,0-3.09,7.1c-6.89,19.94,4.09,30.28,1.55,50.93-1.77,14.32-9.69,30.86-19.64,32-3.52.4-6.48-1.33-7.82-2.11-3.13-1.81-9.53-6.92-11.3-25-2.56-26.09,9.27-30.68,5-46.21-5.29-19.19-27.9-28.64-37.78-30.87a32.13,32.13,0,0,0-16.21,0c-2.48.69-7,2-10.47,5.66-1,1-5.17,5.8-4.76,19.08.39,12.5,4.3,14.37,6.41,28.68,1.48,10.08,2.52,17.13-1.71,23.54-3.65,5.53-10.85,10-18.14,9.25-6.8-.73-11.24-5.78-12.27-6.95-16.2-18.45,16.1-57,1.59-77.92-11.23-16.17-46.83-17-59.18-3.43-2.53,2.78-4.11,6.7-4.37,12.07-1.44,30.22,18.78,34.54,14.45,72s-21.67,64.77-39,37.42S414,141.8,367.81,157.63s-27.44,24.47-24.55,41.74,16.48,63.33-6.2,63.33c-18.08,0-.84-86.85-26.93-98.16-5.8-2.52-12.28-.87-17.26,1.22-7.53,1.83-17.75,5.65-22.5,14.52-6.23,11.61-1.37,24,5,40.68,23.11,60.45-27.44,105.07-33.21,43.18-4-42.57,22.26-73.58,8.23-89.15-3.18-3.52-8-5.51-10-6.35-1.24-.52-17.56-7.07-28,1-5.85,4.56-7.18,11.68-7.85,15.3-3.5,18.77,9.72,30.73,4.83,45.8a15,15,0,0,1-4.83,7.45c-3.48,2.76-9.42,4.52-12.93,2.84-11.78-5.63,6-49.25-10.33-61.4a25.28,25.28,0,0,0-12.79-4.45,23.68,23.68,0,0,0-13.22,3.71,24.82,24.82,0,0,0-5.78,3.74c-10.85,9.44-10.09,25.82-9.94,28.22.93,15.44,9.93,18,12.83,39.24.86,6.29.64,10.26-1.28,14-4.08,7.95-13.55,10.21-18.16,11.57-15.8,4.65-29.5-2.94-29.5-2.94s-21.66-14.39-10.11-53.25S66,167.71,51.53,185c-15,17.9,29.23,66,11.55,89.23-4.36,5.73-11.06,8-15.72,9.05-17.27,3.27-32.29,0-37.17-8.85-1.88-3.42-1.95-7.11-2-10.27-.13-12.83,6.47-22.22,9.63-26.16,12.24-21.73,9-44.84-3.85-54.44C6.05,177.6-3.91,178-9,178.72A34,34,0,0,0-18.51,182c-13.19,6.93-22.7,23.36-22.39,39,.41,20.74,17.94,27.93,14.75,49.13-.55,3.61-1.26,7.92-4.64,11.32-11.52,11.59-44.48,3.09-50.7-13-1.87-4.81-.53-8.25,4.54-23.66,15.06-45.76,16.67-56.05,11.62-62.3-3.19-3.94-7.76-5.65-14.56-6.14-17.39-1.23-28.63,2.58-35.69,9.4-10.41,10-13,26.4-10.53,38.1,1.37,6.34,4.48,12.27,1.87,14.76-2.15,2.05-6.94.58-10.73-1a21,21,0,0,1-3.51-6c-4.09-10.65,3.4-17.92,2.27-33.75-.19-2.58-.87-12.11-5-13.26-2.14-.6-4.4,1.25-5.08,1.82-10.2,8.37,6,42.18-2.9,79.76-1.2,5.06-6.11,25.84-16.54,27.3-4.5.63-8.38-2.61-9.45-3.44-13-10.07,15.89-115.13-11.55-95-11.47,8.43-19.41,9-24.77,6.93-4.38-1.74-3.17-6.33-9.89-11.24a26.29,26.29,0,0,0-7.51-3.79c-2-.45-14.88-3.09-21.34,4-5.38,5.94-3.27,15.31-1.48,22.77,6.31,26.29,23.92,31.55,24.47,52.83.25,9.51-3.11,14.66-4.25,16.26-5.72,8-15.18,9.55-18.15,9.89-10.68,1.22-23.73-3.71-27.15-13.19a15.57,15.57,0,0,1-.83-6.58c.51-2.05,2-7.76,2.48-9.88,14.22-56.64,18.58-73,11-79-2.27-1.79-4.9-2.11-8.29-2.52-7.27-.88-17.2,1.22-22.36,8.26-3.11,4.22-3.22,8.69-3.46,17.62-.25,9.69-.17,15.34,1.8,22.19s1.48,10.14.65,12.24a11.56,11.56,0,0,1-1.44,2.59c-3.58,4.84-11.52,7.09-15.66,4.8-5.29-2.93-4.6-13.43-4.44-16.56,1-19.74.4-110.76-.95-237.6Z"/><path class="cls-3" d="M2010.85-4.86c0,17.53.06,60.21,0,77.06.07,12.85-.15,25.69-.07,38.53-.09,4.28.6,8.59,0,12.84-1.35,8.9-9.44,14-14.43,20.79-5.4,6.76-8.45,14.85-11.1,23a94.47,94.47,0,0,0-5.57,25,107.72,107.72,0,0,0,.29,12.83c1,12.8,1.86,25.63,3.79,38.33a74.45,74.45,0,0,1,.91,19.21,24.38,24.38,0,0,1-1.16,6.32,21.24,21.24,0,0,1-8,9.9c-16.4,10.69-21.21-6.08-23.59-19-3.48-16.92-1.71-34.29,2.13-51,1.74-8.3,3.31-17,1-25.35s-7.56-15.47-14-21a62.83,62.83,0,0,0-35-14.44c-4.09-.21-8.81.12-12.08,2.86s-4.37,7.3-4.46,11.46a38.83,38.83,0,0,0,2,12.55,113.81,113.81,0,0,1,8.19,37.52c0,12,1.32,31.73-9.67,39.19-5.29,3.63-13,4.2-18.43.54-8-6-9.28-17-10-26.33a70.81,70.81,0,0,1,2.88-25.47c2.27-8.19,5.88-16.23,5.71-24.84-.33-9.32-5.5-19.4-14.52-22.85-10.55-4.05-24.45-.55-32.53,7.23-6.24,6.19-6.64,15.56-7,23.84,0,33.74,5.94,68.68,9.32,102.24.52,8.31,1.44,18.08-4.22,24.93-8.27,9.32-27,10-35,0-5.57-6.95-6-16.16-6.54-24.62-.93-17.14.56-34.31,2.69-51.3,2.11-21.64,10.81-57-3.75-74.75-12.82-15.43-40.23-21.31-58.39-12.69-7.92,3.63-12.54,11.4-15.38,19.3-4.43,12.23-1.92,25.39,1,37.71,4.11,16.54,8.57,33.68,5.68,50.85-1.63,9.46-5.24,23.67-15.57,26.93-4.88,1.26-9.87-.26-14.35-2.16-12.07-5.69-5.85-42.59-4.66-54.41,2.13-17,5.09-33.88,6.33-50.94a82.25,82.25,0,0,0,.05-12.75c-.29-4.16-1.46-8.39-5.2-10.71-9.37-6.51-23.55-5.22-32.83.89a18,18,0,0,0-5.71,6.28c-4.68,10.51,3.16,21.05,4.66,31.52,1.81,10.58-8.08,15.53-17.36,14.48-21.51-2.91-4.93-30.95-13.26-45.16-4.18-7.73-13.34-10.13-21.61-10.1l.14,0a64.84,64.84,0,0,0-12.82,4.59c-6,3-11.61,7.45-14.43,13.65-2.59,6.32-1.92,13.42-1.81,20.14.63,13.72,2.19,27.42,3.74,41.07.82,8.39,4.13,21.13-5.6,25.53a18.35,18.35,0,0,1-17-1.4,10.34,10.34,0,0,1-2.6-2.51c-3.11-4.08-1-9.42.22-13.74a87.54,87.54,0,0,0,3.13-47.16c-2.16-9.94-7.93-24.32-20.38-22.43a24.85,24.85,0,0,0-16.47,10.6c-7.32,11.43-7.68,26.45-5.8,39.55.74,4.48,2.07,8.87,3.19,13.33a148.29,148.29,0,0,1,3.67,20.38c.87,6.74,1.89,14.85-3.37,20.13a19.35,19.35,0,0,1-19.81,4.44c-7.19-2.69-9-10.95-9.74-17.72-1.15-13.92,5.37-27,5.39-40.86.41-15.84-7.12-38.62-22.43-45.63-4.44-1.78-9.39-1.64-14.08-1a34.45,34.45,0,0,0-12.44,5c-16.23,10.06-18.51,31.14-17.89,48.61.14,9.22,3,18,4.44,27.05a78.19,78.19,0,0,1,.73,13.84c-.28,9-1,19.79-8.88,25.63-6.77,5.19-19.66,9.52-25.87,1.34-12.79-19.34,15.58-87.23-3.71-103.69a34.08,34.08,0,0,0-15.2-6.73,36.45,36.45,0,0,0-13.35,1.1c-22.47,5.76-24.27,40.32-21.25,58.44,3.9,9.66,6.25,21,2.17,31-3.8,9.59-15.23,9.2-22.14,3.27-5.22-4.35-5.66-11.87-4.83-18a218.33,218.33,0,0,0,2.67-24.79c.51-15.43.48-34.83-8.82-47.78-5.06-6.77-13.45-9-21.54-9.69-8.26-.73-16.62-.58-24.91-.64-15.26.24-35.59.19-44.77,14.55-3.95,7.24-2.78,16.09-2.28,24.06.78,8.27,1.69,16.57,2.86,24.79.88,6.19,2.12,12.31,3.07,18.5.6,4.19,1.09,8.65-.44,12.75-3.26,8.06-11.51,13.44-19.94,14.66-17.88,2.33-20.55-20.92-19.75-33.9.79-12.61,4.59-24.61,6.38-37,.85-6.09,1.18-12.33-.55-18.25-6.63-21.38-38.29-27.66-57.7-23.17-7.92,1.82-15.59,5.64-20.65,12.13a57.52,57.52,0,0,0-9.42,19.22c-3.5,13-1.55,26.78,1.58,39.75a107.37,107.37,0,0,0,8.28,23.34,26.49,26.49,0,0,1,2.73,12.49c-.9,15.9-16.31,19.08-29.43,16.44-12.27-1.78-20.87-7.94-18.91-21.32.83-6.27,3-12.26,4.85-18.24a157,157,0,0,0,7.3-61.34,20.44,20.44,0,0,0-4-13c-5.8-7.42-15.48-10.82-24.61-11.91-7-.89-21.94-.16-24.4,8.06a26,26,0,0,0-.09,6.9,316.94,316.94,0,0,0,5.9,35.32c3.6,9.16-.6,21-11.21,23.71-4.54,1-10.07.65-13.39-3.05a8.55,8.55,0,0,1-1.7-3.52c-.79-3.88-.34-7.67-.11-11.53l.9-11.27c.28-3.75.54-7.51.74-11.26.22-5.54.71-11.21-1-16.5-4-11.85-20.28-17.39-31.66-18.5a34.92,34.92,0,0,0-10.94.8c-10.5,2.59-19.76,12.11-19.57,23.31-.1,3.19,1.06,7.82,1.62,11a328.72,328.72,0,0,1,4.73,33.66c.81,11.3,1.17,22.9-1.56,34-1.43,5.53-4,11.32-8.74,14.84a25.44,25.44,0,0,1-16.69,4.35c-14.73-1.34-17.06-14.39-15.66-26.68,2.13-18.76,8.55-36.76,10.59-55.5.8-7.41,1-15-.77-22.16-3.4-15.36-18.27-23.35-33-24.42-11.22-.83-23,2.59-25.86,14.72-1.85,7.19-.8,14.82.13,22.1,1.65,11.15,4.79,22,8.22,32.72,3.42,12,11.38,30,4.94,41.74-7.51,12.24-36.94,26.08-48.07,12.52-7.8-10.64-1.92-27.56,1.41-39,3.9-14.31,19.82-65.73,7.14-75.33-2.92-2.09-6.88-.79-10.19-.07-6.12,1.54-12.25,4.49-16.31,9.44-5.47,7.38-1.88,10.37-.21,17.9a38.46,38.46,0,0,1-1.22,17.21c-1.17,3.74-3,7.65-6.72,9.61-5.62,2.74-12.41.16-16.54-4-7.63-7.64-1.65-18.76-1.33-27.77.61-7.39-4.49-14-11.25-16.57-7.32-3-14.31-.79-18.57,5.83a45.33,45.33,0,0,0-6.73,20.81c-.24,7.39,2.26,14.73,3.89,21.92,1.83,7.31,3.63,14.64,5.31,22s3.47,14.75,3.88,22.43a26.25,26.25,0,0,1-1.34,8.62,48.2,48.2,0,0,1-5.93,13.07c-3.64,5.62-9.24,11-16.27,11.49-6.48.38-12.88-3.09-16.65-8.19s-4.85-11.79-4.94-18a93.74,93.74,0,0,1,.65-11.39c1.67-15,4-29.92,6.69-44.78,1.3-7.43,2.68-14.84,3.75-22.26.85-7.18,2.18-15-.32-21.9s-11.15-9.2-18-8.49c-10.64,1.33-20.87,9.44-23.76,19.93a47,47,0,0,0-1.07,11,125.13,125.13,0,0,0,2.45,27.91c.72,4.27,1.66,9-.45,13.08a18.87,18.87,0,0,1-13.2,8.91c-15.73,1.87-9.44-19.64-8-28.64,2.63-15.37,10.66-42.5-8.53-49.74a28,28,0,0,0-21.28,0c-3.21,1.21-7,4.43-8.66,6.11a44.28,44.28,0,0,0-5,15.62c-1.1,8.28,1.43,16.55,2.91,24.71a56.63,56.63,0,0,1-.93,25.47c-2.57,9-7.27,20.66-16.68,24.23-4.39,1.55-9.2-.4-12.66-3.15-6.79-5.78-8.65-15.18-9.67-23.52a61.3,61.3,0,0,1,2.17-25.4c1.55-5.28,3.94-10.47,3.64-16a27.67,27.67,0,0,0-2.48-9.79c-5.5-12-17.57-19.69-29.66-24.12-7.69-2.85-16.25-3.91-24.07-.95a18.78,18.78,0,0,0-6.87,4c-3.84,3.74-4.77,9.68-5.06,14.9a43.79,43.79,0,0,0,2.09,16.27c.86,2.64,1.84,5.32,2.57,8.08A75.08,75.08,0,0,1,512,214c.77,5.64,1.88,11.33.93,17.08-1.49,8.79-9.6,15.79-18.35,16.76s-16.86-5.31-19.9-13.12c-3-8.67-.68-17.95,1.55-26.49,2.81-10.74,7-21.43,7.11-32.58.5-18.9-19.25-25.8-35.23-25.56-10.21.23-23.46,3-28.4,12.69-2.25,4.83-1.94,10.63-1.55,16.08a53.6,53.6,0,0,0,4.12,16c2.11,5.14,4.73,10.15,6.72,15.49,6.26,16.12,4.09,34,.1,50.37-2.15,8.21-5,16.49-10,23.49-5.84,8.42-14.68,11.16-22.61,2.81a41.14,41.14,0,0,1-5.23-6.89c-4.26-7.62-4.45-16.66-4.67-25.1,0-11.32,1-22.55,1.9-33.75.83-15.16,6-49.74-4.46-60.94-5-5.13-12.83-3-18.78-.68a120.13,120.13,0,0,0-15.39,6.51c-3.62,1.92-7.19,4-9.73,7.25-5.63,7.14,1.86,15.51,3.43,22.95,2.92,15.23,7,30.34,7.33,45.95-.07,5.75-.42,11.84-3.89,16.76l-.74.87-.37.44-.44.37-.88.75a12.49,12.49,0,0,1-5.29,2.09c-1.58.13-3.2.35-4.68-.37-4.27-2.17-5.24-7.42-6.22-11.52-2.48-13.91-2.16-28.15-3.26-42.12-1.55-19-3.73-55-31.88-42.86A45.21,45.21,0,0,0,279,172.51c-15.19,10.14-10.89,26.81-5.21,41.44,1.66,4.57,4,10.28,5.25,14.88,4.27,15.25,4.9,31.9-.72,46.94A39.43,39.43,0,0,1,270,289.42c-3.76,3.92-9.69,6.93-15.14,4.61a15.1,15.1,0,0,1-6.33-5.32c-9.37-14.31-8.62-38.06-5.69-54.28,1.88-10.38,5-20.44,7.83-30.49,1.82-7.39,4.26-15.16,2.22-22.65-3.18-11.38-22.07-16.2-32.21-14.21a17.84,17.84,0,0,0-6.84,2.84c-4.2,2.8-6.59,7.61-7.69,12.48a41.68,41.68,0,0,0-1.13,9.5l.09,1.91.05.95.13,1,.24,1.91c1.53,10.28,7.74,20.2,5.5,31-1,5.43-4.35,10.63-9.63,12.64a14.79,14.79,0,0,1-8.19,1.27c-2.95-.34-5.26-3.22-5.86-6-1.88-7.87-.36-15.92,0-23.79a115.67,115.67,0,0,0,.33-15.56c-.41-5-1.21-10.28-4.32-14.3s-8.27-5.82-13.1-6.56a22.06,22.06,0,0,0-14.46,3.45c-13.91,6.46-17.63,24.87-13.89,38.6,1.77,5.78,5.31,10.86,7.57,16.52A60.55,60.55,0,0,1,152.71,246c.86,5.39,2,10.88.25,16.3-2.51,7.86-10.69,11.85-18.08,13.83a42.54,42.54,0,0,1-31.26-2.26l-.26-.14-.07,0,0,0a1.25,1.25,0,0,1-.65-.9l.41.77A26.73,26.73,0,0,1,98.24,269a38.38,38.38,0,0,1-6.76-12.57c-3.22-9.95-2.75-20.62-.59-30.69,1.58-5.9,3.85-13.76,3.71-19.78.16-9.89-4.85-19.91-13.84-24.46-8.58-4.64-20.29-4.2-27.38,2.87-7.57,7.39-3,19.26-.15,27.92,2.3,6.35,5,12.59,7.5,18.93,7.91,19.43,15.53,44.84-11.1,52.45C35,287,15.62,286.5,9,274.1a19.55,19.55,0,0,1-1.67-7.77c-.86-10.24,3.59-21.44,9.69-28.78,7-12.61,10.33-28.37,4.75-42.07a26.8,26.8,0,0,0-8.52-11.34c-7.79-5.56-18.69-6.25-27.59-3-14,5.34-23.32,19.61-25.38,34.11C-41,225.28-38.21,233.4-33.06,242c2.45,4.27,5.05,8.61,6.63,13.46A33.19,33.19,0,0,1-27.32,278c-3.28,7.39-12.34,9.79-19.76,9.68a47.43,47.43,0,0,1-14.85-2.57c-7.12-2.45-14.14-6.38-18.5-12.74A15.22,15.22,0,0,1-83.15,265a24.47,24.47,0,0,1,1.23-7.58c5.21-16.2,11-33.28,15.38-49.63a94,94,0,0,0,2.79-14.41c.53-4.75-.43-9.61-4.46-12.54-3.73-3-8.9-3.54-13.58-3.75a68,68,0,0,0-14.62.66A38,38,0,0,0-110,182.56c-6.2,3.75-10.69,10-13.25,16.69a44.15,44.15,0,0,0-.88,28.6c1,3.68,4.24,11.06-1.68,12.47-3.34.58-6.74-.86-9.67-2a21.57,21.57,0,0,1-4.83-10.23c-1.09-7.32,2.31-14.33,3-21.46.72-4.82.83-27.92-8.66-19.33a6.6,6.6,0,0,0-1.46,1.89c-1.51,3-1.62,6.7-1.52,10.09.13,3.54.51,7.1.91,10.66.83,7.12,1.73,14.28,2.15,21.49,1,14.41-.26,29.09-4.66,42.9a60.53,60.53,0,0,1-4.11,10.11c-2.19,3.95-5.1,8.31-9.83,9.67-4.25,1.17-8.81-1.06-11.86-3.94a13.24,13.24,0,0,1-2.62-6.63c-1.11-7.24-.58-14.47-.17-21.71,1-14.36,2.83-28.62,3.61-42.93.19-7,.79-14.37-1.09-21.13-.73-2.16-1.95-4.67-4.59-4.38s-4.54,2-6.69,3.53c-4.55,3.1-9.44,5.78-15,6.71a17.16,17.16,0,0,1-8.38-.64,7.08,7.08,0,0,1-2.62-1.47c-1.53-1.43-2.19-3.22-3.1-4.67-2.63-4.54-7.29-7.47-12.21-9.08-6.47-1.31-15.54-1.65-20.58,3.93-4.82,5.81-3,14.29-1.37,21.17,2.4,11.22,8.47,20.94,15.32,30a64.83,64.83,0,0,1,6.07,9.84c4,8.79,4.72,19.57.28,28.35a23.79,23.79,0,0,1-13.41,11,31.79,31.79,0,0,1-22.89-.87,21.83,21.83,0,0,1-11-9.47,16.12,16.12,0,0,1-1.64-8.87c5.12-22,12.6-47,16.27-69.06,1.3-9.21,3.05-20.44-9.28-21.2a28.1,28.1,0,0,0-13.65,1.28,18.24,18.24,0,0,0-10.32,8.41c-2,4.13-1.94,9-2.1,13.59-.12,4.73-.29,9.46,0,14.13s1.7,9.13,2.69,13.85c1.95,8.34-2.85,14.83-10.87,16.77a11.18,11.18,0,0,1-7.46-.48c-2.36-1.21-3.66-3.7-4.32-6.13a35,35,0,0,1-.74-10.83c1.13-37.32.25-86.51.17-124.28L-319.06-4.86v-.7c-.21-.18,2329.83.83,2329.92.7Zm0,0c.09-.6-2332.1,2-2328.52,0,.21,38.14,1.46,133.75,1.46,170.52,0,21.32.23,42.65-.33,64-.26,8-1.8,22.49,10.55,19.46,4.22-1,8.53-4,9.71-8.33s-.67-9.11-1.66-13.58c-1.6-7-1.26-14.32-1.09-21.42.19-7.56.33-14.89,7-19.9,6.89-5.3,16.14-6.2,24.38-4.23,9.93,2.51,8.17,14.59,7,22.32-2.32,14.06-6,27.83-9.36,41.65,0-.12-7,28.07-6.89,27.44-.61,5.54,2.4,10.87,6.92,13.92,10.45,7.38,26.65,7.05,35.84-2.28,7.8-8.23,7.31-21.51,2.91-31.32-3.24-6.75-8.38-12.49-12.5-19a65.68,65.68,0,0,1-9-21.16c-2.28-9.26-4.15-21.43,6.61-26.16,5.47-2.36,11.67-2.06,17.36-.92,5.22,1.68,10.42,4.94,13.21,9.83,1,1.59,1.65,3.26,2.79,4.29a9.08,9.08,0,0,0,4.51,1.74c5.26.78,10.29-1.2,14.89-3.68,3.31-1.7,5.77-4.06,9.15-5.79,9.63-4.44,10.46,9.39,10.57,15.6.21,21.62-3.91,43-4.28,64.5,0,4.82-.24,13.33,3.2,16.72,2.67,2.22,6.28,4,9.78,3.09,4.14-1.26,6.71-5.07,8.77-8.83,7.87-16,9.61-34.46,8.56-52.11-.53-10.76-2.55-21.4-3.06-32.2-.1-4.13,0-8.69,2.53-12.21,1.74-2.2,5.19-4.52,8.08-2.92,3.64,2.63,4,7.64,4.53,11.7a49.42,49.42,0,0,1-.08,10.94c-1,8.63-5.63,17.48-1.49,25.87a21.07,21.07,0,0,0,2.78,4.34l-.33-.24c2.91,1.22,11,4.42,10.54-1.43-.48-4.72-3-9.5-3.36-14.38a46.77,46.77,0,0,1,2.57-22.33c3.51-9.55,11-17.65,20.85-20.77a62.64,62.64,0,0,1,29.86-1.58c4.36,1,8.77,3.58,10.84,7.71,1.62,2.92,1.49,6.42,1.33,9.53a94.08,94.08,0,0,1-2.85,14.72c-3.76,14-8.61,28.81-13.17,42.61-1.43,4.55-3.36,9.34-3.37,14.06.46,4.66,3.69,8.75,7.29,11.67a45.1,45.1,0,0,0,27,9.29c5.77,0,12.32-1.23,16.28-5.76,4.66-5.68,5.08-17.23,2.68-24.09-3.31-9.91-11.09-18.15-13-28.74a39,39,0,0,1-.37-12.3c2.12-15.16,11.91-30,26.52-35.55a33.38,33.38,0,0,1,15-1.84,28.2,28.2,0,0,1,14.26,5.11,28.59,28.59,0,0,1,9.11,12.09c5.81,14.24,2.37,30.6-4.84,43.62-6.34,7.82-10.11,17.71-9.46,27.84a15.7,15.7,0,0,0,2.72,9.11c4.09,5.23,10.94,7.27,17.37,7.95a60.32,60.32,0,0,0,19.91-1.44c25.47-7.08,17.13-32,9.9-50-2.5-6.3-5.2-12.55-7.52-19C48.28,203.56,44,191,52.1,183c7.67-7.66,20.29-8.19,29.51-3.2,9.62,4.84,15,15.55,14.81,26.07.21,6.26-2.21,14.13-3.74,20.17-2.1,9.74-2.57,20.18.54,29.73a35.67,35.67,0,0,0,7.25,12.9A22,22,0,0,0,104,272l.41.76a.68.68,0,0,0-.34-.72h0l.07,0,.24.12a42.11,42.11,0,0,0,16.71,4.05,39.58,39.58,0,0,0,13.22-1.9c4.22-1.22,8.6-2.82,11.95-5.66,6.39-5.09,6.31-12.75,5-20.13a56,56,0,0,0-3.54-13c-2.25-5.67-5.86-10.75-7.64-16.69a37.31,37.31,0,0,1-1.44-9.25c-.19-9.28,2.14-19.13,8.65-26a26,26,0,0,1,7.56-5.45,23.73,23.73,0,0,1,15.61-3.66,25.39,25.39,0,0,1,11.31,4.35c9.72,7.49,7.91,23.13,7.38,34-.42,7.69-1.78,15.62-.07,23.14,1.41,5.84,6.92,5.44,11.52,3.5,7.42-2.87,9.67-11.6,8.79-18.82-.59-5.06-2.46-10-3.92-15a52.12,52.12,0,0,1-2.28-11.74,40.48,40.48,0,0,1,1.08-12c3.56-16.2,17.5-19.78,31.95-15.72,11.64,3.25,20.21,9.62,19.21,22.6a77.44,77.44,0,0,1-3,15.59c-2.82,10.11-5.94,20.08-7.79,30.33-2.88,15.92-3.59,38.93,5.37,52.83,10.17,13.62,22.79-1.7,26.48-12.51,5.45-14.54,4.84-30.9.66-45.74-1.36-4.77-3.45-10.14-5.2-14.73-6-15.42-10.27-32.76,5.93-43.71,4.12-2.92,10.36-5,14.61-6,12.94-5.59,23.39-2.07,28.59,11.14a74,74,0,0,1,4.21,16.52c2.54,16.7,2.21,33.74,3.81,50.46.67,5.17,1.39,15.74,6.29,18.38,1.12.55,2.41.29,3.62.22,9-1.3,9.9-12,9.94-19.34-.34-15.36-4.4-30.43-7.27-45.47-1.39-5.48-4.64-10.33-5.5-16-1.87-12.77,19.1-19.35,28.41-23,6.46-2.59,15.32-4.6,20.82,1.13,6.76,7.43,6.75,19.3,7,28.76-.07,22.53-3.86,44.84-3.84,67.3.17,8.18.39,16.87,4.38,24.11a39.9,39.9,0,0,0,5,6.51c15.72,15.52,26.3-13.2,29.24-25.4,3.9-16,6.06-33.51,0-49.18-4.05-10.39-10.2-20.49-11-32-.59-7.08-.77-15.13,4.16-20.86,10.55-11.23,30.73-12,44.69-7.68,21.53,6.94,23,22.73,17.7,42-2.1,8.19-4.89,16.1-6.5,24.36-1,5.33-1.59,11,0,16.2,2.36,7.48,10.14,13.66,18.15,12.8a20.07,20.07,0,0,0,13.46-7.9c5.29-6.79,3.26-15.8,2.21-23.68a69.9,69.9,0,0,0-1.67-8.14c-1.45-5.4-3.89-10.7-4.44-16.38-.69-7.11-.6-14.67,2.68-21.21,3.62-6.67,11.65-9.15,18.75-9.85,8.66-.57,17.11,2.39,24.77,6.14,9.49,4.75,18.51,11.92,22.93,21.81a26.36,26.36,0,0,1,1.48,19.13c-1.63,5.41-3.61,10.56-4.45,16.12a65.92,65.92,0,0,0-.2,16.55c1,8,2.68,16.79,9,22.22,13.64,11.05,23.38-8.86,26.25-20.07a54.81,54.81,0,0,0,.89-24.63c-1.52-8.33-4.06-16.64-2.92-25.27a43.73,43.73,0,0,1,.94-5.31,48.15,48.15,0,0,1,4.43-11.2c8-9,21.24-11.29,32.22-6.76,8,3,12.37,9.78,13.26,18,1.28,11.42-1.49,22.8-3.57,33.89-.92,6.16-5.39,22.19,1,25.77,5.54,2.56,13.94-2.21,16.69-7.28,1.86-3.66.9-7.94.27-11.87a127.32,127.32,0,0,1-2.48-28.27c-.1-7.87,1.12-15.63,6.62-21.71,6.24-7.35,16-12.33,25.79-11,3.86.52,7.87,1.8,10.74,4.61,7.07,7.08,4.75,19,3.76,27.86-1.07,7.5-2.46,14.91-3.76,22.33-2.64,14.81-5,29.69-6.67,44.65-1,10.53-2,23.32,6.63,31,16.63,13.48,30.17-6,33.53-21.41,1.35-5.45,0-10.94-.92-16.41-2.18-11.07-4.92-22-7.64-33-1.69-7.41-4.19-14.7-3.94-22.46a48.32,48.32,0,0,1,2.2-11.3c3.58-12,12-22.47,25.65-17,7.45,2.84,13.07,10.2,12.42,18.37-.5,10.92-7.82,23,5.1,29.52,13.52,6.38,17.22-8.35,17.51-18.82a28,28,0,0,0-2-10.7,14.59,14.59,0,0,1-1.19-5.85,16.07,16.07,0,0,1,5.33-10.44A34.44,34.44,0,0,1,810.21,168c6.55-1.8,12.33-2.1,15.37,5.18,5,13.28-1,36.86-4.19,50.67-1.81,7.33-3.82,14.61-5.93,21.86-3,10.49-7.15,21.76-4.13,32.63,2.22,7.75,9.51,10.35,17,9.49A48.12,48.12,0,0,0,857.25,273c4.84-5.8,4.12-13.89,2.68-20.87-4.26-18.28-12-35.87-14.52-54.62-1-7.56-2-15.31-.08-22.83,3.17-13,15.62-17,27.73-16,11.33.92,23.28,5.55,30,15.2,10.55,16.06,5.05,38.22,1.46,55.71-2.46,13.27-12.79,43.63-2.19,53.78,6.86,6.43,19.32,5,26.16-.78,14.14-13.08,8.4-51.1,5.79-68.8q-.9-5.58-1.94-11.12c-.57-3.37-1.74-7.92-1.64-11.33-.21-9.46,6.07-17.94,14.12-22.38a32.79,32.79,0,0,1,18.29-3.47c12.24,1.21,28.93,7.08,33.18,19.69,1.79,5.54,1.29,11.49,1.07,17.15-.2,3.77-.47,7.54-.75,11.3l-.9,11.27c-.19,3.62-.68,7.47.07,11,1.18,5.61,8.3,6.36,13,5.29,9.24-2.32,13.39-12.94,10-21.51-2.21-9.39-3.76-18.95-5.1-28.49-.54-5.16-1.83-10.37-.48-15.57a10.55,10.55,0,0,1,4.52-5c10.3-5.91,25.12-4.21,35.6.33,6.67,2.93,13,8.2,15.08,15.47a24,24,0,0,1,1,7.29,158.76,158.76,0,0,1-7.39,62c-2.42,8.72-8.12,21-2.86,29.42,3.3,5.26,9.7,6.91,15.59,7.95a39.92,39.92,0,0,0,12.18.53c8.36-.84,15-6.52,15.24-15.37a24.68,24.68,0,0,0-2.56-11.68,107.32,107.32,0,0,1-4.88-11.6,144.61,144.61,0,0,1-6-24.4c-2-12.39-1.36-25.71,4.19-37.19,5.57-12.81,14.23-20.52,28.05-23.62,19.26-4.22,46.11.83,57.14,18.43,13,22.91-12.77,56.86.43,85.78,5.55,13.28,22.28,8.54,29.79-.39a17.69,17.69,0,0,0,3.07-5.08c1.38-3.81.94-8,.36-12-2.56-14.37-4.68-28.83-5.92-43.38-.52-8.28-1.68-17.36,2.49-25,9.62-15.07,30.21-15.09,46.13-15.33,8.36.07,16.7-.09,25,.66a45.51,45.51,0,0,1,12.4,2.66c8.21,3,13.46,10.92,15.88,19,3.7,12.08,4,24.92,3.45,37.42a220.3,220.3,0,0,1-2.7,24.91c-.53,4-.53,8.24.94,11.94,3.45,9.13,19.28,12.78,23.2,2,3.93-9.63,1.49-20.62-2.22-30-2.55-17.59-1.82-38.92,10.26-53.09,6.35-7.16,16.74-9.12,25.92-8.27a36.67,36.67,0,0,1,13.07,5,19,19,0,0,1,5.34,4.68c4.14,5.82,4.78,13.29,4.93,20.17a132.48,132.48,0,0,1-.69,13.81c-1.6,18.25-6.13,36.24-6,54.59.4,5.3.72,11.69,5.42,15,2.74,1.81,6.26,2,9.47,1.47a27.21,27.21,0,0,0,12.16-5.31,18.7,18.7,0,0,0,6.87-11.07,81.23,81.23,0,0,0,.79-27.12c-1.41-9-4.29-18-4.45-27.2-.64-17.83,1.89-39.53,18.54-49.78a33.59,33.59,0,0,1,19.94-5.53,22.23,22.23,0,0,1,7.78,1.51l.8.39,1.59.79c14.39,8.8,21.1,29.75,20.83,45.7.06,15.93-8.87,31.51-4.2,47.36a17.3,17.3,0,0,0,2.66,6.06c5.34,7.48,17.59,5.78,23.51-.18,3.21-3.21,4-7.89,3.66-12.31a152.72,152.72,0,0,0-4.26-27c-2.5-8.81-4.52-18-4.15-27.25s1.74-18.79,7-26.61a25.72,25.72,0,0,1,10.59-9c4.24-2,9.21-3.08,13.79-1.48,12.83,5.11,15.73,25.21,16.42,36.47a84.86,84.86,0,0,1-3,27.42c-1.11,4.4-3,8.73-3.62,13.18a8.6,8.6,0,0,0,.81,5.48,10.7,10.7,0,0,0,5.68,4.42c6,2.17,14.28,1.53,17.66-4.52,2.76-6.28.82-13.39.26-20-1.55-13.69-3.1-27.37-3.73-41.15-.09-6.86-.79-14.12,1.91-20.65,2.92-6.44,8.75-11.14,15-14.19a66.81,66.81,0,0,1,13.12-4.68,35.34,35.34,0,0,1,12.85,2.21c27,11.18-2.3,49.85,22.21,53.09a18.3,18.3,0,0,0,11.94-2.57,9.38,9.38,0,0,0,3.8-4.62,12.58,12.58,0,0,0,.43-6.08c-1.29-8.3-6-16-6.16-24.91-.09-17.47,26-23.24,38.88-16.47,2.83,1.59,5.87,3.53,7.08,6.76,2.23,6.19,1.59,12.9,1.32,19.31-.59,8.58-1.72,17.08-2.87,25.56-2.27,16.95-5.09,33.88-6,51-.12,7.53-1.21,24,6.54,27.88,4.29,1.82,9.09,3.3,13.7,2.12,6.12-1.85,9.61-8.11,11.74-13.83a64.51,64.51,0,0,0,3.16-12.33c2.84-17-1.54-34-5.63-50.49-2.92-12.38-5.42-25.84-.93-38.21,2.88-8.1,7.74-16.06,15.82-19.77,19.25-9,46.66-2.36,59.38,12.94,14.9,18.19,5.93,53.65,3.87,75.35-2.14,17-3.64,34.07-2.72,51.17.62,8.34.92,17.43,6.37,24.23,3.92,5,10.73,7,16.93,6.93s12.83-2.18,17.08-7c2.8-3.18,3.88-7.49,4.25-11.68.62-8.51-.55-17.07-1.49-25.54-1.91-15.31-4.49-36-5.86-51-.78-8.53-1.5-17.07-1.88-25.63s-.62-17.23,1.17-25.67a22.36,22.36,0,0,1,5.83-11.41,31.18,31.18,0,0,1,10.94-6.76c7.08-2.55,15.06-3.36,22.18-.57,9.25,3.54,14.43,13.8,14.82,23.32.18,8.7-3.49,16.77-5.75,25a70.58,70.58,0,0,0-2.88,25.3c.87,8.76,1.71,18.75,8.59,25,5.23,4.58,13.61,4.28,19.19.44,4.4-3,6.89-8.18,8-13.29,1.8-8.34,1.67-17,1.54-25.52a113.69,113.69,0,0,0-8.15-37.41,39.74,39.74,0,0,1-2.07-12.69c0-10.79,6.63-15.45,16.93-14.65a63.11,63.11,0,0,1,35.14,14.54c9.79,8.3,16.61,20.85,15,34-.74,8.55-3.16,16.83-4.48,25.29a107.28,107.28,0,0,0,.28,38.28c2.29,12.71,7.09,29.41,23.23,18.83a21,21,0,0,0,7.9-9.79c1.37-4.06,1.27-8.44,1.41-12.68a69.29,69.29,0,0,0-1.15-12.76c-1.37-8.46-2-17-2.78-25.53-.59-8.54-1.64-17.08-1.26-25.65a94.63,94.63,0,0,1,5.6-25c2.63-8.14,5.75-16.25,11.13-23,3.8-5.19,9.1-9.14,12.37-14.71,2.14-3.75,2.57-8.18,2.24-12.42-.21-6.42-.19-12.85-.13-19.27.39-29.47-.1-73,.11-102.75Z"/></svg>