<svg id="Layer_1" data-name="Layer 1" xmlns="http://www.w3.org/2000/svg" width="400.04" height="400.43" viewBox="0 0 400.04 400.43"><defs><style>.cls-1{fill:#020202;opacity:0.32;}.cls-2{fill:#6d4c16;stroke:#020202;stroke-miterlimit:10;}.cls-3{fill:#e8bf89;}.cls-4{fill:#967753;}.cls-11,.cls-4{opacity:0.34;}.cls-5{opacity:0.23;}.cls-6,.cls-7{fill:#060707;}.cls-10,.cls-7{opacity:0.51;}.cls-8{fill:#f9af1d;}.cls-9{fill:none;}.cls-10{fill:#c68d25;}.cls-11{fill:#090a0a;}.cls-12{fill:#a38953;}.cls-13{fill:#3e331d;}.cls-14{fill:#635131;opacity:0.38;}.cls-15{opacity:0.1;}.cls-16{fill:#3d2b15;}</style></defs><path class="cls-1" d="M107.22,276.61c5.76-2.74,45.59-24.8,102.46-56.53a14.9,14.9,0,0,1,.64-10.24c3-6.42,10.67-8.77,15.89-8.48,7.85.44,13.11,7,17.78,13.07,19.31,25.12,28.16,40.65,28.16,40.65,11.22,19.72,17.62,31.89,24.14,47.39,8,19.07,9.72,27.69,5.46,33.69-2.44,3.43-8,7.66-14.6,7.2a16.06,16.06,0,0,1-9.42-4.12c-56.15,32.38-95.6,55.32-99.8,58.36a7.81,7.81,0,0,1-5.37,1.64c-4.76-.63-7.48-8-7.61-7.91s1.74,3,1.63,3.12c-.6.44-47.9-80.74-58.13-101.32-2-4-5.72-12.05-2.63-15.5A4.24,4.24,0,0,1,107.22,276.61Z"/><path class="cls-2" d="M109.31,281.57A13,13,0,0,1,109,275a13.15,13.15,0,0,1,2.74-5,17.34,17.34,0,0,1,2.91-2.61l.25-.18c3.08-2.12,10.28-5.71,10.28-5.71,6.24-3.1,7.92-4.36,14.31-7.17h0c1.22-.53-.25.09,17.78-9.73,14.58-7.94,24.34-13.14,30.65-16.8.67-.39,2.12-1.24,4.15-2.33,1.44-.79,4.55-2.47,8.23-4.18,1.53-.71,3-1.51,4.55-2.2a15.39,15.39,0,0,0,1.53-.79,6.09,6.09,0,0,0,1.79-1.31c.61-.79.38-1.54.52-3.07a12.57,12.57,0,0,1,.79-3.42,32,32,0,0,1,4.61-7,22,22,0,0,1,4.74-4.4c4.67-3,9.91-2.41,11.64-2.23,9.06,1,15.77,10.36,20.49,17.13,7.56,10.83,16.35,24,25.8,39.47,4.77,9.13,8.68,17,11.67,23.11.82,1.67,4,8.82,10.29,23.13a57.6,57.6,0,0,1,4.41,14.13c.57,3.39.86,5.08.7,7.07-.66,8.13-7.82,18.1-17.83,19a19,19,0,0,1-12.13-3.42c-12.36,6.87-21.73,12.18-28.12,15.82-3.41,1.95-5.7,3.26-9.84,5.59-10.76,6.06-11.92,6.55-19,10.63-7.33,4.2-7,4.22-13.91,8.11-10.38,5.86-9,4.65-13,7.18-3.46,2.19-7.21,3.87-10.78,5.88-1.76,1-3.47,2-5.6,1.72-2.78-.34-4.62-2.61-5.51-3.75-6.61-8.43-13.42-21.44-15.39-25.11-2.68-5-1.88-3-7.38-12.82-4.66-8.29-6.4-11.79-10.38-19.12-3.32-6.11-6.32-11.45-12.46-22.05-3.93-6.8-7.08-14-10.89-20.9A23.36,23.36,0,0,1,109.31,281.57Z"/><path class="cls-3" d="M114.38,273.28c1.37-3.57,4.92-5.25,7.36-6.4,6.9-3.26,13.93-6.63,21.85-10.38,33.71-17.91,58.16-31,63.95-33.83a12.8,12.8,0,0,0,5.52-4.54c2-3.08.75-4.76,2.54-8.5a16.76,16.76,0,0,1,6.74-7,17.35,17.35,0,0,1,8.37-2.54c6.41,0,10.75,7.38,18.15,18.8,15.82,24.39,16.33,22.27,23.24,35.18,1.42,2.64.63,1.3,10.6,20.78,3.07,6,4.48,8.74,6.54,13.1a141.63,141.63,0,0,1,7.91,19.42c2,6.5,3,9.81,2.43,12.91a17.44,17.44,0,0,1-12.37,13.35c-7.37,1.91-13.31-2.11-14.22-2.75-50.46,28.61-87.54,49.17-93.79,52a9.13,9.13,0,0,1-5.33.81c-5-.92-7.87-6.89-8.78-8.78-7.44-15.4-17-29.67-25.41-44.59,0,0-16-28.55-24.49-48.18C114.54,280.57,113,276.87,114.38,273.28Z"/><path class="cls-4" d="M118.35,287.29c9-9.26,20.24-15.51,32.18-20.22,4.86-1.91,9.82-3.53,14.82-5,2.51-.75,5.05-1.38,7.49-2.31.08,0,1.58-.67.58-.21s.11,0,.34-.15l1.65-.75c1.25-.6,2.5-1.24,3.72-1.9,4.81-2.62,9.36-5.66,13.93-8.66,4.42-2.9,9-5.62,13.33-8.6,1.08-.73,2.15-1.48,3.19-2.25l.77-.58c.88-.64.12,0-.17.15a12.57,12.57,0,0,0,1.39-1.14,52.32,52.32,0,0,0,5.18-4.92q.74-.81,1.44-1.65l.63-.76.31-.42c.19-.28.39-.55.59-.83.39-.57.78-1.15,1.15-1.74,1.18-1.86,2.16-3.85,3.4-5.68a20.48,20.48,0,0,1,15.4-8.9,17.11,17.11,0,0,1,3.92,0c-4.54-6.69-8.15-10.7-12.88-10.74a17.35,17.35,0,0,0-8.37,2.54,16.76,16.76,0,0,0-6.74,7c-1.79,3.74-.58,5.42-2.54,8.5a12.8,12.8,0,0,1-5.52,4.54c-5.79,2.87-30.24,15.92-63.95,33.83-7.92,3.75-15,7.12-21.85,10.38-2.44,1.15-6,2.83-7.36,6.4s.16,7.29.81,8.79c.82,1.88,1.7,3.84,2.63,5.85A8,8,0,0,1,118.35,287.29Z"/><path class="cls-4" d="M203.23,369.78l-.8.64,3-1.64Z"/><g class="cls-5"><path class="cls-6" d="M105.06,246.57a4.35,4.35,0,0,0,1.71,1.68,24.62,24.62,0,0,0,6.07,1.76s-2.46,2.46-1.85,5.51c.22,1.15,1.12,1.8,4.35,5.07a4.94,4.94,0,0,0,.54.47,5.22,5.22,0,0,0,.57.36c1,.56,5.31.31,6.83,2.2a1.46,1.46,0,0,1,.31.51c.56,2.05-6.29,4.83-.84,7.66,5.91,3.08,5.82.95,8.26,4.15s2.61,2.39,1.26,6.12,6,6.89,6.47,6.53,10.84,8.59,7.25,11.34,7.73,12.43,8.84,9.65,7.71,5.07,7.06,8.23,4.06,12.06,8.42,8.39-3.17,8.84,1.57,11.3,6.83-3.89,10.36-2.2-1.21,7.69-2.55,8.37,8,13.82,9.5,5.55-1.11,2.58,3.76,3,7.8-4.27,9-7.21,7.57-2,9.33-3.47,12.32-4.46,9.42-13.56.81,1.06.81,1.06,4.22,3.08,7.25-5.86c0,0,12.1-2.84,11.22-9,0,0,15-7.86,11-13.56,0,0,6.75,2.62,9.45-2.83,0,0,7.66-1,7.61-6.09,0,0,10.81-5,7.88-8s1.39-1.11,1.39-1.11,4.33,6,6.67.59,5.47-3.49,6.91-3.73,4.87,4.78,8.38,1,1.22,2.64,3.51-3.73,9.39,2.27,3.61-5.28-1.32-1.1-1.32-1.1,8.1,7.84,3.91-2.6c-2.31-5.76-.62-6.93-.88-8.85-.61-4.4-7-8.57-7.72-9-14.32-8.45-45-85.32-78.08-87.23-8.72-.51-9.07,4.69-37.56,26.19C147.28,217.07,102.77,242.17,105.06,246.57Z"/><line class="cls-6" x1="250.66" y1="240.05" x2="250.66" y2="240.05"/><path class="cls-7" d="M184.13,337.94c-.14.12.65-.77.76-.91q.33-.45.63-.93h0c-.36.54-.24,0-.1-.19a2.92,2.92,0,0,0-.21-.32l-.63-.73c-.19-.14-.58-.46-.72-.58a51.68,51.68,0,0,1-7.64,1.09c-2.47.05-4.86-2.9-4.43-5.3a18.83,18.83,0,0,0,0-5.3,12.5,12.5,0,0,1-2.79-.6,10,10,0,0,1-5.82-5.66c-.53-1.31-.94-2.66-1.54-3.94-.28-.61-.58-1.2-.89-1.79-.1-.2-.75-1.35-.46-.9a16.84,16.84,0,0,0-1.82-2.25c0,.05-.43-.33-.41-.31l-.63-.46-.44-.29-.24-.07c-2.3-.8-4.57-1.45-6.21-3.41s-2.35-4.62-2.9-7.06c-.23-1.07-.43-2.15-.67-3.22-.1-.43-.2-.87-.32-1.3,0,0-.28-.72-.33-.85s-.24-.52-.38-.77l-.06-.09-.43-.53a9.64,9.64,0,0,0-1-.71l-.76-.47-.39-.2-.58-.29-1.16-.59a23,23,0,0,1-3.11-1.82,11.31,11.31,0,0,1-4.21-6.19c-.55-2-.4-4-1.2-5.36a4.08,4.08,0,0,1-.54-.72,9.73,9.73,0,0,0-1.35-1c.7.47,0,0-.35-.14l-1.08-.46c-2.09-.95-4.11-2.17-5.08-4.37a8.8,8.8,0,0,1,.1-6.63l0,0,0,0h0l-.08-.08a10.47,10.47,0,0,0-1.31-1l-.51-.28-.4-.13c.74,0-.28-.07-.59-.13a14.58,14.58,0,0,1-4.15-1.27c-2.62-1.4-4.42-3.77-4.23-6.87,0-.71.27-1.4.33-2.11,0-.1,0-.2,0-.31s0-.08-.06-.22,0-.23-.07-.35a1.51,1.51,0,0,1-.08-.21.82.82,0,0,1-.05-.14,4.7,4.7,0,0,0-.35-.43c.39.45.15.22-.12,0-.07,0-.25-.1-.44-.17-.49.11-.78.09-.88-.06q-.51-.78,6.4-6.38a42,42,0,0,1-4.33.83c-1.46.2-2.17.22-3.79.53-2.2.41-3,.78-3.75,1.35-.55.44-1.29,1-1.28,1.66s1,2,7.78,3.44c0,0-2.46,2.46-1.85,5.51.22,1.15,1.12,1.8,4.35,5.07a4.94,4.94,0,0,0,.54.47,5.22,5.22,0,0,0,.57.36c1,.56,5.31.31,6.83,2.2a1.46,1.46,0,0,1,.31.51c.56,2.05-6.29,4.83-.84,7.66,5.91,3.08,5.82.95,8.26,4.15s2.61,2.39,1.26,6.12,6,6.89,6.47,6.53,10.84,8.59,7.25,11.34,7.73,12.43,8.84,9.65,7.71,5.07,7.06,8.23,4.06,12.06,8.42,8.39-3.17,8.84,1.57,11.3,6.83-3.89,10.36-2.2c1.4.67,1.49,2,1,3.47C183.55,338.5,183.84,338.22,184.13,337.94Z"/><path class="cls-7" d="M189.63,346.8a16.07,16.07,0,0,1-3.21,1.14c-3.52.83-5.82-2.38-5.55-5.38a5.22,5.22,0,0,1-1.15,1c-1.34.69,8,13.81,9.5,5.55C189.42,348,189.55,347.29,189.63,346.8Z"/><path class="cls-7" d="M220.66,328c-.37-1.17-.63-2-.81-2.62l-.25-.18a6.3,6.3,0,0,1-.55-.48,25.29,25.29,0,0,1-.87,3.09s-.09.28-.16.48-.17.9-.19,1a14.72,14.72,0,0,1-.79,3.22c-2,4.84-7.26,7.29-12,8.42a7.27,7.27,0,0,0-1.88.6l-.06,0c-.23.37-.48.74-.71,1.11a13.1,13.1,0,0,1-.92,1.29c.4-.48.32-.63,0,0a8.82,8.82,0,0,1-2.25,3.2c-2.95,2.34-6,1.26-8.08-1.05l-.22.12c-.36.21-.72.41-1.08.58.06,1.55.4,5.17,3.17,5.41,4.87.42,7.8-4.27,9-7.21s7.57-2,9.33-3.47S223.56,337.08,220.66,328Z"/><path class="cls-7" d="M306.44,271.59c2.11,1.69,5.51,3.7,2.48-3.85-.19-.48-.36-.93-.5-1.35-.87,1.5-2,2.82-3,4.27-.33.59-.4.7-.2.33l-.62,1.15a11.68,11.68,0,0,1-.82,1.36,10.77,10.77,0,0,1-2.84,2.67l-1,.64-.56.37a5.05,5.05,0,0,1-6,2.18,7.56,7.56,0,0,1-1.13-.49,4.77,4.77,0,0,1-2.05-1.36l-.39-.06-.49-.05-1.23-.07h-.73a4.5,4.5,0,0,1-.64.38l-.13.06-.14.19c-.35.52-.68,1.05-1.07,1.54a7.47,7.47,0,0,1-4.56,3,6.66,6.66,0,0,1-5.08-1.59l-.76-.6-.39-.21-.89-.4-.43-.17a5.12,5.12,0,0,1,0,.56c.05.27.08.55.11.83a4.56,4.56,0,0,1-.78,6.55,13.56,13.56,0,0,1-2.66,1.61l-1.14.53c-.11,0-.15.06-.16.05l-.22.18a5,5,0,0,1-2.53,1,6.81,6.81,0,0,1-1.11,2.52c-1.4,1.94-3.62,2.45-5.59,3.55a9.83,9.83,0,0,1-6.24,1.58s-.88-.15-1.61-.32a5.69,5.69,0,0,1-1.87,1.07,11.12,11.12,0,0,1,.34,1.6,8.63,8.63,0,0,1-2.54,7.52c-1.88,1.81-4.38,2.34-6.7,3.33l-.88.39c-.32.19-.34.36-.72,1,.43-.75-.19.43-.26.59-.31.64-.64,1.26-1,1.89-1.61,3-4,4.38-7.26,5.15-.19,0-2,.56-1,.19a4.3,4.3,0,0,1-.53.14l.12,0-.12.11a3.62,3.62,0,0,1-.22.33l-.24.66c-1.38,3.39-5,5.43-8.31,3.43.56,1.44,1.3,3.48,1.3,3.48s4.22,3.08,7.25-5.86c0,0,12.1-2.84,11.22-9,0,0,15-7.86,11-13.56,0,0,6.75,2.62,9.45-2.83,0,0,7.66-1,7.61-6.09,0,0,10.81-5,7.88-8s1.39-1.11,1.39-1.11,4.33,6,6.67.59,5.47-3.49,6.91-3.73,4.87,4.78,8.38,1,1.22,2.64,3.51-3.73S312,278.88,306.44,271.59Z"/></g><path class="cls-8" d="M106.23,240.35a4.35,4.35,0,0,0,1.71,1.68,25.07,25.07,0,0,0,6.07,1.76s-2.46,2.46-1.85,5.51c.22,1.15,1.12,1.8,4.35,5.07a4.94,4.94,0,0,0,.54.47,5.22,5.22,0,0,0,.57.36c1,.56,5.31.31,6.83,2.2a1.37,1.37,0,0,1,.31.51c.56,2-6.29,4.83-.84,7.66,5.91,3.08,5.81.95,8.26,4.14s2.61,2.4,1.26,6.13,6,6.89,6.47,6.53,10.84,8.59,7.25,11.34,7.73,12.43,8.84,9.65,7.71,5.07,7.06,8.23,4.06,12.06,8.42,8.39-3.17,8.84,1.57,11.3,6.83-3.89,10.36-2.2-1.21,7.69-2.55,8.37,8,13.81,9.5,5.55-1.11,2.58,3.76,3,7.8-4.27,9-7.21,7.57-2,9.33-3.47,12.32-4.46,9.42-13.56.81,1.06.81,1.06,4.22,3.08,7.25-5.86c0,0,12.1-2.84,11.22-9,0,0,15-7.86,11-13.56,0,0,6.75,2.62,9.45-2.83,0,0,7.66-1,7.61-6.09,0,0,10.81-5,7.88-8s1.39-1.11,1.39-1.11,4.33,6,6.67.59,5.47-3.49,6.91-3.73,4.87,4.78,8.38,1,1.22,2.64,3.51-3.73,9.39,2.27,3.61-5.28-1.32-1.1-1.32-1.1,8.1,7.84,3.91-2.6c-2.31-5.76-.62-6.93-.89-8.85-.6-4.4-7-8.57-7.71-9-14.32-8.45-45-85.32-78.08-87.23-8.72-.51-9.07,4.69-37.56,26.19C148.45,210.85,103.94,236,106.23,240.35Z"/><line class="cls-9" x1="251.83" y1="233.83" x2="251.83" y2="233.83"/><path class="cls-10" d="M185.3,331.72c-.14.12.65-.77.75-.91.23-.3.44-.61.64-.93h0c-.36.54-.24,0-.1-.2-.06-.09-.13-.21-.21-.31l-.64-.73-.71-.58a51.68,51.68,0,0,1-7.64,1.09c-2.47.05-4.86-2.9-4.43-5.3a18.83,18.83,0,0,0,0-5.3,12.5,12.5,0,0,1-2.79-.6,10,10,0,0,1-5.82-5.66c-.53-1.31-.94-2.66-1.54-3.94-.28-.61-.58-1.2-.89-1.79-.1-.2-.75-1.35-.46-.9a16.84,16.84,0,0,0-1.82-2.25s-.43-.33-.41-.31c-.22-.15-.42-.31-.63-.46l-.44-.29-.24-.07c-2.3-.8-4.57-1.45-6.21-3.41s-2.35-4.62-2.9-7.06c-.23-1.07-.43-2.15-.67-3.22-.1-.44-.2-.87-.32-1.3,0,0-.28-.72-.33-.85s-.24-.52-.38-.77l-.06-.09c-.14-.18-.28-.36-.43-.53a9.64,9.64,0,0,0-1-.71l-.76-.47-.39-.2-.58-.3-1.16-.58a22.39,22.39,0,0,1-3.11-1.82,11.31,11.31,0,0,1-4.21-6.19c-.55-2-.4-4-1.21-5.36a4.33,4.33,0,0,1-.53-.73,10.58,10.58,0,0,0-1.35-.95c.7.47,0,0-.35-.14s-.72-.3-1.08-.47c-2.1-.94-4.11-2.16-5.08-4.36a8.82,8.82,0,0,1,.1-6.64l0,0,0,0h0l-.08-.08a9.88,9.88,0,0,0-1.32-1l-.5-.29c-.12,0-.39-.13-.4-.12.74,0-.28-.07-.59-.13a14.58,14.58,0,0,1-4.15-1.27c-2.63-1.4-4.42-3.77-4.23-6.87,0-.71.27-1.4.33-2.11,0-.1,0-.2,0-.31a1.19,1.19,0,0,1-.06-.22c0-.11,0-.23-.07-.35a1.51,1.51,0,0,1-.08-.21,1.3,1.3,0,0,1,0-.14c-.1-.15-.24-.29-.35-.43.39.45.15.22-.12,0-.07,0-.25-.1-.44-.17-.49.11-.78.09-.88-.06q-.51-.78,6.4-6.38a42,42,0,0,1-4.33.83c-1.46.2-2.17.22-3.79.53-2.2.41-3,.78-3.75,1.35-.55.44-1.29,1-1.28,1.66s1,2,7.78,3.44c0,0-2.46,2.46-1.85,5.51.22,1.15,1.12,1.8,4.35,5.07a4.94,4.94,0,0,0,.54.47,5.22,5.22,0,0,0,.57.36c1,.56,5.31.31,6.83,2.2a1.37,1.37,0,0,1,.31.51c.56,2-6.29,4.83-.84,7.66,5.91,3.08,5.81.95,8.26,4.14s2.61,2.4,1.26,6.13,6,6.89,6.47,6.53,10.84,8.59,7.25,11.34,7.73,12.43,8.84,9.65,7.71,5.07,7.06,8.23,4.06,12.06,8.42,8.39-3.17,8.84,1.57,11.3,6.83-3.89,10.36-2.2c1.4.67,1.49,2,1,3.47C184.72,332.28,185,332,185.3,331.72Z"/><path class="cls-10" d="M190.8,340.58a16.07,16.07,0,0,1-3.21,1.14c-3.52.83-5.82-2.38-5.55-5.38a5.22,5.22,0,0,1-1.15,1c-1.35.69,8,13.81,9.5,5.55C190.59,341.82,190.72,341.07,190.8,340.58Z"/><path class="cls-10" d="M221.83,321.76c-.37-1.17-.63-2-.81-2.62l-.25-.18a5.11,5.11,0,0,1-.55-.48,25.29,25.29,0,0,1-.87,3.09l-.16.48c0,.25-.17.9-.19,1a14.72,14.72,0,0,1-.79,3.22c-2,4.84-7.26,7.29-12,8.42a7.14,7.14,0,0,0-1.88.6l-.06,0c-.23.38-.48.75-.71,1.12a13.1,13.1,0,0,1-.92,1.29c.4-.48.32-.63,0,0a8.82,8.82,0,0,1-2.25,3.2c-3,2.34-6,1.26-8.08-1.05L192,340c-.36.21-.72.41-1.08.58.06,1.55.39,5.17,3.17,5.41,4.86.42,7.8-4.27,9-7.21s7.57-2,9.33-3.47S224.73,330.86,221.83,321.76Z"/><path class="cls-10" d="M307.61,265.37c2.11,1.69,5.51,3.7,2.48-3.85-.19-.48-.36-.93-.5-1.35-.87,1.5-2,2.82-3,4.27-.33.59-.4.7-.2.33l-.62,1.15a11.68,11.68,0,0,1-.82,1.36,10.77,10.77,0,0,1-2.84,2.67l-1,.64-.56.37a5.05,5.05,0,0,1-6,2.18,7.56,7.56,0,0,1-1.13-.49,4.71,4.71,0,0,1-2.05-1.36l-.39-.06-.49-.05-1.23-.07h-.73a5.14,5.14,0,0,1-.64.38l-.13.06-.14.19c-.35.52-.68,1-1.07,1.54a7.47,7.47,0,0,1-4.56,3,6.66,6.66,0,0,1-5.08-1.59l-.76-.6-.39-.21-.89-.4-.43-.17a5.25,5.25,0,0,1,0,.56c.05.27.08.55.11.83a4.56,4.56,0,0,1-.78,6.55,13.56,13.56,0,0,1-2.66,1.61l-1.15.52c-.1,0-.14.07-.15.06l-.22.18a5,5,0,0,1-2.53,1,6.88,6.88,0,0,1-1.11,2.52c-1.4,1.94-3.62,2.45-5.59,3.55s-4,1.94-6.24,1.58c0,0-.88-.15-1.61-.32a5.69,5.69,0,0,1-1.87,1.07,10.84,10.84,0,0,1,.34,1.6,8.63,8.63,0,0,1-2.54,7.52c-1.88,1.8-4.38,2.34-6.7,3.32l-.88.4c-.32.19-.34.36-.72,1,.43-.75-.19.43-.26.59-.31.64-.64,1.26-1,1.89-1.61,3-4,4.38-7.26,5.15-.19,0-2,.56-1,.19a4.85,4.85,0,0,1-.53.14l.12,0-.12.11a3.62,3.62,0,0,1-.22.33l-.24.66c-1.38,3.39-5,5.43-8.31,3.43.56,1.44,1.3,3.48,1.3,3.48s4.22,3.08,7.25-5.86c0,0,12.1-2.84,11.22-9,0,0,15-7.86,11-13.56,0,0,6.75,2.62,9.45-2.83,0,0,7.66-1,7.61-6.09,0,0,10.81-5,7.88-8s1.39-1.11,1.39-1.11,4.33,6,6.67.59,5.47-3.49,6.91-3.73,4.87,4.78,8.38,1,1.22,2.64,3.51-3.73S313.19,272.66,307.61,265.37Z"/><path class="cls-11" d="M165.44,179.64l8.65-11.95a26.21,26.21,0,0,0-6.21-8.61c-8.29-7.56-18.85-7.1-21.33-6.93a17,17,0,0,1,3.81-8.61c5.25-6.1,13.5-6,15.41-6,1.39,0,4.65.74,11.12,2.2.61.14,7.65,1.73,9.51,2.2,4.73,1.22,23.59,7.48,31.15,23.34,6.35,13.33,2.6,29-.6,29.54-3,.51-5-12.15-15.53-16a18.67,18.67,0,0,0-8-1,21.09,21.09,0,0,0-7.21,9.62c-1,3-.77,4.88-2.3,5.81-3.09,1.87-9.05-2.82-10.73-4.14A29,29,0,0,1,165.44,179.64Z"/><path class="cls-12" d="M165.44,175.85q4.32-6,8.65-11.95a26.33,26.33,0,0,0-6.21-8.62c-8.29-7.55-18.85-7.09-21.33-6.92a16.91,16.91,0,0,1,3.81-8.61c5.25-6.11,13.5-6,15.41-6,1.39,0,4.65.75,11.12,2.21.61.13,7.65,1.72,9.51,2.2,4.73,1.21,23.59,7.47,31.15,23.33,6.35,13.34,2.6,29-.6,29.54-3,.52-5-12.14-15.53-16a18.65,18.65,0,0,0-8-1,21,21,0,0,0-7.21,9.61c-1,3-.77,4.89-2.3,5.81-3.09,1.88-9.05-2.82-10.73-4.14A29,29,0,0,1,165.44,175.85Z"/><path class="cls-13" d="M147,148.22a18.85,18.85,0,0,1,14-.4,47,47,0,0,1,5.71,3.5c3.36,2.39,5.24,3.77,6.42,6.27a11.53,11.53,0,0,1,1,6.31,25.2,25.2,0,0,0-10.42-11.65,31.38,31.38,0,0,0-16.67-4Z"/><path class="cls-13" d="M193.56,173.89a18.83,18.83,0,0,1,4.38.09,14.07,14.07,0,0,1,3.49.86c.36.15.65.28,1,.45a18.33,18.33,0,0,1,2.73,1.51,14,14,0,0,1,1.12.84,22,22,0,0,1,3.53,3.57c.64.8,1,1.42,1.76,2.51s1.09,1.69,1.5,2.45c0,0,1.08,2,1.55,2.75l.25.37c.15.22.32.46.54.74s.36.43.49.5a1.11,1.11,0,0,0,.34.14,19,19,0,0,0-11.73-18.33,11.36,11.36,0,0,0-4.12-1A10.72,10.72,0,0,0,193.56,173.89Z"/><path class="cls-14" d="M153.41,146.48c2.37-1.07,3.64-4.47,5.27-5.58a5.8,5.8,0,0,1,.58-.34,6.4,6.4,0,0,1,1.82-.54,25.11,25.11,0,0,1,5.19-.52c2.81,0,5.65.12,8.46.25a71.19,71.19,0,0,1,18.53,3.34c4,1.27,8,2.56,11.94,4.06a59.3,59.3,0,0,0-18.8-9c-1.86-.48-8.9-2.07-9.51-2.2-6.47-1.46-9.73-2.19-11.12-2.21-1.91,0-10.16-.11-15.41,6a16.91,16.91,0,0,0-3.81,8.61,14,14,0,0,1,2.12-.89,14.43,14.43,0,0,1,3-.62A4.25,4.25,0,0,0,153.41,146.48Z"/><path class="cls-14" d="M216.81,190.94c-.27-.05-.53-.1-.8-.17a1.21,1.21,0,0,0,.94.26h0Z"/><path class="cls-11" d="M248.77,198.32q2-7.11,3.94-14.21a26.28,26.28,0,0,0-8.82-5.91c-10.4-4.2-20.14-.09-22.41.93a17,17,0,0,1,.58-9.4c2.79-7.55,10.56-10.34,12.36-11,1.3-.47,4.62-.92,11.19-1.81.62-.08,7.77-1,9.69-1.24,4.85-.51,24.71-1.21,37.31,11,10.6,10.29,12.54,26.27,9.73,27.9-2.62,1.52-8.89-9.66-20.13-9.62a18.78,18.78,0,0,0-7.86,1.85,21,21,0,0,0-3.42,11.53c.08,3.18,1,4.84-.13,6.24-2.25,2.84-9.47.51-11.5-.14A28.82,28.82,0,0,1,248.77,198.32Z"/><path class="cls-12" d="M247.44,194.76q2-7.09,3.95-14.21a26.43,26.43,0,0,0-8.82-5.91c-10.4-4.2-20.14-.09-22.41.94a17,17,0,0,1,.58-9.41c2.79-7.54,10.56-10.33,12.36-11,1.3-.47,4.62-.92,11.19-1.8.62-.09,7.77-1,9.69-1.25,4.85-.51,24.7-1.21,37.31,11,10.6,10.29,12.54,26.27,9.72,27.91-2.61,1.51-8.88-9.66-20.12-9.62a18.63,18.63,0,0,0-7.86,1.85,20.92,20.92,0,0,0-3.42,11.52c.08,3.18,1,4.85-.13,6.25-2.25,2.83-9.47.5-11.5-.15A28.92,28.92,0,0,1,247.44,194.76Z"/><path class="cls-13" d="M205,163.93a18.82,18.82,0,0,1,13-5.25,46.75,46.75,0,0,1,6.57,1.28c4,1.08,6.23,1.72,8.2,3.65a11.53,11.53,0,0,1,3.09,5.58A25.28,25.28,0,0,0,222,161.9a31.33,31.33,0,0,0-17,2Z"/><path class="cls-13" d="M273.12,183.14a20.2,20.2,0,0,1,4.14-1.44,14.09,14.09,0,0,1,3.57-.4c.39,0,.71,0,1.11.07a18.87,18.87,0,0,1,3.08.46c.57.14,1,.28,1.35.4a23.38,23.38,0,0,1,4.55,2.11,30.43,30.43,0,0,1,2.52,1.75c1.07.8,1.61,1.2,2.25,1.77,0,0,1.73,1.53,2.42,2l.36.26c.21.15.46.32.76.51a2,2,0,0,0,.64.3,1.51,1.51,0,0,0,.36,0,19.57,19.57,0,0,0-7.37-9.82,19.82,19.82,0,0,0-10-3.29,11.3,11.3,0,0,0-4.22.5A10.77,10.77,0,0,0,273.12,183.14Z"/><path class="cls-14" d="M210.39,160.07c1.86-1.83,1.86-5.47,3-7.07a6.24,6.24,0,0,1,.42-.52,6.31,6.31,0,0,1,1.52-1.14A25.49,25.49,0,0,1,220,149c2.63-1,5.34-1.85,8-2.71A71,71,0,0,1,246.58,143c4.16-.2,8.4-.4,12.6-.36a59.24,59.24,0,0,0-20.75-1.88c-1.92.2-9.07,1.16-9.69,1.24-6.57.89-9.88,1.34-11.19,1.81-1.8.64-9.56,3.43-12.36,11a17,17,0,0,0-.58,9.4,14.75,14.75,0,0,1,1.69-1.57,14.37,14.37,0,0,1,2.58-1.62A4.31,4.31,0,0,0,210.39,160.07Z"/><path class="cls-11" d="M232.56,233.45q2-7.11,3.94-14.21a26.28,26.28,0,0,0-8.82-5.91c-10.4-4.2-20.14-.09-22.41.93a17,17,0,0,1,.58-9.4c2.8-7.55,10.56-10.34,12.37-11,1.3-.47,4.61-.92,11.18-1.81.62-.08,7.77-1,9.69-1.24,4.85-.51,24.71-1.21,37.32,11,10.6,10.29,12.53,26.27,9.72,27.9-2.62,1.52-8.88-9.66-20.13-9.62a18.78,18.78,0,0,0-7.86,1.85,20.92,20.92,0,0,0-3.41,11.53c.07,3.18,1,4.84-.14,6.24-2.25,2.84-9.47.51-11.5-.14A28.82,28.82,0,0,1,232.56,233.45Z"/><path class="cls-12" d="M231.24,229.89q2-7.09,3.94-14.21a26.43,26.43,0,0,0-8.82-5.91c-10.4-4.2-20.14-.09-22.41.93a17,17,0,0,1,.58-9.4c2.8-7.54,10.56-10.33,12.36-11,1.31-.47,4.62-.92,11.19-1.8.62-.09,7.77-1.05,9.69-1.25,4.85-.51,24.71-1.21,37.32,11,10.6,10.29,12.53,26.27,9.72,27.9-2.62,1.52-8.88-9.65-20.13-9.61a18.63,18.63,0,0,0-7.86,1.85A20.9,20.9,0,0,0,253.41,230c.07,3.18,1,4.84-.14,6.25-2.25,2.83-9.47.5-11.5-.15A28.82,28.82,0,0,1,231.24,229.89Z"/><path class="cls-13" d="M204.33,210.42a18.82,18.82,0,0,1,13-5.25,45.87,45.87,0,0,1,6.57,1.29c4,1.08,6.22,1.71,8.2,3.64a11.58,11.58,0,0,1,3.09,5.58,25.45,25.45,0,0,0-5.71-4.4,25.19,25.19,0,0,0-8.11-2.88,31.22,31.22,0,0,0-17,2Z"/><path class="cls-13" d="M256.92,218.27a19.36,19.36,0,0,1,4.13-1.44,14.09,14.09,0,0,1,3.57-.4c.4,0,.71,0,1.11.07a17.83,17.83,0,0,1,3.08.46c.58.14,1,.28,1.35.4a23.08,23.08,0,0,1,4.55,2.11,30.43,30.43,0,0,1,2.52,1.75c1.07.8,1.61,1.2,2.26,1.77,0,0,1.72,1.53,2.41,2l.36.26c.21.15.46.32.77.51a1.85,1.85,0,0,0,.63.3,1.51,1.51,0,0,0,.36,0,19.57,19.57,0,0,0-7.37-9.82,19.78,19.78,0,0,0-10-3.29,11.71,11.71,0,0,0-4.22.49A10.71,10.71,0,0,0,256.92,218.27Z"/><path class="cls-14" d="M209.73,206.56c1.86-1.83,1.86-5.47,3-7.07a6.24,6.24,0,0,1,.42-.52,6.31,6.31,0,0,1,1.52-1.14,25.49,25.49,0,0,1,4.69-2.3c2.63-1,5.34-1.85,8-2.71a71,71,0,0,1,18.55-3.31c4.16-.2,8.4-.4,12.6-.35a59.32,59.32,0,0,0-20.75-1.89c-1.92.2-9.07,1.16-9.69,1.25-6.57.88-9.88,1.33-11.19,1.8-1.8.65-9.56,3.44-12.36,11a17,17,0,0,0-.58,9.4,14.75,14.75,0,0,1,1.69-1.57,14.37,14.37,0,0,1,2.58-1.62A4.31,4.31,0,0,0,209.73,206.56Z"/><path class="cls-14" d="M284.65,226.16q-.4.08-.81.12a1.19,1.19,0,0,0,1-.08h0Z"/><path class="cls-11" d="M123.55,199.71l9.58-11.22a26.36,26.36,0,0,0-5.5-9.08c-7.66-8.2-18.22-8.59-20.71-8.62a17.1,17.1,0,0,1,4.49-8.28c5.73-5.66,14-4.91,15.85-4.73,1.38.12,4.57,1.11,10.9,3.09.6.18,7.49,2.33,9.31,3,4.62,1.59,22.91,9.34,29.17,25.75,5.26,13.81.27,29.11-3,29.4-3,.27-4-12.5-14.19-17.22a18.79,18.79,0,0,0-7.9-1.64,21,21,0,0,0-8,9c-1.28,2.91-1.16,4.8-2.76,5.6-3.23,1.62-8.8-3.53-10.36-5A29,29,0,0,1,123.55,199.71Z"/><path class="cls-12" d="M123.86,195.92l9.57-11.21a26.2,26.2,0,0,0-5.5-9.08c-7.65-8.2-18.22-8.59-20.7-8.62a16.89,16.89,0,0,1,4.49-8.28c5.72-5.66,13.94-4.91,15.85-4.73,1.37.12,4.57,1.11,10.9,3.08.59.19,7.49,2.34,9.3,3,4.62,1.59,22.91,9.34,29.17,25.76,5.27,13.8.27,29.11-3,29.4-3,.27-4-12.5-14.18-17.22a18.83,18.83,0,0,0-7.91-1.64,21,21,0,0,0-8,9c-1.27,2.91-1.16,4.8-2.76,5.6-3.23,1.62-8.79-3.54-10.36-5A28.8,28.8,0,0,1,123.86,195.92Z"/><path class="cls-13" d="M107.69,166.91a18.87,18.87,0,0,1,5.34-1,19.13,19.13,0,0,1,8.65,1.73,46,46,0,0,1,5.41,3.94c3.15,2.66,4.92,4.18,5.9,6.76a11.58,11.58,0,0,1,.44,6.37A25.11,25.11,0,0,0,124,172.27a31.31,31.31,0,0,0-9.08-4.22A31.66,31.66,0,0,0,107.69,166.91Z"/><path class="cls-13" d="M152,196.23a19.38,19.38,0,0,1,4.36.44,14.09,14.09,0,0,1,3.41,1.15c.35.17.63.33,1,.53a18.32,18.32,0,0,1,2.6,1.71c.46.38.78.68,1.05.93a22.6,22.6,0,0,1,3.23,3.84c.57.85.92,1.51,1.55,2.65s1,1.77,1.3,2.56c0,0,.92,2.11,1.33,2.87.09.18.21.39.21.39l.48.78a1.87,1.87,0,0,0,.45.54,1.18,1.18,0,0,0,.32.16,19.56,19.56,0,0,0-2.53-12,19.77,19.77,0,0,0-7.68-7.21,11.55,11.55,0,0,0-4-1.33A10.77,10.77,0,0,0,152,196.23Z"/><path class="cls-14" d="M114.22,165.69c2.45-.87,4-4.17,5.7-5.14a4.73,4.73,0,0,1,.6-.29,6.15,6.15,0,0,1,1.86-.39,25.2,25.2,0,0,1,5.21-.11c2.8.22,5.63.58,8.42.93a71.4,71.4,0,0,1,18.21,4.82c3.85,1.59,7.78,3.19,11.57,5a59.6,59.6,0,0,0-18-10.48c-1.81-.62-8.71-2.77-9.3-3-6.33-2-9.53-3-10.9-3.08-1.91-.18-10.13-.93-15.85,4.73a16.89,16.89,0,0,0-4.49,8.28,13.77,13.77,0,0,1,2.19-.71,14.11,14.11,0,0,1,3-.39A4.2,4.2,0,0,0,114.22,165.69Z"/><path class="cls-11" d="M243,277.76l-2.19-14.59a26.34,26.34,0,0,0-10.46-1.8c-11.21.41-18.43,8.13-20.08,10a17,17,0,0,1-3.31-8.82c-.52-8,5.43-13.75,6.81-15.07,1-1,3.84-2.72,9.48-6.21.53-.33,6.67-4.13,8.34-5.09,4.23-2.44,22.07-11.17,38.57-5.14,13.88,5.08,22.16,18.88,20.25,21.52-1.77,2.45-12-5.2-22.3-.58a18.64,18.64,0,0,0-6.42,4.9,20.94,20.94,0,0,0,1.58,11.91c1.37,2.87,2.87,4,2.42,5.76-.89,3.5-8.43,4.32-10.55,4.55A28.8,28.8,0,0,1,243,277.76Z"/><path class="cls-12" d="M240.39,275.05q-1.11-7.29-2.2-14.59a26.34,26.34,0,0,0-10.46-1.8c-11.21.41-18.43,8.13-20.08,10a17.06,17.06,0,0,1-3.31-8.82c-.52-8,5.44-13.75,6.82-15.07,1-1,3.84-2.72,9.48-6.21.52-.33,6.67-4.12,8.33-5.09,4.23-2.44,22.07-11.17,38.58-5.14,13.87,5.08,22.15,18.88,20.25,21.52-1.77,2.45-12.05-5.2-22.3-.58a18.69,18.69,0,0,0-6.43,4.9,21,21,0,0,0,1.59,11.91c1.36,2.87,2.86,4,2.42,5.76-.9,3.5-8.44,4.32-10.56,4.55A28.77,28.77,0,0,1,240.39,275.05Z"/><path class="cls-13" d="M207.88,268.23a18.77,18.77,0,0,1,2.74-4.68,19.08,19.08,0,0,1,7-5.41,47.38,47.38,0,0,1,6.52-1.5c4.08-.64,6.39-1,9,0a11.65,11.65,0,0,1,5.09,3.84,25.58,25.58,0,0,0-7-1.69,25.24,25.24,0,0,0-8.58.67,31.29,31.29,0,0,0-14.73,8.79Z"/><path class="cls-13" d="M259.09,254a19.59,19.59,0,0,1,3.19-3,14,14,0,0,1,3.1-1.83c.36-.15.67-.26,1-.39a18.29,18.29,0,0,1,3-.83c.58-.11,1-.15,1.39-.19a22.36,22.36,0,0,1,5,.08c1,.13,1.74.29,3,.57s2,.43,2.78.69c0,0,2.2.69,3,.88l.44.09c.26.05.55.11.91.15a1.64,1.64,0,0,0,.7,0,1.16,1.16,0,0,0,.33-.14,19,19,0,0,0-21.2-4.88,11.22,11.22,0,0,0-3.65,2.16A10.73,10.73,0,0,0,259.09,254Z"/><path class="cls-14" d="M211.24,262.51c.94-2.43-.54-5.75-.15-7.68.07-.34.17-.65.17-.65a6.45,6.45,0,0,1,.93-1.66,25.57,25.57,0,0,1,3.34-4c2-2,4.12-3.86,6.21-5.74a71.46,71.46,0,0,1,15.59-10.59c3.72-1.87,7.51-3.78,11.36-5.45A59.34,59.34,0,0,0,229,233.46c-1.66,1-7.81,4.76-8.33,5.09-5.64,3.49-8.49,5.25-9.48,6.21-1.38,1.32-7.34,7-6.82,15.07a17.06,17.06,0,0,0,3.31,8.82,14.29,14.29,0,0,1,.9-2.13,14.75,14.75,0,0,1,1.69-2.53A4.42,4.42,0,0,0,211.24,262.51Z"/><path class="cls-11" d="M179.3,287.33l-2.19-14.59a26.38,26.38,0,0,0-10.46-1.8c-11.21.41-18.43,8.13-20.08,10a16.88,16.88,0,0,1-3.31-8.82c-.52-8,5.43-13.75,6.81-15.07,1-1,3.84-2.72,9.48-6.21.53-.33,6.67-4.13,8.34-5.09,4.22-2.44,22.07-11.17,38.57-5.14,13.88,5.08,22.16,18.88,20.25,21.52-1.77,2.45-12-5.2-22.3-.58a18.64,18.64,0,0,0-6.42,4.9,20.94,20.94,0,0,0,1.58,11.91c1.36,2.87,2.87,4,2.42,5.76-.89,3.5-8.43,4.32-10.55,4.55A28.8,28.8,0,0,1,179.3,287.33Z"/><path class="cls-12" d="M176.64,284.62,174.45,270a26.34,26.34,0,0,0-10.46-1.8c-11.21.41-18.43,8.13-20.08,10a17.06,17.06,0,0,1-3.31-8.82c-.52-8,5.44-13.75,6.82-15.07,1-1,3.83-2.72,9.48-6.21.52-.33,6.67-4.12,8.33-5.09,4.23-2.44,22.07-11.17,38.58-5.14,13.87,5.08,22.15,18.88,20.25,21.52-1.77,2.45-12.05-5.2-22.3-.58a18.69,18.69,0,0,0-6.43,4.9,21.11,21.11,0,0,0,1.58,11.91c1.37,2.87,2.87,4,2.43,5.76-.9,3.5-8.44,4.32-10.56,4.55A28.82,28.82,0,0,1,176.64,284.62Z"/><path class="cls-13" d="M144.14,277.8a18.77,18.77,0,0,1,2.74-4.68,19.08,19.08,0,0,1,7-5.41,47,47,0,0,1,6.52-1.5c4.08-.64,6.39-1,9,0a11.65,11.65,0,0,1,5.09,3.84,25.23,25.23,0,0,0-15.59-1,31.32,31.32,0,0,0-14.72,8.79Z"/><path class="cls-13" d="M195.35,263.53a19.59,19.59,0,0,1,3.19-3,14,14,0,0,1,3.1-1.83c.36-.15.66-.26,1-.39a18.29,18.29,0,0,1,3-.83c.58-.11,1-.15,1.39-.19a22.36,22.36,0,0,1,5,.08c1,.13,1.74.29,3,.57s2,.43,2.79.69c0,0,2.2.69,3,.88l.44.09c.26.05.55.11.91.15a1.59,1.59,0,0,0,.69,0,1.12,1.12,0,0,0,.34-.14,19.58,19.58,0,0,0-10.73-6,19.81,19.81,0,0,0-10.48,1.08,11.25,11.25,0,0,0-3.64,2.16A10.73,10.73,0,0,0,195.35,263.53Z"/><path class="cls-14" d="M147.5,272.08c.94-2.43-.54-5.75-.15-7.68.07-.34.17-.65.17-.65a6.45,6.45,0,0,1,.93-1.66,25.57,25.57,0,0,1,3.34-4c2-2,4.12-3.86,6.21-5.74a71.4,71.4,0,0,1,15.58-10.59c3.73-1.87,7.52-3.78,11.37-5.45A59.34,59.34,0,0,0,165.23,243c-1.66,1-7.81,4.76-8.33,5.09-5.65,3.49-8.49,5.25-9.48,6.21-1.38,1.32-7.34,7-6.82,15.07a17.06,17.06,0,0,0,3.31,8.82,14.29,14.29,0,0,1,.9-2.13,14.75,14.75,0,0,1,1.69-2.53A4.42,4.42,0,0,0,147.5,272.08Z"/><path class="cls-11" d="M146.5,253.05l-2.19-14.58a26.17,26.17,0,0,0-10.46-1.8c-11.21.4-18.43,8.12-20.08,10a17,17,0,0,1-3.31-8.82c-.52-8,5.44-13.74,6.82-15.07,1-.95,3.83-2.72,9.48-6.2.52-.33,6.67-4.13,8.33-5.09,4.23-2.44,22.07-11.17,38.58-5.14,13.87,5.07,22.15,18.88,20.25,21.52-1.77,2.45-12-5.2-22.3-.58a18.8,18.8,0,0,0-6.43,4.89,21.14,21.14,0,0,0,1.58,11.92c1.37,2.87,2.87,4,2.43,5.76-.9,3.5-8.44,4.32-10.56,4.55A28.7,28.7,0,0,1,146.5,253.05Z"/><path class="cls-12" d="M143.85,250.34l-2.19-14.58a26.43,26.43,0,0,0-10.47-1.8c-11.21.4-18.43,8.12-20.08,10a17,17,0,0,1-3.31-8.81c-.52-8,5.44-13.75,6.82-15.08,1-1,3.84-2.72,9.48-6.2.53-.33,6.67-4.13,8.34-5.09,4.22-2.44,22.07-11.17,38.57-5.14,13.87,5.07,22.15,18.88,20.25,21.52-1.77,2.45-12-5.2-22.3-.58a18.75,18.75,0,0,0-6.42,4.89,21,21,0,0,0,1.58,11.92c1.36,2.87,2.86,4,2.42,5.76-.9,3.5-8.44,4.32-10.56,4.55A28.65,28.65,0,0,1,143.85,250.34Z"/><path class="cls-13" d="M111.34,243.53a19,19,0,0,1,2.74-4.69,19.22,19.22,0,0,1,7-5.4,46.28,46.28,0,0,1,6.52-1.5c4.08-.64,6.39-1,9,0a11.58,11.58,0,0,1,5.1,3.84,25.25,25.25,0,0,0-15.59-1,31.48,31.48,0,0,0-9.15,4.1A31,31,0,0,0,111.34,243.53Z"/><path class="cls-13" d="M145.25,231.44a20.19,20.19,0,0,1,3.19-3,13.78,13.78,0,0,1,3.1-1.82c.36-.15.66-.26,1-.39a18.77,18.77,0,0,1,3-.84c.59-.1,1-.14,1.4-.18a22.4,22.4,0,0,1,5,.08,26.67,26.67,0,0,1,3,.57,27.31,27.31,0,0,1,2.78.69s2.2.69,3,.88l.44.09.9.15a1.83,1.83,0,0,0,.7,0,1.67,1.67,0,0,0,.34-.14A19,19,0,0,0,152,222.66a11.49,11.49,0,0,0-3.65,2.17A10.76,10.76,0,0,0,145.25,231.44Z"/><path class="cls-14" d="M114.7,237.8c1-2.43-.53-5.75-.15-7.67a5.55,5.55,0,0,1,.18-.65,6,6,0,0,1,.93-1.66,24.54,24.54,0,0,1,3.33-4c2-2,4.13-3.87,6.22-5.74a71.16,71.16,0,0,1,15.58-10.59c3.72-1.87,7.51-3.79,11.36-5.46a59.44,59.44,0,0,0-19.71,6.74c-1.67,1-7.81,4.76-8.34,5.09-5.64,3.48-8.48,5.25-9.48,6.2-1.38,1.33-7.34,7-6.82,15.08a17,17,0,0,0,3.31,8.81,14.28,14.28,0,0,1,2.59-4.65A4.21,4.21,0,0,0,114.7,237.8Z"/><path class="cls-11" d="M266.71,266.61l9.58-11.22a26.45,26.45,0,0,0-5.5-9.08c-7.66-8.2-18.22-8.59-20.71-8.61a17.06,17.06,0,0,1,4.49-8.28c5.73-5.66,13.95-4.91,15.85-4.74,1.38.13,4.57,1.12,10.9,3.09.6.18,7.49,2.33,9.31,3,4.62,1.59,22.91,9.34,29.17,25.76,5.27,13.8.27,29.11-3,29.4-3,.27-4-12.51-14.19-17.22a18.48,18.48,0,0,0-7.9-1.64,21,21,0,0,0-8,9c-1.28,2.92-1.16,4.8-2.76,5.61-3.23,1.62-8.8-3.54-10.36-5A28.8,28.8,0,0,1,266.71,266.61Z"/><path class="cls-12" d="M267,262.83l9.57-11.22a26.29,26.29,0,0,0-5.5-9.08c-7.65-8.2-18.21-8.59-20.7-8.62a17,17,0,0,1,4.49-8.28c5.72-5.66,13.94-4.9,15.85-4.73,1.37.13,4.57,1.11,10.9,3.09.59.18,7.49,2.33,9.31,3,4.61,1.59,22.9,9.34,29.17,25.76,5.26,13.8.26,29.1-3,29.39-3,.28-4-12.5-14.18-17.21a18.52,18.52,0,0,0-7.91-1.64,20.91,20.91,0,0,0-8,9c-1.28,2.91-1.17,4.8-2.77,5.6-3.23,1.62-8.79-3.53-10.36-5A28.9,28.9,0,0,1,267,262.83Z"/><path class="cls-13" d="M250.85,233.82a18.84,18.84,0,0,1,5.34-1,19.13,19.13,0,0,1,8.65,1.73,46,46,0,0,1,5.41,3.94c3.15,2.66,4.92,4.19,5.9,6.77a11.54,11.54,0,0,1,.44,6.36,25.11,25.11,0,0,0-9.45-12.44,31.07,31.07,0,0,0-16.29-5.35Z"/><path class="cls-13" d="M295.2,263.13a19.89,19.89,0,0,1,4.36.45,14,14,0,0,1,3.41,1.14c.35.17.63.33,1,.53a18.83,18.83,0,0,1,2.6,1.72c.46.37.78.67,1,.93a22.6,22.6,0,0,1,3.23,3.84,27.6,27.6,0,0,1,1.55,2.65,28.41,28.41,0,0,1,1.3,2.55s.92,2.12,1.33,2.87l.22.39c.12.23.28.49.47.78a1.73,1.73,0,0,0,.45.54,1.15,1.15,0,0,0,.33.17,19,19,0,0,0-10.22-19.22,11.08,11.08,0,0,0-4-1.33A10.72,10.72,0,0,0,295.2,263.13Z"/><path class="cls-14" d="M257.38,232.6c2.45-.88,4-4.18,5.7-5.15a4.73,4.73,0,0,1,.6-.29,6.15,6.15,0,0,1,1.86-.39,25.28,25.28,0,0,1,5.22-.11c2.8.22,5.62.59,8.41.93a71.42,71.42,0,0,1,18.21,4.83c3.86,1.58,7.78,3.19,11.57,5a59.27,59.27,0,0,0-18-10.47c-1.82-.63-8.72-2.78-9.31-3-6.33-2-9.53-3-10.9-3.09-1.91-.17-10.13-.93-15.85,4.73a17,17,0,0,0-4.49,8.28,14.87,14.87,0,0,1,2.19-.71,14,14,0,0,1,3-.38A4.36,4.36,0,0,0,257.38,232.6Z"/><path class="cls-11" d="M193.78,241.66l-8-12.39a26.37,26.37,0,0,0-10.28,2.67c-10,5-13.44,15-14.18,17.38a17.05,17.05,0,0,1-6.65-6.67c-3.78-7.11-.71-14.77,0-16.54.51-1.29,2.38-4.06,6.08-9.57.34-.51,4.38-6.5,5.5-8.07,2.84-4,15.5-19.28,33-20.58,14.73-1.1,28,8.07,27.32,11.26-.6,3-13.12.23-20.55,8.66a18.65,18.65,0,0,0-3.84,7.11,21,21,0,0,0,6.35,10.2c2.43,2.06,4.27,2.49,4.58,4.25.63,3.56-5.9,7.42-7.74,8.5A28.93,28.93,0,0,1,193.78,241.66Z"/><path class="cls-12" d="M190.24,240.28l-8-12.38A26.23,26.23,0,0,0,172,230.57c-10,5-13.44,15-14.17,17.37a16.85,16.85,0,0,1-6.65-6.67c-3.79-7.1-.72-14.76,0-16.54.52-1.28,2.38-4.06,6.08-9.56.35-.52,4.38-6.51,5.5-8.07,2.84-4,15.5-19.28,33-20.58,14.73-1.1,28,8.07,27.32,11.25-.61,3-13.12.23-20.56,8.67a18.61,18.61,0,0,0-3.83,7.11,21,21,0,0,0,6.35,10.2c2.42,2.05,4.27,2.49,4.58,4.25.62,3.56-5.91,7.41-7.75,8.5A28.73,28.73,0,0,1,190.24,240.28Z"/><path class="cls-13" d="M157.81,247.47a18.8,18.8,0,0,1,4.7-13.2,46.55,46.55,0,0,1,5.32-4.05c3.45-2.26,5.42-3.52,8.17-3.72a11.58,11.58,0,0,1,6.23,1.4,25.12,25.12,0,0,0-14.62,5.49,31.15,31.15,0,0,0-9.8,14.08Z"/><path class="cls-13" d="M198.59,213.36a19.12,19.12,0,0,1,1.68-4,13.7,13.7,0,0,1,2.07-2.95c.26-.28.49-.5.78-.78a18.25,18.25,0,0,1,2.39-2c.49-.34.87-.56,1.19-.75a22.82,22.82,0,0,1,4.61-2c1-.29,1.7-.45,3-.72s2-.41,2.82-.51c0,0,2.29-.28,3.13-.45l.44-.1c.25-.06.54-.13.88-.24a1.65,1.65,0,0,0,.64-.27,1.17,1.17,0,0,0,.25-.26,19.52,19.52,0,0,0-12.23-1,19.74,19.74,0,0,0-9.1,5.29,11.42,11.42,0,0,0-2.43,3.48A10.77,10.77,0,0,0,198.59,213.36Z"/><path class="cls-14" d="M158.51,240.87c-.14-2.6-2.85-5-3.3-6.93-.07-.34-.1-.67-.1-.67a6.08,6.08,0,0,1,.16-1.89,24.37,24.37,0,0,1,1.39-5c1-2.62,2.16-5.22,3.29-7.79a71.34,71.34,0,0,1,9.83-16.07c2.62-3.24,5.29-6.55,8.11-9.66A59.44,59.44,0,0,0,162.7,207.1c-1.12,1.56-5.15,7.55-5.5,8.07-3.7,5.5-5.56,8.28-6.08,9.56-.71,1.78-3.78,9.44,0,16.54a16.85,16.85,0,0,0,6.65,6.67,14,14,0,0,1,.44-5.3A4.43,4.43,0,0,0,158.51,240.87Z"/><path class="cls-14" d="M222.91,197.86a8.18,8.18,0,0,1-.45.69,1.25,1.25,0,0,0,.59-.78h0Z"/><path class="cls-1" d="M111.59,111.2c5.12-3.79,40-33.06,89.74-75.1A14.87,14.87,0,0,1,200,25.93c1.75-6.88,8.8-10.65,14-11.36,7.78-1.08,14.2,4.34,19.95,9.41,23.76,21,35.42,34.52,35.42,34.52,14.79,17.21,23.4,27.92,32.77,41.88,11.53,17.19,14.84,25.32,11.8,32-1.73,3.83-6.35,9-12.94,9.86a16,16,0,0,1-10-2.24c-48.91,42.53-83.24,72.6-86.78,76.39a7.77,7.77,0,0,1-5,2.64c-4.8.29-8.88-6.41-9-6.31s2.29,2.65,2.2,2.76c-.51.54-62.48-70.08-76.46-88.33-2.71-3.54-7.92-10.72-5.54-14.7A4.14,4.14,0,0,1,111.59,111.2Z"/><path class="cls-2" d="M114.59,115.68a11.56,11.56,0,0,1,.19-11.91,18.38,18.38,0,0,1,2.35-3.11l.22-.22c2.62-2.68,9-7.58,9-7.58,5.54-4.24,6.94-5.8,12.68-9.77h0c1.09-.76-.24.13,15.58-13C167.39,59.55,176,52.58,181.47,47.77c.58-.51,1.85-1.62,3.63-3.08,1.26-1,4-3.29,7.27-5.68,1.37-1,2.67-2.06,4-3a13.85,13.85,0,0,0,1.34-1.07,5.74,5.74,0,0,0,1.51-1.62c.45-.9.09-1.59-.07-3.12a12.75,12.75,0,0,1,.12-3.51,32,32,0,0,1,3.19-7.74,21.73,21.73,0,0,1,3.8-5.22c4-3.82,9.27-4.27,11-4.42,9.07-.77,17.45,7.14,23.38,12.88,9.5,9.19,20.65,20.46,32.88,33.81,6.43,8,11.78,15,15.88,20.44,1.13,1.49,5.6,7.9,14.53,20.74a57.33,57.33,0,0,1,7,13c1.22,3.22,1.82,4.82,2.05,6.81.9,8.1-4.21,19.26-13.87,22a19.09,19.09,0,0,1-12.56-1c-10.81,9.11-19,16.11-24.57,20.91-3,2.56-5,4.29-8.59,7.37-9.4,8-10.45,8.71-16.66,14.08-6.39,5.53-6.09,5.49-12.1,10.62-9.07,7.74-7.94,6.28-11.38,9.53-3,2.81-6.35,5.18-9.46,7.84-1.53,1.32-3,2.62-5.17,2.77-2.8.19-5-1.68-6.13-2.63-8.09-7-17.27-18.47-19.9-21.7-3.6-4.41-2.43-2.6-9.71-11.17-6.15-7.24-8.53-10.35-13.85-16.78-4.43-5.36-8.39-10-16.44-19.26-5.17-5.92-9.64-12.41-14.7-18.42A23.46,23.46,0,0,1,114.59,115.68Z"/><path class="cls-3" d="M118,106.57c.66-3.77,3.83-6.1,6-7.69,6.15-4.52,12.4-9.17,19.46-14.38,29.66-24,51.15-41.52,56.29-45.44a12.88,12.88,0,0,0,4.55-5.52c1.33-3.39-.18-4.81.86-8.82a16.76,16.76,0,0,1,5.27-8.21,17.38,17.38,0,0,1,7.73-4.09c6.3-1.17,12,5.19,21.41,15,20.2,20.92,20.29,18.74,29.55,30.08,1.89,2.32.87,1.16,14.38,18.37,4.17,5.31,6.08,7.73,8.93,11.6A143.5,143.5,0,0,1,303.89,105c3.23,6,4.85,9.05,4.85,12.21a17.46,17.46,0,0,1-9.58,15.47c-6.88,3.29-13.47.48-14.49,0-44.05,37.73-76.5,65-82.11,69a9.13,9.13,0,0,1-5.07,1.82c-5.12.06-9-5.26-10.3-6.94-10.25-13.69-22.41-25.85-33.47-38.9,0,0-21.16-25-33.27-42.6C119.53,113.69,117.31,110.36,118,106.57Z"/><path class="cls-4" d="M124.56,119.56c7.1-10.82,16.88-19.1,27.71-26,4.4-2.81,9-5.35,13.58-7.77,2.32-1.21,4.69-2.32,6.91-3.69.07,0,1.42-1,.53-.32s.1-.07.3-.21c.5-.35,1-.7,1.47-1.06,1.13-.82,2.22-1.69,3.3-2.58,4.21-3.48,8.1-7.34,12-11.16s7.72-7.23,11.44-11c.92-.93,1.82-1.86,2.7-2.82l.65-.72c.73-.8.1-.07-.15.18A12.55,12.55,0,0,0,206.16,51a52.49,52.49,0,0,0,4.14-5.82c.38-.63.75-1.26,1.1-1.9.16-.29.32-.58.47-.87l.23-.47c.13-.31.28-.61.41-.92.28-.64.55-1.28.8-1.93.8-2.06,1.38-4.2,2.25-6.23A20.46,20.46,0,0,1,229,21.21a17.18,17.18,0,0,1,3.85-.72c-5.74-5.69-10.05-8.94-14.7-8.07a17.38,17.38,0,0,0-7.73,4.09,16.76,16.76,0,0,0-5.27,8.21c-1,4,.47,5.43-.86,8.82a12.88,12.88,0,0,1-4.55,5.52C194.58,43,173.09,60.47,143.43,84.5c-7.06,5.21-13.31,9.86-19.46,14.38-2.17,1.59-5.34,3.92-6,7.69s1.56,7.12,2.48,8.47c1.16,1.69,2.41,3.45,3.71,5.24A6.3,6.3,0,0,1,124.56,119.56Z"/><path class="cls-4" d="M223.66,184.27l-.67.78c.85-.71,1.72-1.43,2.6-2.18C225,183.34,224.31,183.81,223.66,184.27Z"/><g class="cls-15"><path class="cls-16" d="M239.12,25.39l-29.77,1.5c-9.61.49-9.67,15.49,0,15l29.77-1.5c9.61-.49,9.67-15.49,0-15Z"/></g><g class="cls-15"><path class="cls-16" d="M250.52,39.59,180.23,49.5c-4,.57-6.23,5.69-5.24,9.23,1.21,4.31,5.18,5.81,9.22,5.24l70.3-9.91c4-.57,6.23-5.69,5.24-9.23-1.21-4.31-5.18-5.81-9.23-5.24Z"/></g><g class="cls-15"><path class="cls-16" d="M264.47,54.55,174,63.75,161,65.06c-4,.41-7.5,3.16-7.5,7.5,0,3.74,3.44,7.92,7.5,7.5l90.49-9.19,12.94-1.32c4-.41,7.5-3.15,7.5-7.5,0-3.74-3.44-7.91-7.5-7.5Z"/></g><g class="cls-15"><path class="cls-16" d="M274.49,69.28,157.17,79.51,140.53,81c-9.54.83-9.63,15.84,0,15L257.85,85.73l16.64-1.45c9.54-.83,9.63-15.84,0-15Z"/></g><g class="cls-15"><path class="cls-16" d="M282.88,85,142,95.73l-19.74,1.51c-9.56.73-9.64,15.73,0,15l140.91-10.73L282.88,100c9.57-.72,9.65-15.73,0-15Z"/></g><g class="cls-15"><path class="cls-16" d="M290.83,97.06,149.28,110.45l-19.66,1.86c-9.52.9-9.62,15.91,0,15l141.55-13.39,19.66-1.86c9.52-.9,9.62-15.91,0-15Z"/></g><g class="cls-15"><path class="cls-16" d="M301.32,112.24,162.76,128.51,143,130.82c-4,.48-7.5,3.11-7.5,7.5,0,3.69,3.45,8,7.5,7.5l138.57-16.26,19.75-2.32c4-.47,7.5-3.11,7.5-7.5,0-3.69-3.45-8-7.5-7.5Z"/></g><g class="cls-15"><path class="cls-16" d="M300.91,127.37,172.5,146.69l-18.12,2.73c-4,.6-6.23,5.66-5.23,9.23,1.2,4.28,5.18,5.84,9.22,5.23l128.41-19.32,18.11-2.73c4-.6,6.24-5.66,5.24-9.22-1.2-4.29-5.19-5.85-9.22-5.24Z"/></g><g class="cls-15"><path class="cls-16" d="M256.24,150.86,176.9,164.23l-11.55,1.94c-9.5,1.6-5.47,16.06,4,14.47l79.34-13.37,11.55-2c9.5-1.6,5.47-16-4-14.46Z"/></g><g class="cls-15"><path class="cls-16" d="M228.47,171.73l-51.17,8.62c-9.49,1.6-5.47,16.06,4,14.46l51.17-8.62c9.5-1.6,5.47-16.05-4-14.46Z"/></g></svg>