<svg id="Layer_1" data-name="Layer 1" xmlns="http://www.w3.org/2000/svg" width="400.04" height="400.43" viewBox="0 0 400.04 400.43"><defs><style>.cls-1{fill:#020202;opacity:0.32;}.cls-2{fill:#6d4c16;stroke:#020202;}.cls-15,.cls-16,.cls-19,.cls-2{stroke-miterlimit:10;}.cls-3{fill:#e8bf89;}.cls-4{fill:#967753;opacity:0.34;}.cls-5{opacity:0.23;}.cls-6,.cls-7{fill:#060707;}.cls-10,.cls-7{opacity:0.51;}.cls-8{fill:#f9af1d;}.cls-19,.cls-9{fill:none;}.cls-10{fill:#c68d25;}.cls-11{opacity:0.26;}.cls-12{fill:#161616;}.cls-13{fill:#7c4016;}.cls-14{opacity:0.37;}.cls-15,.cls-16,.cls-17{fill:#040505;}.cls-15,.cls-16{stroke:#040505;}.cls-16,.cls-19{stroke-width:15px;}.cls-18{fill:#a3ce8d;}.cls-19{stroke:#acd4a7;}.cls-20{opacity:0.22;}.cls-21{fill:#3d2b15;}.cls-22{fill:#244f24;}.cls-23{opacity:0.1;}</style></defs><path class="cls-1" d="M125.6,292.91c4.61-3.15,36.07-27.68,81-62.91a13,13,0,0,1-.84-8.94c1.75-6,8-9.05,12.6-9.51,6.84-.7,12.29,4.25,17.17,8.88,20.14,19.11,29.92,31.34,29.92,31.34,12.41,15.54,19.61,25.2,27.37,37.72,9.55,15.41,12.18,22.64,9.31,28.42-1.63,3.3-5.85,7.72-11.65,8.23a14,14,0,0,1-8.71-2.29c-44.18,35.69-75.2,60.93-78.42,64.14a6.87,6.87,0,0,1-4.42,2.15c-4.21.1-7.57-5.89-7.67-5.81s1.92,2.4,1.83,2.48c-.45.47-52.47-63.34-64.14-79.76-2.26-3.19-6.59-9.65-4.39-13.06A3.82,3.82,0,0,1,125.6,292.91Z"/><path class="cls-2" d="M128.08,296.93a10.13,10.13,0,0,1,.55-10.42,15.85,15.85,0,0,1,2.16-2.65l.19-.19c2.38-2.26,8.12-6.35,8.12-6.35,5-3.54,6.26-4.85,11.41-8.15h0c1-.64-.21.1,14.06-10.86,11.53-8.85,19.28-14.69,24.24-18.72.52-.43,1.66-1.36,3.27-2.59,1.14-.87,3.6-2.75,6.55-4.73,1.23-.83,2.4-1.73,3.64-2.53a12,12,0,0,0,1.21-.89,5.44,5.44,0,0,0,1.38-1.38c.41-.77.12-1.39,0-2.73a11.46,11.46,0,0,1,.21-3.07,28.51,28.51,0,0,1,3-6.68,19.59,19.59,0,0,1,3.5-4.45c3.64-3.22,8.26-3.44,9.78-3.52,8-.39,15.05,6.81,20.07,12,8,8.34,17.43,18.56,27.71,30.64,5.38,7.25,9.84,13.52,13.26,18.41.94,1.33,4.65,7.1,12.07,18.62a50.16,50.16,0,0,1,5.74,11.63,24.07,24.07,0,0,1,1.57,6c.54,7.12-4.3,16.73-12.84,18.86a16.75,16.75,0,0,1-11-1.3c-9.75,7.63-17.14,13.5-22.18,17.53-2.68,2.15-4.48,3.59-7.75,6.18-8.49,6.71-9.43,7.29-15,11.8-5.77,4.64-5.5,4.61-10.93,8.92-8.19,6.48-7.15,5.25-10.27,8-2.7,2.37-5.72,4.34-8.53,6.57-1.38,1.1-2.74,2.19-4.62,2.25-2.45.08-4.35-1.63-5.28-2.49-6.86-6.4-14.54-16.73-16.74-19.64-3-4-2-2.35-8.14-10.09-5.16-6.53-7.15-9.33-11.6-15.13-3.7-4.84-7-9.05-13.79-17.39-4.33-5.34-8-11.17-12.28-16.6A20.61,20.61,0,0,1,128.08,296.93Z"/><path class="cls-3" d="M131.34,289.06c.69-3.28,3.54-5.22,5.49-6.55,5.53-3.76,11.15-7.63,17.5-12,26.73-20.1,46.11-34.73,50.73-38a11.25,11.25,0,0,0,4.16-4.69c1.28-2.92,0-4.22,1-7.7a14.72,14.72,0,0,1,4.87-7,15.24,15.24,0,0,1,6.9-3.33c5.55-.83,10.31,4.92,18.28,13.79,17,18.95,17.17,17,24.91,27.27,1.59,2.1.73,1,12,16.55,3.48,4.78,5.08,7,7.46,10.44a126.06,126.06,0,0,1,9.49,15.73c2.65,5.35,4,8.08,3.86,10.85a15.27,15.27,0,0,1-8.88,13.24,15.66,15.66,0,0,1-12.69-.44c-39.76,31.65-69.05,54.5-74.08,57.78a8,8,0,0,1-4.5,1.43c-4.49-.1-7.75-4.89-8.8-6.4-8.54-12.31-18.8-23.35-28.08-35.13,0,0-17.73-22.53-27.77-38.36C132.47,295.34,130.64,292.36,131.34,289.06Z"/><path class="cls-4" d="M136.69,300.64c6.56-9.25,15.39-16.19,25.09-21.89,3.94-2.32,8-4.4,12.14-6.37,2.07-1,4.18-1.88,6.17-3,.06,0,1.27-.79.47-.26l.27-.18c.45-.28.89-.57,1.33-.87,1-.69,2-1.41,3-2.16,3.8-2.91,7.33-6.17,10.88-9.39s7-6.09,10.36-9.26c.84-.78,1.66-1.58,2.46-2.39l.59-.6c.66-.68.09-.07-.13.15a13.19,13.19,0,0,0,1.05-1.18,48.33,48.33,0,0,0,3.81-5c.35-.54.69-1.08,1-1.63.15-.24.29-.49.43-.74,0-.08.14-.27.22-.41l.39-.79c.27-.55.52-1.11.76-1.67.77-1.77,1.34-3.63,2.17-5.38a17.9,17.9,0,0,1,12.12-9.8,15.2,15.2,0,0,1,3.39-.51c-4.84-5.17-8.51-8.14-12.61-7.53a15.24,15.24,0,0,0-6.9,3.33,14.72,14.72,0,0,0-4.87,7c-1,3.48.24,4.78-1,7.7a11.25,11.25,0,0,1-4.16,4.69c-4.62,3.27-24,17.9-50.73,38-6.35,4.34-12,8.21-17.5,12-2,1.33-4.8,3.27-5.49,6.55s1.13,6.28,1.9,7.49c1,1.52,2,3.1,3.07,4.71C136.43,301.05,136.55,300.84,136.69,300.64Z"/><path class="cls-4" d="M221.41,360.45l-.6.67,2.34-1.83C222.57,359.68,222,360.07,221.41,360.45Z"/><g class="cls-5"><path class="cls-6" d="M122,294.68a3.83,3.83,0,0,0,1.71,1.22,21.77,21.77,0,0,0,5.49.69,6,6,0,0,0-.85,5c.35,1,1.22,1.4,4.46,3.79a3.52,3.52,0,0,0,1.08.57c1,.34,4.63-.45,6.2,1a1.31,1.31,0,0,1,.35.4c.76,1.7-4.79,5,.31,6.75,5.54,1.85,5.17,0,7.72,2.45s2.58,1.72,1.92,5.14,6.11,5.14,6.5,4.76,10.55,6,7.82,8.83,8.38,9.7,9,7.15,7.36,3.33,7.23,6.16,5.16,9.88,8.43,6.1-1.54,8.09,2.9,9.57,5.39-4.3,8.67-3.32,0,6.82-1.06,7.6,8.79,10.87,9,3.51-.61,2.38,3.66,2.08,6.17-4.76,6.77-7.46,6.27-2.8,7.61-4.28,10.05-5.54,6.3-13,.84.81.84.81,4.08,2.09,5.48-6.06c0,0,10.09-4.11,8.47-9.34,0,0,12-8.85,7.66-13.24,0,0,6.2,1.35,7.8-3.74,0,0,6.49-1.93,5.75-6.31,0,0,8.67-5.81,5.72-8s1.06-1.15,1.06-1.15,4.57,4.63,5.85-.4,4.26-3.77,5.47-4.18,4.87,3.48,7.4-.23,1.41,2.11,2.53-3.72,8.44.69,2.4-5.05-1.29-.78-1.29-.78,8.07,5.68,3-2.78c-2.79-4.67-1.49-5.92-2-7.54-1.12-3.73-7.2-6.47-7.91-6.75-13.54-5.36-50.57-67.71-79.48-64.84-7.62.75-7.21,5.29-28.93,27.8C154.53,263.38,119.42,291.18,122,294.68Z"/><line class="cls-6" x1="247.15" y1="269.17" x2="247.15" y2="269.17"/><path class="cls-7" d="M202.92,363c-.11.12.46-.76.53-.89.15-.29.29-.59.42-.89h0c-.24.51-.2.07-.12-.16l-.22-.24-.65-.54-.7-.41a43.82,43.82,0,0,1-6.46,2c-2.13.39-4.6-1.84-4.56-4a16.49,16.49,0,0,0-.7-4.59,10.45,10.45,0,0,1-2.5-.14,8.76,8.76,0,0,1-5.81-4.1c-.64-1.06-1.17-2.17-1.87-3.2-.32-.49-.67-1-1-1.43-.12-.15-.84-1.06-.52-.71a14.67,14.67,0,0,0-1.89-1.7l-.4-.22-.61-.31-.42-.18-.21,0c-2.11-.37-4.15-.63-5.85-2.1a14.19,14.19,0,0,1-3.46-5.71c-.35-.9-.67-1.81-1-2.7-.15-.36-.29-.73-.46-1.08,0,0-.34-.58-.4-.69s-.28-.42-.43-.62l-.07-.06-.44-.41a9.25,9.25,0,0,0-.94-.48l-.72-.3-.36-.12-.55-.18-1.09-.35a18,18,0,0,1-2.93-1.15,9.88,9.88,0,0,1-4.49-4.78c-.75-1.69-.9-3.44-1.78-4.48a3.55,3.55,0,0,1-.56-.55,9.22,9.22,0,0,0-1.3-.64c.67.31,0,0-.32-.07l-1-.26c-1.94-.53-3.85-1.31-5-3.08a7.7,7.7,0,0,1-.82-5.76l0,0,0,0v0l-.08-.05a8.7,8.7,0,0,0-1.28-.68l-.47-.18-.37-.06c.64-.13-.25,0-.52,0a13.26,13.26,0,0,1-3.77-.53,6.35,6.35,0,0,1-4.6-5.38c-.06-.62,0-1.24,0-1.87l0-.26a1.09,1.09,0,0,1-.08-.19,2.49,2.49,0,0,1-.11-.29l-.1-.17a.66.66,0,0,1-.06-.12,3.68,3.68,0,0,0-.37-.32c.4.34.17.17-.1,0a4.18,4.18,0,0,1-.41-.09c-.41.16-.66.18-.76.07q-.55-.62,4.66-6.4a35.43,35.43,0,0,1-3.63,1.31c-1.23.37-1.85.49-3.21,1a6.69,6.69,0,0,0-3.06,1.69c-.42.46-1,1.07-.88,1.61s1.09,1.57,7.2,1.91a6,6,0,0,0-.85,5c.35,1,1.22,1.4,4.46,3.79a3.52,3.52,0,0,0,1.08.57c1,.34,4.63-.45,6.2,1a1.31,1.31,0,0,1,.35.4c.76,1.7-4.79,5,.31,6.75,5.54,1.85,5.17,0,7.72,2.45s2.58,1.72,1.92,5.14,6.11,5.14,6.5,4.76,10.55,6,7.82,8.83,8.38,9.7,9,7.15,7.36,3.33,7.23,6.16,5.16,9.88,8.43,6.1-1.54,8.09,2.9,9.57,5.39-4.3,8.67-3.32c1.31.4,1.57,1.56,1.35,2.87C202.49,363.53,202.71,363.26,202.92,363Z"/><path class="cls-7" d="M208.89,369.89a14,14,0,0,1-2.62,1.42c-2.94,1.2-5.37-1.27-5.54-3.9a4.74,4.74,0,0,1-.86,1c-1.07.78,8.79,10.86,9,3.5C208.88,371,208.88,370.33,208.89,369.89Z"/><path class="cls-7" d="M233.18,349.36c-.48-1-.83-1.66-1.06-2.15l-.24-.12a5,5,0,0,1-.54-.35,21.84,21.84,0,0,1-.34,2.8s0,.25-.07.43,0,.81,0,.9a12.73,12.73,0,0,1-.25,2.9c-1.07,4.46-5.29,7.3-9.27,8.94a6.23,6.23,0,0,0-1.55.77l0,0c-.15.35-.32.71-.47,1.06a9.56,9.56,0,0,1-.62,1.24c.28-.46.19-.59,0,0a7.88,7.88,0,0,1-1.51,3.07c-2.24,2.43-5.05,1.91-7.14.19l-.18.14c-.28.23-.56.45-.85.65.26,1.33,1,4.42,3.48,4.25,4.27-.3,6.17-4.76,6.77-7.46s6.27-2.8,7.61-4.28S236.93,356.85,233.18,349.36Z"/><path class="cls-7" d="M299.72,288.85c2.06,1.17,5.28,2.45,1.63-3.67-.24-.39-.44-.76-.62-1.1-.55,1.41-1.37,2.72-2,4.1-.2.56-.24.66-.12.31-.13.36-.25.73-.38,1.09a11.89,11.89,0,0,1-.53,1.28,9.33,9.33,0,0,1-2.09,2.7l-.79.69-.43.4a4.43,4.43,0,0,1-4.89,2.7,6.11,6.11,0,0,1-1-.27,4.09,4.09,0,0,1-2-.89h-.35l-.43,0-1.07.11-.64.09a5,5,0,0,1-.5.42l-.1.07-.1.18c-.23.5-.44,1-.71,1.48a6.58,6.58,0,0,1-3.55,3.2,5.77,5.77,0,0,1-4.61-.69l-.74-.41-.36-.13-.83-.22-.4-.09a4.1,4.1,0,0,1,.06.49c.07.23.14.47.2.7a4,4,0,0,1,.23,5.78A12.58,12.58,0,0,1,270.5,309l-.92.61-.13.07-.17.18a4.35,4.35,0,0,1-2,1.24,6.08,6.08,0,0,1-.62,2.33c-.95,1.87-2.79,2.61-4.36,3.84a8.56,8.56,0,0,1-5.18,2.21s-.78,0-1.44-.05a5.06,5.06,0,0,1-1.46,1.18,10.66,10.66,0,0,1,.5,1.33,7.55,7.55,0,0,1-1.17,6.86c-1.38,1.82-3.47,2.62-5.34,3.8l-.71.46c-.25.21-.24.36-.49,1,.28-.71-.1.39-.14.54-.18.6-.38,1.18-.58,1.77-1,2.82-2.87,4.34-5.58,5.45-.16.06-1.63.76-.83.3a4.08,4.08,0,0,1-.44.19l.1,0-.09.11a3.11,3.11,0,0,1-.15.31q0,.3-.12.6c-.73,3.12-3.6,5.39-6.72,4.11.68,1.16,1.6,2.83,1.6,2.83s4.08,2.09,5.48-6.06c0,0,10.09-4.11,8.47-9.34,0,0,12-8.85,7.66-13.24,0,0,6.2,1.35,7.8-3.74,0,0,6.49-1.93,5.75-6.31,0,0,8.67-5.81,5.72-8s1.06-1.15,1.06-1.15,4.57,4.63,5.85-.4,4.26-3.77,5.47-4.18,4.87,3.48,7.4-.23,1.41,2.11,2.53-3.72S305.55,294.4,299.72,288.85Z"/></g><path class="cls-8" d="M122.17,289.13a3.82,3.82,0,0,0,1.71,1.23,21.77,21.77,0,0,0,5.49.69,6,6,0,0,0-.85,5c.36,1,1.22,1.4,4.46,3.79a3.8,3.8,0,0,0,.54.33,4.48,4.48,0,0,0,.54.24c1,.34,4.63-.46,6.21,1a1.27,1.27,0,0,1,.34.4c.76,1.69-4.79,5,.32,6.74,5.53,1.86,5.16,0,7.71,2.46s2.58,1.72,1.93,5.13,6.11,5.14,6.49,4.76,10.56,6,7.82,8.83,8.39,9.7,9,7.15,7.36,3.34,7.24,6.16,5.15,9.89,8.43,6.11-1.54,8.09,2.89,9.57,5.39-4.3,8.67-3.32,0,6.82-1.06,7.6,8.79,10.86,9,3.5-.61,2.39,3.66,2.08,6.17-4.76,6.77-7.46,6.28-2.79,7.61-4.27,10.05-5.55,6.3-13,.85.8.85.8,4.07,2.1,5.47-6.05c0,0,10.09-4.12,8.48-9.34,0,0,11.94-8.85,7.65-13.24,0,0,6.21,1.35,7.8-3.74,0,0,6.49-1.93,5.75-6.31,0,0,8.67-5.82,5.73-8s1.05-1.15,1.05-1.15,4.57,4.62,5.85-.4,4.26-3.78,5.48-4.18,4.86,3.47,7.39-.24,1.42,2.12,2.53-3.71,8.44.69,2.4-5.06-1.29-.77-1.29-.77,8.08,5.68,3-2.78c-2.78-4.67-1.48-5.92-2-7.55-1.13-3.72-7.21-6.46-7.91-6.74-13.55-5.36-50.58-67.71-79.49-64.85-7.62.76-7.21,5.3-28.93,27.8C154.69,257.84,119.59,285.64,122.17,289.13Z"/><line class="cls-9" x1="247.31" y1="263.62" x2="247.31" y2="263.62"/><path class="cls-10" d="M203.08,357.43c-.1.12.46-.76.53-.89.16-.3.29-.59.42-.9h0c-.24.52-.2.08-.11-.15a2.55,2.55,0,0,0-.23-.24c-.05-.06-.45-.38-.64-.55l-.7-.41a44.36,44.36,0,0,1-6.47,2,4.28,4.28,0,0,1-4.55-4,16.87,16.87,0,0,0-.71-4.59,10.9,10.9,0,0,1-2.49-.14,8.74,8.74,0,0,1-5.81-4.1c-.65-1.06-1.18-2.17-1.87-3.21-.33-.48-.68-.95-1-1.42-.11-.16-.84-1.06-.52-.71a14,14,0,0,0-1.89-1.7l-.39-.22-.61-.31-.42-.19-.22,0c-2.1-.38-4.15-.63-5.84-2.1a14.21,14.21,0,0,1-3.47-5.72c-.35-.89-.66-1.8-1-2.7-.14-.36-.29-.72-.45-1.07,0,0-.34-.59-.41-.69s-.28-.42-.43-.62l-.07-.07c-.14-.14-.29-.27-.44-.4-.31-.18-.62-.34-.94-.49l-.72-.29-.36-.13-.55-.17-1.08-.35a20.14,20.14,0,0,1-2.94-1.15,9.88,9.88,0,0,1-4.49-4.78c-.75-1.69-.9-3.45-1.77-4.48a3.59,3.59,0,0,1-.57-.55,7.52,7.52,0,0,0-1.3-.65c.67.31,0,0-.32-.06l-1-.26c-1.94-.54-3.85-1.31-5-3.09a7.68,7.68,0,0,1-.83-5.75l0,0h0l-.09-.06a10.26,10.26,0,0,0-1.27-.67l-.48-.18-.36-.06c.63-.13-.25,0-.53,0a12.48,12.48,0,0,1-3.76-.53,6.32,6.32,0,0,1-4.6-5.37c-.06-.62,0-1.25,0-1.87a1.24,1.24,0,0,0,0-.27,1.28,1.28,0,0,1-.08-.18c0-.1-.07-.2-.11-.29a1.18,1.18,0,0,1-.1-.18.64.64,0,0,1-.06-.11,3.59,3.59,0,0,0-.36-.32c.4.33.16.17-.11,0l-.4-.1c-.41.17-.67.19-.77.07q-.55-.6,4.66-6.39a37.07,37.07,0,0,1-3.63,1.31c-1.23.37-1.84.48-3.21,1a6.75,6.75,0,0,0-3.06,1.69c-.42.45-1,1.06-.88,1.6s1.1,1.57,7.2,1.92a6,6,0,0,0-.85,5c.36,1,1.22,1.4,4.46,3.79a3.8,3.8,0,0,0,.54.33,4.48,4.48,0,0,0,.54.24c1,.34,4.63-.46,6.21,1a1.27,1.27,0,0,1,.34.4c.76,1.69-4.79,5,.32,6.74,5.53,1.86,5.16,0,7.71,2.46s2.58,1.72,1.93,5.13,6.11,5.14,6.49,4.76,10.56,6,7.82,8.83,8.39,9.7,9,7.15,7.36,3.34,7.24,6.16,5.15,9.89,8.43,6.11-1.54,8.09,2.89,9.57,5.39-4.3,8.67-3.32c1.31.39,1.58,1.56,1.35,2.86C202.66,358,202.87,357.71,203.08,357.43Z"/><path class="cls-10" d="M209.05,364.34a13.47,13.47,0,0,1-2.62,1.43c-2.94,1.2-5.36-1.27-5.54-3.9a4.47,4.47,0,0,1-.86,1c-1.07.77,8.79,10.86,9,3.5C209,365.45,209.05,364.78,209.05,364.34Z"/><path class="cls-10" d="M233.34,343.82c-.48-1-.82-1.67-1.06-2.16l-.24-.12a4.93,4.93,0,0,1-.54-.34,21.67,21.67,0,0,1-.33,2.79c0,.05,0,.26-.07.44s0,.8,0,.9a13.42,13.42,0,0,1-.24,2.9c-1.07,4.45-5.3,7.29-9.28,8.93a6.93,6.93,0,0,0-1.54.77l0,0c-.15.36-.31.72-.46,1.07a11.1,11.1,0,0,1-.63,1.24c.29-.47.19-.59,0,0a7.86,7.86,0,0,1-1.51,3.08c-2.24,2.43-5,1.91-7.14.19l-.17.14c-.29.23-.57.44-.86.65.26,1.33,1,4.42,3.48,4.24,4.27-.3,6.17-4.76,6.77-7.46s6.28-2.79,7.61-4.27S237.09,351.3,233.34,343.82Z"/><path class="cls-10" d="M299.89,283.3c2.05,1.18,5.27,2.46,1.62-3.66-.23-.4-.44-.76-.62-1.11-.54,1.42-1.37,2.72-2,4.11-.21.55-.25.66-.13.31-.12.36-.25.72-.38,1.08a10.23,10.23,0,0,1-.52,1.29,9.69,9.69,0,0,1-2.09,2.7l-.79.69-.44.4a4.43,4.43,0,0,1-4.89,2.7,7.57,7.57,0,0,1-1-.27,4.34,4.34,0,0,1-2-.89h-.34l-.44,0c-.36,0-.71.06-1.07.11l-.64.09a3.8,3.8,0,0,1-.49.41l-.11.07-.09.19c-.24.49-.45,1-.72,1.47a6.53,6.53,0,0,1-3.54,3.2,5.76,5.76,0,0,1-4.61-.68l-.75-.41-.36-.13-.83-.23-.4-.09a3,3,0,0,1,.06.5c.08.23.14.46.21.7a4,4,0,0,1,.22,5.77,12.11,12.11,0,0,1-2.09,1.76c-.3.21-.61.41-.92.61-.08.06-.11.07-.13.07l-.16.19a4.4,4.4,0,0,1-2.05,1.23,5.91,5.91,0,0,1-.62,2.34c-.94,1.87-2.79,2.61-4.35,3.83a8.6,8.6,0,0,1-5.19,2.22s-.78,0-1.43-.06a5.31,5.31,0,0,1-1.47,1.19,10.14,10.14,0,0,1,.51,1.33,7.61,7.61,0,0,1-1.17,6.86c-1.38,1.82-3.47,2.62-5.35,3.79,0,0-.64.43-.71.46-.25.21-.24.36-.48,1,.27-.71-.1.39-.15.54-.18.6-.37,1.18-.58,1.77-1,2.82-2.86,4.33-5.58,5.44-.16.07-1.63.76-.83.31a3.35,3.35,0,0,1-.44.19l.11,0-.1.11c-.06.15-.11.26-.14.32l-.12.6c-.73,3.12-3.61,5.38-6.73,4.11.69,1.16,1.61,2.82,1.61,2.82s4.07,2.1,5.47-6.05c0,0,10.09-4.12,8.48-9.34,0,0,11.94-8.85,7.65-13.24,0,0,6.21,1.35,7.8-3.74,0,0,6.49-1.93,5.75-6.31,0,0,8.67-5.82,5.73-8s1.05-1.15,1.05-1.15,4.57,4.62,5.85-.4,4.26-3.78,5.48-4.18,4.86,3.47,7.39-.24,1.42,2.12,2.53-3.71S305.71,288.85,299.89,283.3Z"/><g class="cls-11"><path class="cls-12" d="M184.58,271.57c12.31-6.22,28.57-12.36,47.16-28.21A153,153,0,0,0,244,231.63s11-13.25,20.49-9.87S286.75,234,290,230.14s12.79,9.72,12.79,9.72-18.1,9-20.78,14.84S252.13,285,249.1,285,226.7,292.2,224,300.6s-21.55,22.84-26.11,23.86-28.72,10.18-33,22.24a3,3,0,0,1-1.42,1.77c-5.38,2.49-23.6-17-27-39.13-.06-.43-.11-.78-.13-.94C154.82,288.73,172.09,277.87,184.58,271.57Z"/><path class="cls-12" d="M140.33,310C156,291.36,170.64,282.58,181.49,278c7.92-3.34,25.38-9.3,43.22-25l1.43-1.28c8.15-7.16,13.8-12.18,16.8-14.85,8.55-7.62,14.77-16.34,19-11.68,2.77,3.07,8.2,1.64,8.2,1.64a308.4,308.4,0,0,0-33.46,23.81c-9.54,7.78-7.5,7.06-13.48,11.64-18.72,14.34-34.8,18.47-55.77,31.43a57,57,0,0,0-10,7.33c-3.69,3.48-10.34,9.76-11.55,12.92a1.17,1.17,0,0,1-.58.7C144.19,315.07,142.11,312.54,140.33,310Z"/><path class="cls-12" d="M154.45,328.29c15.65-18.59,30.31-27.37,41.16-31.94,7.92-3.34,25.38-9.3,43.22-25,.61-.53,1.1-1,1.43-1.28,8.15-7.16,13.8-12.18,16.8-14.85,8.55-7.62,14.77-16.34,19-11.68,2.77,3.07,8.21,1.64,8.21,1.64A307.36,307.36,0,0,0,250.77,269c-9.53,7.78-7.5,7.06-13.48,11.64-18.72,14.34-34.79,18.47-55.76,31.43a56.69,56.69,0,0,0-10,7.33c-3.69,3.48-10.34,9.76-11.55,12.92a1.17,1.17,0,0,1-.58.7C158.31,333.41,156.23,330.88,154.45,328.29Z"/></g><g class="cls-11"><path class="cls-12" d="M139.34,212c12.31-6.22,28.57-12.35,47.16-28.21a151.49,151.49,0,0,0,12.29-11.72s11-13.26,20.49-9.87,22.23,12.23,25.48,8.38,12.79,9.71,12.79,9.71-18.1,9-20.78,14.85-29.88,30.29-32.91,30.25-22.4,7.24-25.12,15.65-21.55,22.84-26.11,23.85-28.72,10.19-33,22.25a3,3,0,0,1-1.42,1.76c-5.38,2.5-23.6-16.95-27-39.12-.06-.44-.11-.78-.13-.94C109.58,229.18,126.85,218.32,139.34,212Z"/><path class="cls-12" d="M95.09,250.41c15.65-18.6,30.31-27.38,41.16-31.95,7.92-3.33,25.38-9.3,43.22-25l1.43-1.27c8.15-7.17,13.8-12.19,16.8-14.86,8.55-7.61,14.77-16.33,19-11.67,2.77,3.07,8.2,1.63,8.2,1.63a308.4,308.4,0,0,0-33.46,23.81c-9.54,7.79-7.5,7.06-13.48,11.65-18.72,14.34-34.8,18.47-55.77,31.43a57.47,57.47,0,0,0-10,7.32c-3.69,3.49-10.34,9.77-11.55,12.93a1.23,1.23,0,0,1-.58.7C99,255.53,96.87,253,95.09,250.41Z"/><path class="cls-12" d="M109.21,268.75c15.65-18.6,30.31-27.38,41.16-31.95,7.92-3.33,25.38-9.3,43.22-25,.61-.53,1.1-1,1.43-1.27,8.15-7.17,13.8-12.19,16.8-14.86,8.55-7.61,14.77-16.33,19-11.68,2.77,3.08,8.21,1.64,8.21,1.64a307.36,307.36,0,0,0-33.47,23.81c-9.53,7.79-7.49,7.06-13.48,11.65-18.72,14.34-34.79,18.47-55.76,31.43a56.7,56.7,0,0,0-10,7.32c-3.69,3.49-10.34,9.77-11.55,12.93a1.23,1.23,0,0,1-.58.7C113.07,273.87,111,271.33,109.21,268.75Z"/></g><path class="cls-13" d="M183.38,263.36c12.31-6.21,28.58-12.35,47.17-28.21a151.49,151.49,0,0,0,12.29-11.72s11-13.26,20.49-9.87,22.22,12.23,25.47,8.38,12.79,9.71,12.79,9.71-18.1,9-20.78,14.85-29.88,30.29-32.91,30.25S225.5,284,222.78,292.4s-21.55,22.84-26.11,23.85-28.72,10.19-33,22.25a2.92,2.92,0,0,1-1.42,1.76c-5.37,2.5-23.6-16.95-27-39.12-.07-.44-.12-.78-.14-.94C153.62,280.52,170.89,269.67,183.38,263.36Z"/><path class="cls-3" d="M139.13,301.75c15.65-18.59,30.31-27.38,41.16-31.95,7.93-3.33,25.38-9.3,43.23-25l1.42-1.27c8.15-7.17,13.8-12.19,16.8-14.86,8.56-7.61,14.78-16.33,19-11.67,2.77,3.07,8.2,1.63,8.2,1.63a307.42,307.42,0,0,0-33.46,23.81c-9.54,7.79-7.5,7.06-13.49,11.65-18.71,14.34-34.79,18.47-55.76,31.43a57.21,57.21,0,0,0-10,7.32c-3.69,3.49-10.34,9.77-11.55,12.93a1.16,1.16,0,0,1-.57.7C143,306.87,140.92,304.33,139.13,301.75Z"/><path class="cls-3" d="M153.25,320.09c15.65-18.6,30.31-27.38,41.16-31.95,7.93-3.33,25.38-9.3,43.23-25l1.42-1.27c8.15-7.17,13.81-12.19,16.81-14.86,8.55-7.61,14.77-16.33,19-11.67,2.77,3.07,8.2,1.63,8.2,1.63a307.42,307.42,0,0,0-33.46,23.81c-9.54,7.79-7.5,7.06-13.49,11.65-18.71,14.34-34.79,18.47-55.76,31.43a56.58,56.58,0,0,0-10,7.32c-3.7,3.49-10.35,9.77-11.56,12.93a1.16,1.16,0,0,1-.57.7C157.11,325.21,155,322.67,153.25,320.09Z"/><path class="cls-13" d="M136.58,206.18c12.31-6.22,28.58-12.35,47.17-28.21A155,155,0,0,0,196,166.25s11-13.26,20.49-9.88,22.22,12.23,25.47,8.39,12.79,9.71,12.79,9.71-18.1,9-20.78,14.84-29.88,30.3-32.91,30.26-22.4,7.24-25.12,15.64-21.55,22.85-26.11,23.86-28.72,10.19-33,22.24a2.93,2.93,0,0,1-1.42,1.77c-5.37,2.5-23.6-16.95-27-39.12-.07-.44-.12-.79-.14-.94C106.82,223.34,124.09,212.48,136.58,206.18Z"/><path class="cls-3" d="M92.33,244.57c15.65-18.6,30.31-27.38,41.16-31.95,7.93-3.34,25.38-9.3,43.22-25,.61-.53,1.1-1,1.43-1.28,8.15-7.16,13.8-12.18,16.8-14.85,8.56-7.61,14.78-16.34,19-11.68,2.77,3.07,8.2,1.64,8.2,1.64a308.34,308.34,0,0,0-33.47,23.81c-9.53,7.78-7.49,7.06-13.48,11.65-18.71,14.34-34.79,18.47-55.76,31.43a56.2,56.2,0,0,0-10,7.32c-3.69,3.49-10.34,9.77-11.55,12.92a1.1,1.1,0,0,1-.58.7C96.19,249.69,94.12,247.15,92.33,244.57Z"/><path class="cls-3" d="M106.45,262.91c15.65-18.6,30.31-27.38,41.16-32,7.93-3.34,25.38-9.3,43.23-25,.6-.53,1.09-1,1.42-1.28,8.15-7.16,13.8-12.18,16.8-14.85,8.56-7.62,14.78-16.34,19-11.68,2.77,3.07,8.2,1.64,8.2,1.64a307.42,307.42,0,0,0-33.46,23.81c-9.54,7.78-7.5,7.06-13.49,11.64-18.71,14.35-34.79,18.47-55.76,31.44a56.2,56.2,0,0,0-10,7.32c-3.69,3.49-10.34,9.77-11.55,12.92a1.11,1.11,0,0,1-.57.7C110.31,268,108.24,265.49,106.45,262.91Z"/><g class="cls-14"><path class="cls-15" d="M182.05,205.41s25.23-20.56,35.41-40.47,37.45-35.76,37.45-35.76c12.52,10.95,23.38,21.55,21.56,24.23a1,1,0,0,1-.36.33c-12.86,7.54-23.18,18.74-35.23,27.51-25.71,18.7-24.46,43.87-37.81,44.07C198.05,225.4,190.89,221.94,182.05,205.41Z"/><path class="cls-16" d="M194.44,205.54s26.63-24.66,27.67-27.38S242.46,141,251.44,141"/><path class="cls-16" d="M200.9,211.25c14.31-10.4,22.56-20.8,27.5-28.59,3.63-5.71,6.37-11.42,12.83-19.4a110.05,110.05,0,0,1,16.67-16.57"/><path class="cls-17" d="M183.56,204.94a82.87,82.87,0,0,0,22.49-21.11c7.56-10.46,6-13.61,15-25.31a113.47,113.47,0,0,1,21.07-20.82,110.71,110.71,0,0,1,10.76-7.25"/><path class="cls-17" d="M187.34,211.41a93.42,93.42,0,0,0,18.91-15.94,75.93,75.93,0,0,0,11.43-16.3c1.15-2.3,2.17-4.67,3.36-6.95a65.58,65.58,0,0,1,5.58-8.76l.87-1.15c.46-.62-1.44,1.84-.77,1l.83-1.06c.72-.89,1.45-1.77,2.2-2.64q3.1-3.63,6.52-7c1.55-1.52,3.13-3,4.76-4.42.91-.81,1.84-1.6,2.78-2.38.48-.4,1-.8,1.47-1.19l.75-.6c.78-.62-1.16.88-.35.27a122.84,122.84,0,0,1,10.95-7.4c3.37-2,4.9-6.84,2.69-10.26A7.63,7.63,0,0,0,249.06,124a119.37,119.37,0,0,0-32.69,28.4,91.22,91.22,0,0,0-6.6,9.28,80.79,80.79,0,0,0-3.76,7.28,68.67,68.67,0,0,1-3.92,7.39q-1.38,2.19-2.91,4.27l-.58.77-.26.34c-.5.67,1.17-1.49.64-.83s-.94,1.19-1.43,1.78a80,80,0,0,1-7.68,8c-.8.73-1.61,1.44-2.43,2.14l-1.29,1.07c-.22.17-1.77,1.4-.76.62s.25-.19.06-.05l-.89.67-1.47,1.06c-1.09.78-2.2,1.52-3.32,2.25-3.28,2.14-5,6.75-2.69,10.26,2.12,3.28,6.74,5,10.26,2.69Z"/><path class="cls-17" d="M273.43,152.31a338.46,338.46,0,0,1-31.69,26.79,65.54,65.54,0,0,0-13,11.63,111,111,0,0,0-10.15,15c-2.66,4.75-3.5,7.65-6.85,11.15a28.27,28.27,0,0,1-7.65,5.65"/><path class="cls-17" d="M268.13,147c-5.69,5.34-11.49,10.56-17.46,15.57q-3.42,2.88-6.93,5.66c-.49.39-1,.78-1.48,1.16-.28.22-1.28,1-.11.09s.18-.14-.1.07c-.93.71-1.86,1.42-2.8,2.12-5.66,4.19-11.25,8.32-15.8,13.76a108.76,108.76,0,0,0-11.18,16.23c-1.67,3-3,6.16-4.94,8.94-.91,1.29,1.09-1.3,0-.07-.35.41-.72.81-1.1,1.2s-.76.76-1.15,1.12a5.66,5.66,0,0,1-1.32,1.13s1.53-1.13.54-.43c-.21.15-.42.31-.63.45-.4.28-.81.55-1.22.81-.71.44-1.44.84-2.19,1.22a7.57,7.57,0,0,0-2.69,10.27A7.69,7.69,0,0,0,207.89,229a34.18,34.18,0,0,0,9.71-7.42,43.92,43.92,0,0,0,6.16-9.61,101.8,101.8,0,0,1,9.11-14.45l.38-.51c.48-.65-.57.75-.52.68.28-.41.61-.78.92-1.16q1-1.26,2.13-2.46c1.34-1.46,2.76-2.85,4.24-4.17.61-.54,1.23-1.06,1.85-1.57l1-.77c1.21-1-1.43,1.07-.22.16l3.09-2.27q6.95-5.08,13.57-10.59c6.69-5.52,13.14-11.31,19.47-17.24a7.57,7.57,0,0,0,0-10.61,7.67,7.67,0,0,0-10.61,0Z"/></g><path class="cls-18" d="M179.87,198.9s25.24-20.55,35.42-40.46,37.44-35.76,37.44-35.76c12.53,10.95,23.38,21.54,21.57,24.22a1,1,0,0,1-.37.34c-12.85,7.53-23.18,18.74-35.23,27.51-25.71,18.7-24.46,43.87-37.8,44.07C195.88,218.89,188.71,215.44,179.87,198.9Z"/><path class="cls-19" d="M192.27,199s26.63-24.67,27.66-27.38,20.36-37.17,29.34-37.18"/><path class="cls-19" d="M198.73,204.75c14.31-10.4,22.56-20.8,27.5-28.59,3.62-5.71,6.36-11.42,12.82-19.4a108.63,108.63,0,0,1,16.68-16.57"/><g class="cls-20"><path class="cls-21" d="M209.8,217.28l-4.37-34.56c-.51-4-3.09-7.5-7.5-7.5-3.66,0-8,3.45-7.5,7.5l4.37,34.56c.51,4,3.08,7.5,7.5,7.5,3.66,0,8-3.46,7.5-7.5Z"/></g><g class="cls-20"><path class="cls-21" d="M219.08,205.75l-.37-44.24c-.08-9.64-15.08-9.67-15,0l.37,44.24c.08,9.65,15.08,9.67,15,0Z"/></g><g class="cls-20"><path class="cls-21" d="M233.33,185.86l.62-45.19c.13-9.65-14.87-9.66-15,0l-.62,45.19c-.14,9.66,14.86,9.66,15,0Z"/></g><g class="cls-20"><path class="cls-21" d="M249.27,171.45,248,129.86c-.28-9.63-15.28-9.67-15,0l1.23,41.59c.28,9.63,15.28,9.67,15,0Z"/></g><g class="cls-20"><path class="cls-21" d="M261.86,161.17l-3.69-37.23c-.4-4-3.16-7.5-7.5-7.5-3.74,0-7.9,3.45-7.5,7.5l3.69,37.23c.4,4,3.16,7.5,7.5,7.5,3.75,0,7.91-3.44,7.5-7.5Z"/></g><path class="cls-22" d="M183.17,203.91a103.33,103.33,0,0,0,19.9-16.58A79.24,79.24,0,0,0,215,170.85c1.21-2.31,2.29-4.69,3.55-7,.77-1.39,1.59-2.76,2.47-4.09.49-.74,1-1.47,1.52-2.2.33-.46.67-.91,1-1.36l.4-.54c.55-.74-1.19,1.51-.17.22A120.94,120.94,0,0,1,234.7,144c1.72-1.64,3.48-3.25,5.29-4.8.93-.79,1.87-1.58,2.82-2.35l1.49-1.19c1-.81-.28.17-.36.28a5.14,5.14,0,0,1,1-.74A129.85,129.85,0,0,1,256,127.69c3.36-2,4.9-6.83,2.69-10.26a7.63,7.63,0,0,0-10.26-2.69A131.37,131.37,0,0,0,214.3,143.9a87.66,87.66,0,0,0-10.9,16.68,71.86,71.86,0,0,1-4.09,7.39c-1,1.54-2.07,3-3.16,4.48-.45.6.92-1.18.75-1s-.23.29-.34.44l-.63.78q-.7.88-1.44,1.74a86.92,86.92,0,0,1-8.27,8.46c-.81.73-1.63,1.43-2.46,2.13l-1.48,1.21-.51.4c-.91.72-.14.16.31-.23A58.52,58.52,0,0,1,175.6,191c-3.29,2.14-5,6.74-2.7,10.26,2.12,3.28,6.75,5,10.27,2.69Z"/><path class="cls-22" d="M268.88,139.53c-5.95,5.53-12,10.95-18.25,16.16q-3.54,3-7.18,5.83l-1.59,1.23c-.2.16,1.57-1.21,1-.74l-.43.33-.85.65-2.8,2.1c-5.89,4.34-11.7,8.61-16.45,14.24a113.45,113.45,0,0,0-11.64,16.79c-1.78,3.11-3.23,6.36-5.23,9.33-.44.65.71-1,.63-.81a4.39,4.39,0,0,1-.58.71c-.35.41-.72.8-1.09,1.18s-.87.86-1.33,1.27l-.49.44c-.15.12-1.29,1-.23.21s-.38.27-.69.48-.81.55-1.22.8c-.76.47-1.54.91-2.33,1.31a7.55,7.55,0,0,0-2.69,10.26,7.67,7.67,0,0,0,10.26,2.7,35.6,35.6,0,0,0,10-7.61,45,45,0,0,0,6.38-9.88,106.12,106.12,0,0,1,9.49-14.93l.39-.51c-1.2,1.63-.68.86-.39.51l.93-1.16c.74-.89,1.51-1.77,2.3-2.62,1.39-1.49,2.85-2.92,4.38-4.27.61-.53,1.23-1.05,1.85-1.56.36-.3.73-.59,1.09-.87s.76-.59-.23.17-.19.16,0,0c1.05-.8,2.13-1.57,3.2-2.34,4.82-3.51,9.52-7.19,14.12-11,6.95-5.71,13.67-11.7,20.25-17.83a7.54,7.54,0,0,0,0-10.6,7.65,7.65,0,0,0-10.6,0Z"/><g class="cls-14"><path class="cls-15" d="M119.38,209.13s25.24-20.55,35.42-40.46,37.45-35.76,37.45-35.76c12.52,11,23.38,21.54,21.56,24.22a1,1,0,0,1-.36.34C200.59,165,190.27,176.21,178.22,185c-25.71,18.7-24.46,43.87-37.81,44.07C135.39,229.12,128.23,225.67,119.38,209.13Z"/><path class="cls-16" d="M131.78,209.27s26.63-24.67,27.67-27.38,20.35-37.17,29.33-37.18"/><path class="cls-16" d="M138.24,215c14.31-10.4,22.56-20.8,27.5-28.59,3.63-5.71,6.37-11.42,12.83-19.4a109.1,109.1,0,0,1,16.67-16.57"/><path class="cls-17" d="M120.9,208.66a82.57,82.57,0,0,0,22.49-21.11c7.56-10.45,6-13.6,15-25.3a114.25,114.25,0,0,1,21.08-20.83,110.71,110.71,0,0,1,10.76-7.25"/><path class="cls-17" d="M124.68,215.14a93.75,93.75,0,0,0,18.91-15.94A75.93,75.93,0,0,0,155,182.9c1.15-2.3,2.17-4.67,3.36-7a65.58,65.58,0,0,1,5.58-8.76l.87-1.16c.46-.61-1.44,1.85-.77,1l.83-1.05c.72-.89,1.45-1.77,2.2-2.64q3.1-3.63,6.52-7c1.55-1.52,3.13-3,4.76-4.43.91-.8,1.84-1.59,2.78-2.37.48-.4,1-.8,1.47-1.19l.75-.6c.78-.63-1.16.87-.35.27a122.84,122.84,0,0,1,10.95-7.4c3.37-2,4.9-6.84,2.69-10.26a7.62,7.62,0,0,0-10.26-2.69,119.2,119.2,0,0,0-32.69,28.4,89.69,89.69,0,0,0-6.6,9.28,79.47,79.47,0,0,0-3.76,7.28,68.67,68.67,0,0,1-3.92,7.39q-1.38,2.19-2.91,4.26l-.58.78-.26.34c-.5.67,1.17-1.49.64-.83s-.94,1.19-1.43,1.78a80,80,0,0,1-7.68,8.05q-1.2,1.09-2.43,2.13c-.43.37-.86.72-1.29,1.08-.22.17-1.77,1.39-.76.62s.25-.2.06-.06l-.89.67-1.47,1.07c-1.09.77-2.2,1.52-3.32,2.25-3.28,2.13-5,6.74-2.69,10.26,2.12,3.28,6.74,5,10.26,2.69Z"/><path class="cls-17" d="M210.77,156a336.87,336.87,0,0,1-31.69,26.79,66,66,0,0,0-13,11.64,111.21,111.21,0,0,0-10.15,15c-2.66,4.76-3.5,7.66-6.85,11.16a28.48,28.48,0,0,1-7.65,5.65"/><path class="cls-17" d="M205.47,150.73C199.78,156.06,194,161.28,188,166.3q-3.42,2.88-6.93,5.66l-1.48,1.16c-.28.22-1.28,1-.11.09s.18-.14-.1.07c-.93.71-1.86,1.42-2.8,2.11-5.66,4.2-11.25,8.33-15.8,13.77a108.76,108.76,0,0,0-11.18,16.23c-1.67,3-3,6.16-4.94,8.94-.91,1.28,1.09-1.31.05-.08-.35.42-.72.82-1.1,1.21s-.76.76-1.15,1.12a5.66,5.66,0,0,1-1.32,1.13s1.53-1.13.54-.43l-.63.45c-.4.28-.81.55-1.22.8q-1.07.66-2.19,1.23A7.56,7.56,0,0,0,135,230a7.67,7.67,0,0,0,10.27,2.69,34,34,0,0,0,9.71-7.41,43.92,43.92,0,0,0,6.16-9.61,102.46,102.46,0,0,1,9.11-14.46c.12-.17.25-.33.38-.5.48-.65-.57.74-.53.67.29-.4.62-.77.93-1.15q1-1.26,2.13-2.46c1.34-1.46,2.76-2.85,4.24-4.17.61-.54,1.23-1.06,1.85-1.58l1-.76c1.21-1-1.43,1.07-.22.16,1-.77,2.06-1.52,3.09-2.27,4.63-3.39,9.15-6.94,13.57-10.59,6.69-5.53,13.14-11.31,19.47-17.24a7.57,7.57,0,0,0,0-10.61,7.66,7.66,0,0,0-10.61,0Z"/></g><path class="cls-18" d="M117.21,202.63s25.24-20.55,35.42-40.46,37.44-35.76,37.44-35.76c12.53,11,23.38,21.54,21.57,24.22a1.14,1.14,0,0,1-.37.34c-12.85,7.53-23.18,18.74-35.23,27.5-25.71,18.71-24.46,43.87-37.8,44.07C133.22,222.62,126.05,219.16,117.21,202.63Z"/><path class="cls-19" d="M129.61,202.77s26.63-24.67,27.66-27.39,20.36-37.16,29.34-37.17"/><path class="cls-19" d="M136.07,208.48c14.31-10.41,22.56-20.8,27.5-28.59,3.62-5.71,6.36-11.43,12.82-19.41a109,109,0,0,1,16.68-16.56"/><g class="cls-20"><path class="cls-21" d="M147.14,221l-4.37-34.55c-.51-4-3.09-7.5-7.5-7.5-3.66,0-8,3.45-7.5,7.5L132.14,221c.51,4,3.08,7.5,7.5,7.5,3.66,0,8-3.45,7.5-7.5Z"/></g><g class="cls-20"><path class="cls-21" d="M156.42,209.48l-.37-44.24c-.08-9.65-15.08-9.67-15,0l.37,44.24c.08,9.64,15.08,9.67,15,0Z"/></g><g class="cls-20"><path class="cls-21" d="M170.67,189.59l.62-45.19c.13-9.65-14.87-9.66-15,0l-.62,45.19c-.14,9.65,14.86,9.66,15,0Z"/></g><g class="cls-20"><path class="cls-21" d="M186.61,175.18l-1.23-41.59c-.28-9.63-15.28-9.67-15,0l1.23,41.59c.28,9.63,15.28,9.67,15,0Z"/></g><g class="cls-20"><path class="cls-21" d="M199.2,164.9l-3.69-37.23c-.4-4-3.16-7.5-7.5-7.5-3.74,0-7.9,3.44-7.5,7.5l3.69,37.23c.4,4,3.16,7.5,7.5,7.5,3.75,0,7.9-3.45,7.5-7.5Z"/></g><path class="cls-22" d="M120.51,207.64a103.33,103.33,0,0,0,19.9-16.58,79.51,79.51,0,0,0,11.93-16.48c1.21-2.32,2.29-4.69,3.55-7q1.16-2.1,2.47-4.09c.49-.74,1-1.48,1.52-2.2.33-.46.67-.91,1-1.36l.41-.54c.55-.74-1.19,1.51-.17.22A119.82,119.82,0,0,1,172,147.69q2.58-2.48,5.29-4.8c.93-.8,1.87-1.58,2.82-2.35l1.49-1.19c1-.81-.28.17-.36.28a4.76,4.76,0,0,1,1-.74,125.34,125.34,0,0,1,11.11-7.47c3.36-2,4.9-6.83,2.69-10.26a7.62,7.62,0,0,0-10.26-2.69,131.37,131.37,0,0,0-34.16,29.16,87,87,0,0,0-10.9,16.68,71.86,71.86,0,0,1-4.09,7.39c-1,1.54-2.07,3-3.16,4.47-.45.61.92-1.17.75-1s-.23.29-.34.44l-.63.78q-.71.89-1.44,1.74a88.06,88.06,0,0,1-8.27,8.46q-1.22,1.08-2.46,2.13c-.49.4-1,.81-1.48,1.2l-.51.41c-.91.71-.14.15.31-.24a57.3,57.3,0,0,1-6.48,4.57c-3.29,2.14-5,6.74-2.7,10.26,2.12,3.28,6.75,5,10.27,2.69Z"/><path class="cls-22" d="M206.22,143.25c-5.95,5.54-12,11-18.25,16.17-2.36,2-4.76,3.92-7.18,5.82l-1.59,1.24,1-.75-.43.34-.85.65-2.8,2.1c-5.89,4.34-11.7,8.61-16.45,14.24A112.93,112.93,0,0,0,148,199.85c-1.78,3.11-3.23,6.36-5.23,9.33-.44.65.71-1,.63-.81a4.87,4.87,0,0,1-.58.71c-.35.4-.72.8-1.09,1.18s-.87.86-1.33,1.27l-.49.43c-.15.13-1.29,1-.23.22s-.38.27-.69.48-.81.54-1.22.8c-.76.47-1.54.9-2.33,1.31A7.55,7.55,0,0,0,132.75,225,7.67,7.67,0,0,0,143,227.72a35.23,35.23,0,0,0,10-7.61,44.93,44.93,0,0,0,6.38-9.87,106.22,106.22,0,0,1,9.49-14.94l.39-.5c-1.2,1.62-.68.86-.39.51l.93-1.16c.74-.89,1.51-1.77,2.3-2.62a60.84,60.84,0,0,1,4.38-4.27c.61-.53,1.23-1.06,1.85-1.57l1.09-.87c.22-.17.76-.58-.23.18s-.19.15,0,0c1.05-.8,2.13-1.57,3.2-2.35,4.82-3.5,9.52-7.18,14.12-11,7-5.71,13.67-11.69,20.25-17.82a7.56,7.56,0,0,0,0-10.61,7.65,7.65,0,0,0-10.6,0Z"/><g class="cls-14"><path class="cls-15" d="M166.27,262.85s25.24-20.55,35.42-40.46,37.44-35.76,37.44-35.76c12.53,11,23.39,21.54,21.57,24.22a1,1,0,0,1-.36.34c-12.86,7.53-23.19,18.74-35.23,27.51-25.71,18.7-24.46,43.87-37.81,44.07C182.28,282.84,175.12,279.39,166.27,262.85Z"/><path class="cls-16" d="M178.67,263s26.63-24.67,27.67-27.38,20.35-37.17,29.33-37.18"/><path class="cls-16" d="M185.13,268.7c14.31-10.4,22.56-20.8,27.5-28.59,3.63-5.71,6.37-11.42,12.82-19.4a109.54,109.54,0,0,1,16.68-16.57"/><path class="cls-17" d="M167.79,262.38a82.71,82.71,0,0,0,22.49-21.1c7.55-10.46,6-13.61,15-25.31a114,114,0,0,1,21.08-20.82,109.27,109.27,0,0,1,10.76-7.26"/><path class="cls-17" d="M171.57,268.86a93.42,93.42,0,0,0,18.91-15.94,75.93,75.93,0,0,0,11.43-16.3c1.15-2.3,2.17-4.67,3.36-7a64.59,64.59,0,0,1,5.58-8.76c.28-.39.58-.77.87-1.16.46-.61-1.44,1.85-.77,1l.83-1.05c.72-.89,1.45-1.77,2.2-2.64q3.11-3.63,6.52-7c1.55-1.52,3.13-3,4.76-4.43.91-.8,1.84-1.59,2.77-2.37.49-.4,1-.8,1.48-1.19l.75-.6c.77-.63-1.16.87-.35.27a122.84,122.84,0,0,1,11-7.4c3.37-2,4.9-6.84,2.69-10.26a7.62,7.62,0,0,0-10.26-2.69,119.05,119.05,0,0,0-32.69,28.4,89.69,89.69,0,0,0-6.6,9.28,79.47,79.47,0,0,0-3.76,7.28,68.75,68.75,0,0,1-3.93,7.39c-.91,1.46-1.89,2.88-2.91,4.26l-.57.78-.26.34c-.51.67,1.17-1.49.64-.83s-.94,1.19-1.43,1.78a80,80,0,0,1-7.68,8.05c-.8.73-1.61,1.44-2.43,2.14l-1.29,1.07c-.22.17-1.77,1.39-.76.62s.25-.2.06,0l-.89.66-1.47,1.07c-1.09.77-2.2,1.52-3.32,2.25-3.29,2.13-5,6.74-2.69,10.26,2.12,3.28,6.74,5,10.26,2.69Z"/><path class="cls-17" d="M257.66,209.76A338.52,338.52,0,0,1,226,236.55a65.82,65.82,0,0,0-13,11.63,111,111,0,0,0-10.15,15c-2.66,4.75-3.5,7.65-6.85,11.15a28.48,28.48,0,0,1-7.65,5.65"/><path class="cls-17" d="M252.36,204.45C246.67,209.78,240.87,215,234.9,220q-3.42,2.88-6.93,5.66l-1.48,1.16c-.28.22-1.28,1-.11.09s.18-.14-.1.07c-.93.71-1.86,1.42-2.8,2.11-5.66,4.2-11.25,8.33-15.8,13.77a108.76,108.76,0,0,0-11.18,16.23c-1.67,2.95-3,6.16-4.94,8.94-.91,1.28,1.09-1.31.05-.08-.35.42-.72.82-1.1,1.21s-.76.76-1.16,1.12a5.41,5.41,0,0,1-1.31,1.13s1.53-1.13.54-.43l-.63.45c-.4.28-.81.55-1.22.8q-1.06.66-2.19,1.23a7.56,7.56,0,0,0-2.69,10.26,7.66,7.66,0,0,0,10.26,2.69,34,34,0,0,0,9.72-7.41,43.51,43.51,0,0,0,6.15-9.61A104.31,104.31,0,0,1,217.09,255l.39-.5c.48-.65-.57.74-.53.68.29-.41.62-.78.93-1.16q1-1.26,2.13-2.46c1.34-1.46,2.76-2.85,4.24-4.17.61-.54,1.23-1.06,1.85-1.58l1-.76c1.21-1-1.43,1.07-.22.16l3.09-2.27c4.63-3.39,9.15-6.94,13.57-10.59,6.69-5.52,13.14-11.31,19.47-17.24a7.57,7.57,0,0,0,0-10.61,7.66,7.66,0,0,0-10.61,0Z"/></g><path class="cls-18" d="M164.1,256.35s25.24-20.55,35.42-40.46S237,180.13,237,180.13c12.53,11,23.38,21.54,21.57,24.22a1.25,1.25,0,0,1-.37.34c-12.85,7.53-23.18,18.74-35.23,27.5-25.71,18.71-24.46,43.87-37.8,44.08C180.11,276.34,172.94,272.88,164.1,256.35Z"/><path class="cls-19" d="M176.5,256.49s26.62-24.67,27.66-27.39,20.36-37.16,29.34-37.17"/><path class="cls-19" d="M183,262.2c14.31-10.41,22.56-20.8,27.5-28.59,3.62-5.71,6.36-11.43,12.82-19.4A108.63,108.63,0,0,1,240,197.64"/><g class="cls-20"><path class="cls-21" d="M194,274.72l-4.37-34.55c-.51-4-3.09-7.5-7.5-7.5-3.66,0-8,3.45-7.5,7.5L179,274.72c.51,4,3.08,7.5,7.5,7.5,3.66,0,8-3.45,7.5-7.5Z"/></g><g class="cls-20"><path class="cls-21" d="M203.31,263.2,202.94,219c-.08-9.65-15.08-9.67-15,0l.37,44.24c.08,9.64,15.08,9.67,15,0Z"/></g><g class="cls-20"><path class="cls-21" d="M217.56,243.31l.62-45.19c.13-9.65-14.87-9.66-15,0l-.62,45.19c-.14,9.65,14.86,9.66,15,0Z"/></g><g class="cls-20"><path class="cls-21" d="M233.49,228.9l-1.22-41.59c-.28-9.63-15.28-9.67-15,0l1.22,41.59c.29,9.63,15.29,9.67,15,0Z"/></g><g class="cls-20"><path class="cls-21" d="M246.09,218.62l-3.69-37.23c-.4-4-3.16-7.5-7.5-7.5-3.74,0-7.9,3.45-7.5,7.5l3.69,37.23c.4,4,3.16,7.5,7.5,7.5,3.75,0,7.9-3.45,7.5-7.5Z"/></g><path class="cls-22" d="M167.4,261.36a103.33,103.33,0,0,0,19.9-16.58,79.51,79.51,0,0,0,11.93-16.48c1.21-2.32,2.29-4.69,3.55-7q1.16-2.1,2.47-4.09c.49-.74,1-1.47,1.52-2.2.33-.46.67-.91,1-1.36l.41-.54c.55-.74-1.19,1.51-.17.22a119.82,119.82,0,0,1,10.92-11.94q2.58-2.47,5.29-4.8c.93-.8,1.87-1.58,2.82-2.35l1.49-1.19c1-.81-.28.17-.36.28a4.76,4.76,0,0,1,1-.74,125.34,125.34,0,0,1,11.11-7.47c3.36-2,4.9-6.83,2.69-10.26a7.62,7.62,0,0,0-10.26-2.69,131.2,131.2,0,0,0-34.16,29.16A87,87,0,0,0,187.63,218a73.81,73.81,0,0,1-4.09,7.39c-1,1.54-2.07,3-3.17,4.47-.45.61.93-1.17.76-1s-.23.29-.34.44l-.63.78q-.71.88-1.44,1.74a88.06,88.06,0,0,1-8.27,8.46q-1.22,1.08-2.46,2.13c-.49.4-1,.81-1.48,1.2l-.51.41c-.91.71-.14.15.31-.24a56.53,56.53,0,0,1-6.49,4.57c-3.28,2.14-4.95,6.74-2.69,10.26,2.12,3.28,6.75,5,10.27,2.69Z"/><path class="cls-22" d="M253.11,197c-6,5.54-12,11-18.25,16.17-2.36,2-4.76,3.92-7.18,5.82l-1.59,1.24,1-.75-.43.34c-.29.21-.57.43-.85.65l-2.8,2.1c-5.89,4.34-11.7,8.61-16.45,14.24a112.18,112.18,0,0,0-11.64,16.79c-1.78,3.11-3.23,6.36-5.23,9.33-.44.65.71-1,.63-.81a4.87,4.87,0,0,1-.58.71c-.35.4-.72.8-1.09,1.18s-.87.86-1.33,1.27l-.5.43c-.14.13-1.28,1-.22.22s-.38.27-.69.48-.81.54-1.23.8c-.75.47-1.53.9-2.32,1.31a7.55,7.55,0,0,0-2.69,10.26,7.67,7.67,0,0,0,10.26,2.69,35.38,35.38,0,0,0,10-7.6,45.23,45.23,0,0,0,6.38-9.88A106.8,106.8,0,0,1,215.8,249l.39-.5c-1.2,1.62-.68.86-.39.51l.93-1.16c.74-.89,1.51-1.77,2.3-2.62a60.84,60.84,0,0,1,4.38-4.27c.61-.53,1.23-1.06,1.85-1.57l1.09-.87c.22-.17.76-.58-.23.18s-.19.15,0,0c1.05-.8,2.13-1.57,3.2-2.35,4.82-3.5,9.52-7.18,14.12-11,6.95-5.72,13.67-11.7,20.25-17.83a7.57,7.57,0,0,0,0-10.61,7.65,7.65,0,0,0-10.6,0Z"/><path class="cls-1" d="M96.14,87.49C101,84.7,134.28,62.72,181.8,31.13a13,13,0,0,1-.13-9c2.21-5.82,8.72-8.39,13.3-8.5,6.88-.15,11.92,5.21,16.42,10.21,18.58,20.63,27.36,33.6,27.36,33.6,11.15,16.46,17.57,26.66,24.32,39.75,8.31,16.12,10.37,23.53,7.06,29.06-1.89,3.16-6.44,7.24-12.26,7.29a14.13,14.13,0,0,1-8.51-3c-46.85,32.1-79.75,54.83-83.21,57.77a6.81,6.81,0,0,1-4.58,1.8c-4.2-.23-7.08-6.47-7.19-6.39s1.73,2.53,1.63,2.62c-.49.42-47.33-67.28-57.67-84.57-2-3.35-5.82-10.13-3.35-13.35A3.64,3.64,0,0,1,96.14,87.49Z"/><path class="cls-2" d="M98.31,91.68a11.32,11.32,0,0,1-.69-5.76,11.43,11.43,0,0,1,2-4.58A15.61,15.61,0,0,1,102,78.87l.21-.18c2.55-2.06,8.59-5.68,8.59-5.68,5.24-3.14,6.63-4.36,12-7.24h0c1-.55-.21.09,14.88-9.72,12.19-7.92,20.37-13.13,25.63-16.76.56-.38,1.77-1.22,3.46-2.32,1.21-.78,3.81-2.46,6.91-4.2,1.29-.73,2.53-1.53,3.82-2.24a11.51,11.51,0,0,0,1.28-.79,5,5,0,0,0,1.48-1.27c.48-.73.23-1.37.25-2.71a11.15,11.15,0,0,1,.45-3.05,28.39,28.39,0,0,1,3.56-6.42,19,19,0,0,1,3.84-4.16c3.87-2.92,8.49-2.79,10-2.74,8,.24,14.47,8,19.06,13.56,7.34,9,15.92,19.88,25.22,32.73,4.79,7.65,8.75,14.25,11.78,19.39.82,1.41,4.07,7.44,10.56,19.51a50.18,50.18,0,0,1,4.81,12,24,24,0,0,1,1.09,6.13c0,7.14-5.6,16.34-14.28,17.79a16.74,16.74,0,0,1-10.83-2.16c-10.33,6.84-18.16,12.12-23.49,15.73-2.85,1.93-4.75,3.23-8.21,5.55-9,6-10,6.53-15.92,10.59-6.12,4.17-5.85,4.16-11.6,8-8.67,5.82-7.55,4.67-10.87,7.15-2.87,2.15-6,3.87-9,5.88-1.46,1-2.9,2-4.78,1.88-2.45-.11-4.21-2-5.06-2.9-6.35-6.92-13.19-17.82-15.15-20.89-2.69-4.2-1.85-2.51-7.33-10.7-4.63-6.92-6.39-9.86-10.37-16-3.31-5.11-6.3-9.57-12.38-18.41-3.9-5.68-7.14-11.78-10.94-17.52A20.65,20.65,0,0,1,98.31,91.68Z"/><path class="cls-3" d="M102.17,84.09c1-3.21,3.94-4.92,6-6.09,5.81-3.32,11.72-6.74,18.39-10.56,28.22-17.94,48.69-31,53.56-33.9a11.22,11.22,0,0,0,4.51-4.34c1.5-2.82.33-4.21,1.64-7.6A14.73,14.73,0,0,1,191.67,15a15.19,15.19,0,0,1,7.14-2.79c5.6-.39,9.89,5.72,17.14,15.19,15.47,20.23,15.78,18.35,22.69,29.15,1.42,2.21.64,1.1,10.67,17.43,3.1,5,4.52,7.34,6.61,11a125.51,125.51,0,0,1,8.24,16.43c2.21,5.54,3.31,8.36,3,11.11A15.27,15.27,0,0,1,257.26,125a15.67,15.67,0,0,1-12.62-1.44c-42.13,28.43-73.12,48.91-78.39,51.78a8,8,0,0,1-4.6,1.08c-4.47-.46-7.34-5.49-8.27-7.07-7.55-13-16.91-24.76-25.23-37.23,0,0-15.91-23.86-24.67-40.43C102.81,90.45,101.21,87.33,102.17,84.09Z"/><path class="cls-4" d="M106.6,96.06c7.26-8.7,16.61-14.93,26.73-19.85,4.11-2,8.34-3.76,12.61-5.4,2.13-.82,4.31-1.55,6.38-2.52.06,0,1.33-.69.49-.23s.1,0,.29-.15l1.38-.77c1.06-.61,2.1-1.25,3.13-1.91,4-2.61,7.79-5.58,11.58-8.51s7.44-5.52,11.06-8.42c.89-.72,1.77-1.44,2.63-2.19l.64-.55c.72-.63.1-.06-.14.14a11.74,11.74,0,0,0,1.14-1.09A47.18,47.18,0,0,0,188.7,40c.4-.51.78-1,1.15-1.54l.49-.71c0-.07.17-.25.25-.39l.46-.76c.3-.53.6-1.06.88-1.6.91-1.71,1.63-3.52,2.59-5.19a17.94,17.94,0,0,1,12.85-8.83,15.18,15.18,0,0,1,3.42-.23c-4.42-5.54-7.84-8.79-12-8.51A15.19,15.19,0,0,0,191.67,15a14.73,14.73,0,0,0-5.41,6.61c-1.31,3.39-.14,4.78-1.64,7.6a11.22,11.22,0,0,1-4.51,4.34c-4.87,2.9-25.34,16-53.56,33.9C119.88,71.26,114,74.68,108.16,78c-2,1.17-5,2.88-6,6.09s.64,6.36,1.31,7.62c.84,1.59,1.74,3.25,2.69,4.94A5.9,5.9,0,0,1,106.6,96.06Z"/><path class="cls-4" d="M186.36,162.35l-.66.61,2.48-1.64C187.58,161.67,187,162,186.36,162.35Z"/><g class="cls-23"><path class="cls-21" d="M215,24.63,189,23c-9.64-.63-9.6,14.38,0,15L215,39.63c9.64.62,9.6-14.38,0-15Z"/></g><g class="cls-23"><path class="cls-21" d="M225.29,38.1,163.1,39.67c-9.63.24-9.67,15.24,0,15l62.19-1.57c9.63-.24,9.67-15.24,0-15Z"/></g><g class="cls-23"><path class="cls-21" d="M234.16,52.56l-79.55-1.08-11.54-.16c-9.66-.13-9.66,14.87,0,15l79.56,1.08,11.53.16c9.66.13,9.66-14.87,0-15Z"/></g><g class="cls-23"><path class="cls-21" d="M241.4,66.39,138.26,63.51l-14.64-.41c-9.65-.27-9.64,14.73,0,15L226.77,81l14.63.41c9.65.27,9.65-14.73,0-15Z"/></g><g class="cls-23"><path class="cls-21" d="M247.13,80.92l-123.34-4.8-17.73-.69c-9.65-.38-9.64,14.62,0,15l123.34,4.8,17.73.69c9.65.37,9.64-14.63,0-15Z"/></g><g class="cls-23"><path class="cls-21" d="M252.83,92.21,128.65,89.65,111,89.29c-9.66-.2-9.65,14.8,0,15l124.18,2.56,17.67.36c9.66.2,9.66-14.8,0-15Z"/></g><g class="cls-23"><path class="cls-21" d="M260.44,106.48l-122.5.24-17.17,0c-9.65,0-9.67,15,0,15l122.51-.24,17.16,0c9.66,0,9.67-15,0-15Z"/></g><g class="cls-23"><path class="cls-21" d="M260.32,119.57l-113.61,3.92-16.14.56c-9.63.33-9.67,15.33,0,15l113.61-3.92,16.14-.56c9.63-.33,9.67-15.33,0-15Z"/></g><g class="cls-23"><path class="cls-21" d="M219.08,135.53l-80.65,4.2c-9.61.5-9.67,15.5,0,15l80.65-4.2c9.61-.49,9.67-15.5,0-15Z"/></g><g class="cls-23"><path class="cls-21" d="M192.82,150.91l-45.41,2.36c-9.6.5-9.66,15.5,0,15l45.41-2.36c9.6-.5,9.66-15.5,0-15Z"/></g></svg>