<svg id="Layer_1" data-name="Layer 1" xmlns="http://www.w3.org/2000/svg" width="400.04" height="400.43" viewBox="0 0 400.04 400.43"><defs><style>.cls-1{fill:#020202;opacity:0.32;}.cls-2{fill:#6d4c16;stroke:#020202;stroke-miterlimit:10;}.cls-3{fill:#e8bf89;}.cls-4{fill:#967753;opacity:0.34;}.cls-5{fill:#e8c724;}.cls-6{opacity:0.23;}.cls-7,.cls-8{fill:#060707;}.cls-11,.cls-8{opacity:0.51;}.cls-9{fill:#f9af1d;}.cls-10{fill:none;}.cls-11{fill:#c68d25;}.cls-12{opacity:0.26;}.cls-13{fill:#161616;}.cls-14{fill:#cf5428;}.cls-15{opacity:0.1;}.cls-16{fill:#3d2b15;}</style></defs><path class="cls-1" d="M118.22,288.82c5.06-3.57,39.52-31.24,88.7-71a14.42,14.42,0,0,1-1.08-9.89c1.84-6.65,8.76-10.15,13.81-10.74,7.57-.87,13.68,4.52,19.16,9.57C261.42,227.64,272.44,241,272.44,241c14,17,22.12,27.6,30.91,41.35,10.82,16.93,13.86,24.89,10.77,31.34-1.76,3.67-6.36,8.64-12.78,9.29a15.65,15.65,0,0,1-9.69-2.39c-48.37,40.23-82.34,68.67-85.85,72.28a7.59,7.59,0,0,1-4.86,2.46c-4.66.17-8.48-6.41-8.59-6.32s2.17,2.62,2.07,2.72c-.5.52-59.13-69.34-72.31-87.35-2.55-3.5-7.45-10.58-5.06-14.39A4.09,4.09,0,0,1,118.22,288.82Z"/><path class="cls-2" d="M121,293.22a12.65,12.65,0,0,1-1.36-6.28,12.8,12.8,0,0,1,1.8-5.27,17.38,17.38,0,0,1,2.35-3l.21-.21c2.6-2.54,8.89-7.16,8.89-7.16,5.46-4,6.86-5.48,12.51-9.21h0c1.08-.72-.23.12,15.41-12.25,12.63-10,21.12-16.57,26.55-21.12.57-.48,1.82-1.53,3.58-2.91,1.25-1,4-3.11,7.19-5.35,1.34-.93,2.63-2,4-2.86a16,16,0,0,0,1.33-1,6,6,0,0,0,1.5-1.54c.45-.87.11-1.54,0-3a12.49,12.49,0,0,1,.19-3.4,31.38,31.38,0,0,1,3.26-7.45,21.17,21.17,0,0,1,3.81-5c4-3.62,9.08-3.94,10.77-4.05,8.82-.55,16.79,7.31,22.42,13,9,9.12,19.6,20.29,31.19,33.51,6.06,7.95,11.1,14.81,15,20.18,1.06,1.46,5.26,7.79,13.66,20.43a55.4,55.4,0,0,1,6.54,12.79c1.11,3.15,1.67,4.72,1.84,6.65.7,7.88-4.5,18.6-13.93,21.1a18.56,18.56,0,0,1-12.17-1.27c-10.69,8.6-18.78,15.23-24.29,19.76-2.94,2.42-4.91,4.06-8.49,7-9.3,7.57-10.33,8.23-16.47,13.31-6.32,5.23-6,5.19-12,10-9,7.32-7.83,5.93-11.24,9-2.95,2.66-6.27,4.89-9.35,7.4-1.51,1.25-3,2.48-5.08,2.57-2.71.13-4.84-1.73-5.88-2.67-7.71-7-16.38-18.3-18.86-21.49-3.39-4.36-2.3-2.58-9.18-11.05-5.82-7.16-8.06-10.22-13.08-16.58-4.18-5.3-7.94-9.91-15.55-19-4.89-5.86-9.09-12.26-13.87-18.2A22.52,22.52,0,0,1,121,293.22Z"/><path class="cls-3" d="M124.52,284.45c.72-3.64,3.84-5.83,6-7.33,6.07-4.26,12.23-8.63,19.2-13.54,29.29-22.68,50.52-39.2,55.59-42.9a12.42,12.42,0,0,0,4.54-5.25c1.36-3.26-.07-4.68,1-8.55a16.37,16.37,0,0,1,5.29-7.85,17,17,0,0,1,7.59-3.8c6.14-1,11.5,5.29,20.46,15,19.15,20.72,19.29,18.62,28,29.82,1.79,2.29.82,1.14,13.57,18.13,3.93,5.25,5.73,7.63,8.42,11.46A139.66,139.66,0,0,1,305,286.9c3,5.88,4.51,8.88,4.44,12a16.92,16.92,0,0,1-9.63,14.81c-6.73,3-13.08.18-14.06-.28-43.55,35.68-75.63,61.46-81.15,65.17a8.8,8.8,0,0,1-5,1.65c-5,0-8.67-5.29-9.85-6.95-9.66-13.51-21.2-25.57-31.66-38.47,0,0-20-24.68-31.37-42C125.87,291.4,123.79,288.12,124.52,284.45Z"/><path class="cls-4" d="M130.63,297.2c7.12-10.35,16.8-18.17,27.45-24.65,4.33-2.63,8.81-5,13.35-7.24,2.27-1.13,4.6-2.15,6.78-3.44.07,0,1.4-.9.52-.3s.1-.07.3-.2c.49-.32,1-.65,1.45-1,1.11-.78,2.19-1.59,3.25-2.43,4.17-3.29,8-7,11.9-10.58S203.28,240.52,207,237c.91-.88,1.8-1.77,2.68-2.68l.64-.68c.73-.76.1-.07-.14.17a13,13,0,0,0,1.14-1.32,51.16,51.16,0,0,0,4.15-5.56c.38-.6.75-1.2,1.1-1.82.16-.27.32-.55.47-.83.05-.08.15-.29.23-.45s.29-.59.43-.89c.28-.61.55-1.23.81-1.85.82-2,1.43-4,2.32-6a19.84,19.84,0,0,1,13.27-11,16.77,16.77,0,0,1,3.75-.61c-5.45-5.65-9.56-8.9-14.09-8.15a17,17,0,0,0-7.59,3.8,16.37,16.37,0,0,0-5.29,7.85c-1.09,3.87.34,5.29-1,8.55a12.42,12.42,0,0,1-4.54,5.25c-5.07,3.7-26.3,20.22-55.59,42.9-7,4.91-13.13,9.28-19.2,13.54-2.14,1.5-5.26,3.69-6,7.33s1.35,6.95,2.22,8.28c1.09,1.66,2.26,3.39,3.48,5.17A6.1,6.1,0,0,1,130.63,297.2Z"/><path class="cls-4" d="M225.42,362.12l-.66.74,2.57-2.05Z"/><path class="cls-5" d="M139.59,296.81s-12.79-13,.26-19.33S161.11,255,161.11,255s15.36-13.88,23.44-12.53,19.62-24,19.62-24,12.9-15.54,15.47-10.09,8.23-18.23,15.39,1,20.36,17.62,23.86,20.06,14.77,15.85,16.89,31.5,9,6.59,9,6.59,7.05-3.07,9.75,10.53,14.83,5.54,4.4,15.14-24.79,10.38-25.46,8.15-7.53-3.1-8.95,8-5.31,17.87-12.77,18.57-21.58,9.49-22.54,17-16.46,27-19.87,24-13,7.28-14.8,4.06,3.43-9.43-7.29-17.3-20.08-8.73-20.72-18.75-2.14-18.16-10.05-20.83-11.1-7.38-10.58-13.94S139.59,296.81,139.59,296.81Z"/><g class="cls-6"><path class="cls-7" d="M91.52,242.62A4.22,4.22,0,0,0,93.43,244a24.23,24.23,0,0,0,6.1.68s-2,2.76-.87,5.58c.41,1.06,1.38,1.54,5,4.13a3.7,3.7,0,0,0,.6.36,5.48,5.48,0,0,0,.6.26c1.1.36,5.13-.58,6.9,1a1.29,1.29,0,0,1,.38.43c.87,1.87-5.22,5.66.46,7.47,6.16,2,5.72,0,8.58,2.6s2.89,1.86,2.22,5.65,6.85,5.6,7.26,5.18,11.79,6.43,8.81,9.65,9.44,10.62,10.05,7.78,8.2,3.58,8.11,6.71,5.87,10.87,9.43,6.63-1.58,9,3.36,10.56,5.9-4.85,9.55-3.82.11,7.56-1.06,8.44,9.92,11.89,10,3.74-.64,2.65,4.09,2.25,6.76-5.38,7.38-8.38,6.91-3.19,8.36-4.85,11-6.3,6.78-14.53.94.88.94.88,4.55,2.25,6-6.8c0,0,11.11-4.71,9.24-10.48,0,0,13.1-10,8.28-14.78,0,0,6.89,1.4,8.57-4.27,0,0,7.16-2.24,6.28-7.08,0,0,9.51-6.58,6.21-9s1.15-1.3,1.15-1.3,5.13,5.06,6.48-.53,4.66-4.25,6-4.71,5.44,3.77,8.18-.38,1.6,2.32,2.74-4.16,9.37.63,2.59-5.63-1.44-.84-1.44-.84,9,6.16,3.31-3.13c-3.16-5.13-1.74-6.53-2.31-8.33-1.31-4.1-8.08-7-8.87-7.34-15.09-5.73-57.09-74.21-89.07-70.58-8.42.95-7.9,6-31.61,31.25C127.05,207.45,88.6,238.79,91.52,242.62Z"/><line class="cls-7" x1="229.73" y1="212.39" x2="229.73" y2="212.39"/><path class="cls-8" d="M182.22,317c-.11.13.49-.85.57-1,.17-.32.31-.65.46-1h0c-.26.57-.22.08-.14-.17a3,3,0,0,0-.25-.27c-.06-.06-.5-.4-.72-.59l-.78-.44a49.38,49.38,0,0,1-7.13,2.3c-2.36.46-5.13-2-5.11-4.34a18.31,18.31,0,0,0-.86-5.07,11.57,11.57,0,0,1-2.76-.12,9.66,9.66,0,0,1-6.5-4.45c-.73-1.16-1.34-2.38-2.13-3.52-.36-.53-.75-1-1.14-1.56-.13-.17-.95-1.16-.59-.78a16.77,16.77,0,0,0-2.12-1.86,4.74,4.74,0,0,1-.44-.23c-.23-.11-.45-.23-.68-.33l-.47-.2-.24,0c-2.33-.38-4.6-.63-6.5-2.23s-3-4-3.93-6.28c-.41-1-.77-2-1.18-3-.16-.4-.33-.8-.52-1.19,0,0-.38-.64-.46-.76s-.31-.46-.48-.68l-.08-.07-.5-.44c-.34-.19-.68-.36-1-.52l-.8-.32-.41-.13-.61-.18-1.21-.37A22.61,22.61,0,0,1,130.2,276a11,11,0,0,1-5-5.23c-.85-1.86-1.05-3.8-2-4.93.14.16-.75-.65-.63-.6a10.17,10.17,0,0,0-1.45-.7c.74.34,0,0-.36-.06l-1.11-.28c-2.16-.56-4.29-1.38-5.57-3.33a8.52,8.52,0,0,1-1-6.37l0,0,0,0h0l-.1-.06a9.52,9.52,0,0,0-1.42-.73s-.33-.12-.53-.2-.39-.06-.4-.05c.7-.16-.28,0-.59,0a14.71,14.71,0,0,1-4.18-.53C103,252,100.93,250,100.6,247c-.07-.69,0-1.38,0-2.07,0-.1,0-.2,0-.3a1.56,1.56,0,0,1-.09-.2,2.19,2.19,0,0,1-.12-.33s0-.06-.12-.18-.06-.1-.07-.13a3.44,3.44,0,0,0-.41-.35c.45.37.19.18-.12,0-.06,0-.25-.05-.44-.09-.45.18-.74.21-.85.08q-.61-.66,5.06-7.16a41.28,41.28,0,0,1-4,1.52c-1.36.43-2,.56-3.54,1.12-2,.76-2.77,1.25-3.36,1.92-.46.51-1.06,1.19-1,1.79s1.24,1.72,8,2c0,0-2,2.76-.87,5.58.41,1.06,1.38,1.54,5,4.13a3.7,3.7,0,0,0,.6.36,5.48,5.48,0,0,0,.6.26c1.1.36,5.13-.58,6.9,1a1.29,1.29,0,0,1,.38.43c.87,1.87-5.22,5.66.46,7.47,6.16,2,5.72,0,8.58,2.6s2.89,1.86,2.22,5.65,6.85,5.6,7.26,5.18,11.79,6.43,8.81,9.65,9.44,10.62,10.05,7.78,8.2,3.58,8.11,6.71,5.87,10.87,9.43,6.63-1.58,9,3.36,10.56,5.9-4.85,9.55-3.82c1.46.42,1.77,1.7,1.54,3.15C181.76,317.63,182,317.32,182.22,317Z"/><path class="cls-8" d="M188.94,324.56a15,15,0,0,1-2.88,1.62c-3.24,1.38-6-1.31-6.2-4.23a4.94,4.94,0,0,1-.94,1.16c-1.17.88,9.92,11.9,10,3.75C188.94,325.79,188.94,325.05,188.94,324.56Z"/><path class="cls-8" d="M215.53,301.45c-.56-1.06-.95-1.83-1.21-2.37l-.27-.13c-.21-.12-.41-.24-.61-.38a24.48,24.48,0,0,1-.32,3.1l-.07.49c0,.25,0,.89,0,1a14.38,14.38,0,0,1-.22,3.21c-1.12,4.95-5.75,8.17-10.13,10a7,7,0,0,0-1.7.88l-.06,0-.49,1.18a10.51,10.51,0,0,1-.68,1.39c.31-.52.21-.66,0,0a8.69,8.69,0,0,1-1.62,3.43c-2.44,2.73-5.56,2.2-7.91.33l-.19.15c-.31.26-.62.51-.93.74.31,1.46,1.23,4.88,3.92,4.65,4.72-.4,6.76-5.38,7.38-8.38s6.91-3.19,8.36-4.85S219.79,309.68,215.53,301.45Z"/><path class="cls-8" d="M288.29,233.37c2.29,1.26,5.88,2.63,1.74-4.09-.27-.43-.5-.83-.7-1.21-.59,1.57-1.48,3-2.16,4.58-.22.61-.27.73-.14.34-.13.4-.26.81-.4,1.21a13.22,13.22,0,0,1-.56,1.43,10.55,10.55,0,0,1-2.28,3l-.86.77-.48.45a4.91,4.91,0,0,1-5.37,3.07,6.79,6.79,0,0,1-1.16-.29,4.52,4.52,0,0,1-2.18-.95h-.38l-.48,0c-.4,0-.79.08-1.19.13l-.7.11a4.13,4.13,0,0,1-.55.47l-.11.08-.11.21a17.43,17.43,0,0,1-.77,1.64,7.17,7.17,0,0,1-3.87,3.6,6.41,6.41,0,0,1-5.12-.68l-.83-.45-.4-.13-.92-.24-.44-.09c0,.18.06.36.07.54s.16.51.23.77a4.43,4.43,0,0,1,.34,6.4,13.45,13.45,0,0,1-2.28,2l-1,.69-.14.08-.18.21a5,5,0,0,1-2.25,1.4,6.69,6.69,0,0,1-.65,2.6c-1,2.08-3.05,2.93-4.76,4.31a9.6,9.6,0,0,1-5.71,2.54s-.86,0-1.59,0a5.74,5.74,0,0,1-1.61,1.33,10.2,10.2,0,0,1,.58,1.47,8.39,8.39,0,0,1-1.19,7.62c-1.5,2-3.8,3-5.86,4.28l-.78.53c-.27.23-.26.4-.52,1.09.3-.79-.1.44-.15.61-.19.66-.39,1.31-.61,2-1.05,3.14-3.11,4.85-6.1,6.12-.17.08-1.79.87-.91.36-.09.05-.32.14-.49.21l.12,0-.11.12c-.06.17-.12.29-.15.36l-.12.66c-.76,3.47-3.91,6-7.39,4.66.78,1.28,1.82,3.11,1.82,3.11s4.55,2.25,6-6.8c0,0,11.11-4.71,9.24-10.48,0,0,13.1-10,8.28-14.78,0,0,6.89,1.4,8.57-4.27,0,0,7.16-2.24,6.28-7.08,0,0,9.51-6.58,6.21-9s1.15-1.3,1.15-1.3,5.13,5.06,6.48-.53,4.66-4.25,6-4.71,5.44,3.77,8.18-.38,1.6,2.32,2.74-4.16S294.82,239.42,288.29,233.37Z"/></g><path class="cls-9" d="M91.61,236.48a4.29,4.29,0,0,0,1.91,1.33,24.42,24.42,0,0,0,6.1.67s-2,2.77-.86,5.59c.4,1.06,1.37,1.53,5,4.13a5.56,5.56,0,0,0,.6.36,4.31,4.31,0,0,0,.61.25c1.09.36,5.12-.58,6.89,1a1.21,1.21,0,0,1,.38.44c.88,1.87-5.22,5.65.46,7.46,6.17,2,5.72-.05,8.59,2.6s2.88,1.87,2.21,5.66,6.85,5.6,7.27,5.17,11.79,6.44,8.8,9.66,9.44,10.61,10.05,7.78,8.21,3.58,8.11,6.71,5.87,10.86,9.44,6.63-1.58,9,3.36,10.55,5.9-4.84,9.55-3.81.11,7.55-1.06,8.43,9.91,11.9,10,3.74-.64,2.65,4.08,2.25,6.76-5.37,7.38-8.37,6.91-3.19,8.36-4.86,11-6.3,6.78-14.52.95.87.95.87,4.54,2.26,6-6.79c0,0,11.11-4.72,9.24-10.48,0,0,13.09-10,8.27-14.79,0,0,6.89,1.4,8.58-4.26,0,0,7.16-2.24,6.27-7.08,0,0,9.51-6.58,6.22-9s1.14-1.29,1.14-1.29,5.14,5,6.48-.53,4.66-4.25,6-4.72,5.44,3.77,8.18-.38,1.61,2.32,2.75-4.15,9.36.63,2.58-5.64-1.44-.83-1.44-.83,9,6.16,3.31-3.14c-3.16-5.12-1.74-6.53-2.31-8.32-1.3-4.11-8.08-7.05-8.86-7.35-15.09-5.72-57.09-74.21-89.07-70.58-8.43,1-7.9,6-31.61,31.25C127.14,201.3,88.69,232.65,91.61,236.48Z"/><line class="cls-10" x1="229.83" y1="206.25" x2="229.83" y2="206.25"/><path class="cls-11" d="M182.31,310.86c-.11.13.5-.85.57-1,.17-.33.32-.66.46-1h0c-.26.58-.22.09-.13-.16a3.08,3.08,0,0,0-.25-.27l-.73-.59-.78-.45a48.21,48.21,0,0,1-7.13,2.31c-2.36.45-5.13-2-5.11-4.34a17.73,17.73,0,0,0-.86-5.08,11.57,11.57,0,0,1-2.76-.11,9.68,9.68,0,0,1-6.5-4.45c-.73-1.17-1.34-2.39-2.12-3.52-.37-.53-.76-1.05-1.15-1.56-.13-.18-.94-1.17-.59-.79a16.59,16.59,0,0,0-2.11-1.85s-.47-.25-.45-.23l-.68-.34-.46-.2-.24,0c-2.34-.38-4.61-.63-6.51-2.23s-3-4-3.93-6.28c-.4-1-.77-2-1.17-3-.17-.39-.34-.79-.52-1.18,0,0-.39-.64-.46-.76s-.32-.46-.49-.68l-.07-.07-.5-.44a10.24,10.24,0,0,0-1-.52l-.8-.32-.41-.13-.61-.19-1.2-.37a20.13,20.13,0,0,1-3.27-1.23,10.89,10.89,0,0,1-5.05-5.22c-.86-1.86-1-3.8-2-4.93a4.26,4.26,0,0,1-.63-.6,9.68,9.68,0,0,0-1.45-.7c.75.33,0,0-.36-.07l-1.11-.27c-2.16-.56-4.29-1.39-5.57-3.34a8.54,8.54,0,0,1-1-6.36l0,0,0,0v0l-.09-.06a10.68,10.68,0,0,0-1.43-.73l-.52-.19-.41-.06c.7-.15-.28,0-.59,0a13.92,13.92,0,0,1-4.17-.53c-2.75-.91-4.85-2.88-5.18-5.88-.08-.68,0-1.38,0-2.07,0-.1,0-.19,0-.29a1.39,1.39,0,0,1-.1-.21l-.12-.32a1,1,0,0,1-.12-.19l-.07-.13c-.12-.12-.27-.23-.4-.34.44.36.18.18-.12,0l-.45-.1c-.45.19-.73.22-.85.09q-.62-.66,5.07-7.16a40.74,40.74,0,0,1-4,1.51c-1.35.43-2,.57-3.54,1.13a7.6,7.6,0,0,0-3.36,1.91c-.45.52-1.06,1.2-1,1.8s1.24,1.72,8,2c0,0-2,2.77-.86,5.59.4,1.06,1.37,1.53,5,4.13a5.56,5.56,0,0,0,.6.36,4.31,4.31,0,0,0,.61.25c1.09.36,5.12-.58,6.89,1a1.21,1.21,0,0,1,.38.44c.88,1.87-5.22,5.65.46,7.46,6.17,2,5.72-.05,8.59,2.6s2.88,1.87,2.21,5.66,6.85,5.6,7.27,5.17,11.79,6.44,8.8,9.66,9.44,10.61,10.05,7.78,8.21,3.58,8.11,6.71,5.87,10.86,9.44,6.63-1.58,9,3.36,10.55,5.9-4.84,9.55-3.81c1.45.41,1.76,1.7,1.54,3.15C181.85,311.49,182.09,311.17,182.31,310.86Z"/><path class="cls-11" d="M189,318.42a14.66,14.66,0,0,1-2.88,1.62c-3.23,1.37-6-1.32-6.2-4.23A4.72,4.72,0,0,1,179,317c-1.17.88,9.91,11.9,10,3.74C189,319.65,189,318.91,189,318.42Z"/><path class="cls-11" d="M215.62,295.31c-.55-1.07-.94-1.84-1.21-2.38l-.27-.13a6,6,0,0,1-.6-.37,24.48,24.48,0,0,1-.33,3.1c0,.06,0,.29-.07.49s0,.89,0,1a14.43,14.43,0,0,1-.23,3.22c-1.11,4.95-5.75,8.16-10.13,10a7,7,0,0,0-1.7.88l0,0c-.16.4-.34.8-.5,1.19a11,11,0,0,1-.67,1.38c.31-.52.2-.65,0,0a8.62,8.62,0,0,1-1.62,3.43c-2.44,2.72-5.56,2.19-7.91.32l-.18.16c-.31.26-.62.5-.94.73.31,1.47,1.23,4.88,3.92,4.65,4.73-.4,6.76-5.37,7.38-8.37s6.91-3.19,8.36-4.86S219.89,303.53,215.62,295.31Z"/><path class="cls-11" d="M288.38,227.22c2.3,1.27,5.88,2.64,1.74-4.09-.27-.43-.5-.83-.7-1.21-.58,1.58-1.48,3-2.16,4.58-.22.62-.26.74-.13.35-.14.4-.27.8-.4,1.2a11.83,11.83,0,0,1-.57,1.43,10.56,10.56,0,0,1-2.27,3c-.44.39-.72.65-.87.77s-.31.31-.47.46a4.93,4.93,0,0,1-5.37,3.07,7.57,7.57,0,0,1-1.16-.29,4.71,4.71,0,0,1-2.19-1h-.38l-.48,0c-.4,0-.79.08-1.18.14l-.71.11a6.06,6.06,0,0,1-.54.47l-.12.08-.1.2c-.25.55-.48,1.12-.77,1.65a7.23,7.23,0,0,1-3.88,3.6,6.38,6.38,0,0,1-5.11-.68l-.84-.45-.4-.14-.92-.23-.44-.1a3.45,3.45,0,0,1,.07.55c.09.25.16.51.24.77a4.43,4.43,0,0,1,.34,6.4,14,14,0,0,1-2.29,2l-1,.69-.14.08-.18.2a4.74,4.74,0,0,1-2.25,1.4,6.63,6.63,0,0,1-.64,2.6c-1,2.09-3.06,2.94-4.77,4.32a9.57,9.57,0,0,1-5.71,2.54s-.86,0-1.59,0a5.36,5.36,0,0,1-1.61,1.34,11,11,0,0,1,.59,1.47,8.37,8.37,0,0,1-1.19,7.61c-1.5,2-3.8,3-5.86,4.29,0,0-.7.48-.78.52-.28.24-.26.4-.52,1.1.29-.79-.11.44-.16.6-.18.67-.39,1.32-.61,2-1,3.14-3.11,4.85-6.09,6.12-.18.08-1.8.87-.92.35a3.79,3.79,0,0,1-.48.22l.11,0-.1.12a3.32,3.32,0,0,1-.16.35c0,.23-.07.45-.12.67-.76,3.47-3.91,6-7.38,4.66.77,1.27,1.82,3.1,1.82,3.1s4.54,2.26,6-6.79c0,0,11.11-4.72,9.24-10.48,0,0,13.09-10,8.27-14.79,0,0,6.89,1.4,8.58-4.26,0,0,7.16-2.24,6.27-7.08,0,0,9.51-6.58,6.22-9s1.14-1.29,1.14-1.29,5.14,5,6.48-.53,4.66-4.25,6-4.72,5.44,3.77,8.18-.38,1.61,2.32,2.75-4.15S294.92,233.28,288.38,227.22Z"/><g class="cls-12"><path class="cls-13" d="M205.73,188.71c13.54-7.08,31.46-14.13,51.8-32A166.6,166.6,0,0,0,271,143.54s12-14.86,22.55-11.26,24.81,13.2,28.34,8.89,14.33,10.55,14.33,10.55S316.27,162,313.39,168.5s-32.62,34-36,34-24.7,8.38-27.58,17.72-23.51,25.65-28.54,26.84-31.66,11.74-36.22,25.16a3.25,3.25,0,0,1-1.54,2c-5.92,2.85-26.42-18.4-30.57-42.91-.08-.48-.14-.87-.16-1C173,208.19,192,195.89,205.73,188.71Z"/><path class="cls-13" d="M157.32,231.93c17-20.84,33.14-30.8,45.09-36,8.72-3.82,28-10.7,47.49-28.42.66-.6,1.19-1.1,1.55-1.44,8.92-8.06,15.1-13.71,18.38-16.72,9.36-8.57,16.11-18.32,20.84-13.23,3.11,3.36,9.11,1.68,9.11,1.68a341.74,341.74,0,0,0-36.7,26.9c-10.44,8.78-8.19,7.94-14.75,13.12-20.5,16.18-38.25,21-61.27,35.69a63.19,63.19,0,0,0-10.92,8.27c-4,3.92-11.3,11-12.59,14.5a1.28,1.28,0,0,1-.63.78C161.67,237.54,159.34,234.77,157.32,231.93Z"/><path class="cls-13" d="M173.25,252c17-20.85,33.15-30.81,45.09-36,8.73-3.82,28-10.7,47.49-28.42l1.56-1.44c8.91-8.06,15.09-13.71,18.37-16.72,9.36-8.56,16.11-18.32,20.84-13.23,3.11,3.36,9.11,1.69,9.11,1.69a341.34,341.34,0,0,0-36.7,26.9c-10.44,8.77-8.19,7.94-14.75,13.11-20.5,16.18-38.25,21-61.27,35.7a62.69,62.69,0,0,0-10.91,8.26c-4,3.92-11.31,11-12.6,14.5a1.27,1.27,0,0,1-.62.79C177.61,257.63,175.27,254.86,173.25,252Z"/></g><g class="cls-12"><path class="cls-13" d="M103.72,181.06c13.54-7.08,31.46-14.14,51.8-32A170.06,170.06,0,0,0,169,135.89S181,121,191.5,124.63s24.81,13.2,28.34,8.88,14.32,10.56,14.32,10.56-19.9,10.3-22.78,16.77-32.62,34-36,34-24.7,8.38-27.58,17.73-23.51,25.64-28.54,26.84S87.62,251.17,83.06,264.6a3.24,3.24,0,0,1-1.55,2C75.6,269.42,55.1,248.17,51,223.66c-.08-.48-.14-.86-.16-1C71,200.54,90,188.24,103.72,181.06Z"/><path class="cls-13" d="M55.31,224.28c17-20.85,33.14-30.8,45.09-36,8.72-3.82,28-10.7,47.48-28.42.66-.59,1.2-1.1,1.56-1.43,8.92-8.07,15.1-13.72,18.38-16.72,9.36-8.57,16.11-18.33,20.84-13.23,3.11,3.35,9.11,1.68,9.11,1.68a340.34,340.34,0,0,0-36.7,26.9c-10.44,8.77-8.19,7.94-14.75,13.11-20.5,16.18-38.25,21-61.27,35.7a63.19,63.19,0,0,0-10.92,8.27c-4,3.92-11.3,11-12.59,14.49a1.29,1.29,0,0,1-.63.79C59.66,229.89,57.33,227.11,55.31,224.28Z"/><path class="cls-13" d="M71.24,244.37c17-20.84,33.14-30.8,45.09-36,8.73-3.83,28-10.71,47.49-28.42.66-.6,1.2-1.1,1.55-1.44,8.92-8.06,15.1-13.71,18.38-16.72,9.36-8.57,16.11-18.33,20.84-13.23,3.11,3.36,9.11,1.68,9.11,1.68a342.74,342.74,0,0,0-36.7,26.9c-10.44,8.78-8.19,7.94-14.75,13.12-20.5,16.18-38.25,21-61.27,35.69a62.68,62.68,0,0,0-10.91,8.27c-4,3.92-11.31,11-12.6,14.5a1.28,1.28,0,0,1-.63.78C75.59,250,73.26,247.21,71.24,244.37Z"/></g><path class="cls-14" d="M204.28,179.64c13.54-7.08,31.46-14.13,51.8-32a166.6,166.6,0,0,0,13.43-13.18s12-14.86,22.55-11.26,24.8,13.2,28.34,8.89,14.32,10.55,14.32,10.55-19.9,10.3-22.78,16.78-32.62,34-36,34-24.7,8.38-27.58,17.72S224.87,236.83,219.84,238s-31.66,11.74-36.22,25.16a3.23,3.23,0,0,1-1.55,2c-5.91,2.85-26.41-18.4-30.56-42.91-.08-.48-.14-.87-.16-1C171.58,199.12,190.55,186.82,204.28,179.64Z"/><path class="cls-3" d="M155.87,222.86c17-20.84,33.14-30.8,45.09-36,8.72-3.82,28-10.7,47.48-28.42L250,157c8.92-8.06,15.1-13.71,18.38-16.72,9.36-8.57,16.11-18.32,20.84-13.23,3.11,3.36,9.11,1.68,9.11,1.68a341.74,341.74,0,0,0-36.7,26.9c-10.44,8.78-8.19,7.94-14.75,13.12-20.51,16.18-38.25,21-61.27,35.69a63.19,63.19,0,0,0-10.92,8.27c-4,3.92-11.3,11-12.59,14.5a1.28,1.28,0,0,1-.63.78C160.22,228.47,157.89,225.7,155.87,222.86Z"/><path class="cls-3" d="M171.8,243c17-20.85,33.14-30.81,45.09-36,8.72-3.82,28-10.7,47.48-28.42.67-.6,1.2-1.1,1.56-1.44,8.92-8.06,15.1-13.71,18.38-16.72,9.36-8.56,16.11-18.32,20.84-13.23,3.11,3.36,9.11,1.69,9.11,1.69a340.34,340.34,0,0,0-36.7,26.9c-10.44,8.77-8.19,7.94-14.75,13.11-20.5,16.18-38.25,21-61.27,35.7a63.2,63.2,0,0,0-10.92,8.26c-4,3.92-11.3,11-12.59,14.5a1.29,1.29,0,0,1-.63.79C176.15,248.56,173.82,245.79,171.8,243Z"/><path class="cls-14" d="M102.27,172c13.54-7.08,31.46-14.14,51.8-32a170.06,170.06,0,0,0,13.43-13.18S179.5,112,190,115.56s24.81,13.2,28.35,8.88S232.71,135,232.71,135s-19.9,10.3-22.78,16.77-32.62,34-36,34-24.7,8.38-27.58,17.73-23.51,25.64-28.55,26.84S86.17,242.1,81.61,255.53a3.24,3.24,0,0,1-1.55,2c-5.91,2.85-26.41-18.4-30.56-42.91-.08-.48-.14-.86-.16-1C69.57,191.47,88.54,179.17,102.27,172Z"/><path class="cls-3" d="M53.86,215.21c17-20.85,33.14-30.8,45.09-36,8.72-3.82,28-10.7,47.48-28.42.66-.59,1.2-1.1,1.56-1.43,8.92-8.07,15.1-13.72,18.38-16.72,9.36-8.57,16.11-18.33,20.84-13.23,3.11,3.35,9.11,1.68,9.11,1.68a340.34,340.34,0,0,0-36.7,26.9c-10.44,8.77-8.19,7.94-14.75,13.11-20.51,16.18-38.25,21-61.27,35.7A63.19,63.19,0,0,0,72.68,205c-4,3.92-11.3,11-12.59,14.49a1.29,1.29,0,0,1-.63.79C58.21,220.82,55.88,218,53.86,215.21Z"/><path class="cls-3" d="M69.79,235.3c17-20.84,33.14-30.8,45.09-36,8.72-3.83,28-10.71,47.48-28.42l1.56-1.44c8.92-8.06,15.1-13.71,18.38-16.72,9.36-8.57,16.11-18.33,20.84-13.23,3.11,3.36,9.11,1.68,9.11,1.68a341.74,341.74,0,0,0-36.7,26.9c-10.44,8.78-8.19,7.94-14.75,13.12-20.51,16.18-38.25,21-61.27,35.69a63.19,63.19,0,0,0-10.92,8.27c-4,3.92-11.3,11-12.59,14.5a1.28,1.28,0,0,1-.63.78C74.14,240.91,71.81,238.14,69.79,235.3Z"/><path class="cls-1" d="M83.58,110.19c5.06-3.57,39.52-31.24,88.7-71a14.44,14.44,0,0,1-1.08-9.9C173.05,22.68,180,19.18,185,18.59c7.57-.87,13.68,4.52,19.16,9.57C226.79,49,237.8,62.41,237.8,62.41c14,17,22.12,27.6,30.91,41.35,10.83,16.93,13.86,24.89,10.77,31.34-1.76,3.67-6.36,8.64-12.77,9.29A15.61,15.61,0,0,1,257,142c-48.38,40.23-82.34,68.67-85.85,72.28a7.62,7.62,0,0,1-4.87,2.46c-4.66.17-8.48-6.41-8.59-6.32s2.17,2.62,2.07,2.72c-.49.52-59.12-69.34-72.3-87.35-2.56-3.5-7.46-10.58-5.07-14.39A4.09,4.09,0,0,1,83.58,110.19Z"/><path class="cls-2" d="M86.4,114.59A11.26,11.26,0,0,1,86.84,103a17.38,17.38,0,0,1,2.35-3l.21-.21c2.6-2.54,8.9-7.16,8.9-7.16,5.46-4,6.86-5.48,12.5-9.21h0c1.08-.72-.22.12,15.41-12.25,12.63-10,21.12-16.57,26.55-21.12.58-.48,1.83-1.53,3.58-2.92,1.26-1,3.95-3.1,7.19-5.34,1.34-.93,2.63-2,4-2.86a14.4,14.4,0,0,0,1.33-1,5.85,5.85,0,0,0,1.5-1.54c.45-.87.11-1.54,0-3a12.49,12.49,0,0,1,.19-3.4,31.38,31.38,0,0,1,3.26-7.45,21.17,21.17,0,0,1,3.81-5c4-3.62,9.09-3.94,10.77-4,8.83-.55,16.79,7.31,22.42,13,9,9.12,19.6,20.29,31.19,33.51,6.06,8,11.11,14.81,15,20.18,1.06,1.46,5.26,7.79,13.66,20.43a55.74,55.74,0,0,1,6.55,12.79c1.1,3.15,1.66,4.72,1.83,6.65.71,7.88-4.5,18.6-13.93,21.1a18.56,18.56,0,0,1-12.17-1.27c-10.68,8.6-18.77,15.23-24.29,19.76-2.94,2.42-4.91,4.06-8.49,7-9.29,7.57-10.32,8.23-16.47,13.31-6.32,5.23-6,5.19-12,10.05-9,7.32-7.84,5.93-11.25,9-2.95,2.66-6.27,4.89-9.34,7.4-1.52,1.25-3,2.48-5.08,2.57-2.72.13-4.85-1.73-5.89-2.67-7.71-7-16.37-18.3-18.86-21.49-3.39-4.36-2.29-2.58-9.18-11.05-5.82-7.16-8.06-10.23-13.08-16.58-4.18-5.3-7.93-9.91-15.55-19-4.88-5.86-9.08-12.26-13.86-18.2A22.4,22.4,0,0,1,86.4,114.59Z"/><path class="cls-3" d="M89.88,105.82c.72-3.64,3.84-5.83,6-7.33,6.06-4.26,12.23-8.64,19.19-13.54,29.29-22.68,50.53-39.2,55.59-42.9a12.35,12.35,0,0,0,4.54-5.25c1.37-3.26-.07-4.68,1-8.55a16.44,16.44,0,0,1,5.29-7.85,17,17,0,0,1,7.59-3.8c6.14-1,11.5,5.29,20.47,15,19.15,20.72,19.29,18.62,28,29.82,1.79,2.29.81,1.14,13.56,18.13,3.93,5.25,5.73,7.63,8.42,11.46a139.66,139.66,0,0,1,10.77,17.27c3,5.88,4.52,8.88,4.45,12A17,17,0,0,1,265.16,135c-6.74,3-13.08.18-14.07-.28-43.55,35.68-75.63,61.46-81.15,65.17a8.8,8.8,0,0,1-5,1.65c-5,0-8.67-5.29-9.85-6.95-9.66-13.51-21.2-25.57-31.65-38.47,0,0-20-24.68-31.38-42.05C91.24,112.77,89.16,109.49,89.88,105.82Z"/><path class="cls-4" d="M96,118.57c7.12-10.35,16.8-18.17,27.45-24.65,4.33-2.63,8.81-5,13.35-7.24,2.27-1.13,4.6-2.15,6.79-3.44.06,0,1.39-.9.51-.3s.1-.07.3-.2c.49-.32,1-.65,1.45-1,1.11-.78,2.19-1.59,3.25-2.43,4.17-3.29,8-7,11.9-10.58s7.65-6.85,11.34-10.42c.91-.88,1.81-1.77,2.68-2.68l.64-.68c.73-.76.1-.07-.14.17a14.5,14.5,0,0,0,1.15-1.32,52.41,52.41,0,0,0,4.14-5.56c.38-.6.75-1.2,1.1-1.82l.48-.83.23-.45.42-.89c.29-.61.56-1.23.82-1.85.82-2,1.42-4,2.32-6a19.83,19.83,0,0,1,13.26-11,16.77,16.77,0,0,1,3.75-.61c-5.44-5.65-9.55-8.9-14.09-8.15a17,17,0,0,0-7.59,3.8,16.44,16.44,0,0,0-5.29,7.85c-1.09,3.87.35,5.29-1,8.55a12.35,12.35,0,0,1-4.54,5.25c-5.06,3.7-26.3,20.22-55.59,42.9-7,4.9-13.13,9.28-19.19,13.54-2.15,1.5-5.27,3.69-6,7.33s1.36,7,2.22,8.28c1.09,1.66,2.26,3.39,3.49,5.17A6,6,0,0,1,96,118.57Z"/><path class="cls-4" d="M190.78,183.49l-.66.74c.84-.66,1.69-1.35,2.57-2Z"/><g class="cls-15"><path class="cls-16" d="M209,29.41l-28.93.82c-9.63.28-9.67,15.28,0,15L209,44.41c9.63-.27,9.67-15.27,0-15Z"/></g><g class="cls-15"><path class="cls-16" d="M221.73,43.22,153.3,51.33c-4,.48-7.5,3.11-7.5,7.5,0,3.69,3.45,8,7.5,7.5l68.43-8.11c4-.48,7.5-3.11,7.5-7.5,0-3.68-3.45-8-7.5-7.5Z"/></g><g class="cls-15"><path class="cls-16" d="M233,58.26l-88.1,7-12.51,1c-9.56.76-9.64,15.77,0,15l88.1-7,12.51-1c9.56-.76,9.64-15.77,0-15Z"/></g><g class="cls-15"><path class="cls-16" d="M242.41,72.77,128.22,80.19l-16.06,1c-9.58.62-9.65,15.63,0,15l114.19-7.43,16.06-1c9.58-.63,9.65-15.63,0-15Z"/></g><g class="cls-15"><path class="cls-16" d="M250.22,88.2,113.61,95.58,94.05,96.64c-9.6.52-9.66,15.52,0,15l136.62-7.38,19.55-1.06c9.61-.52,9.67-15.52,0-15Z"/></g><g class="cls-15"><path class="cls-16" d="M257.67,100.07,120.38,110l-19.48,1.41c-9.57.7-9.64,15.7,0,15l137.29-9.94,19.48-1.41c9.58-.69,9.65-15.69,0-15Z"/></g><g class="cls-15"><path class="cls-16" d="M267.54,115,132.4,127.88l-18.91,1.8c-9.52.9-9.62,15.91,0,15l135.14-12.85,18.91-1.8c9.52-.91,9.62-15.91,0-15Z"/></g><g class="cls-15"><path class="cls-16" d="M268.75,129.49l-125,16-17.66,2.26c-4,.52-7.5,3.08-7.5,7.5,0,3.65,3.45,8,7.5,7.5l125-16,17.67-2.26c4-.52,7.5-3.08,7.5-7.5,0-3.66-3.46-8-7.5-7.5Z"/></g><g class="cls-15"><path class="cls-16" d="M222.91,151.6l-77.37,11.28-11.17,1.63c-4,.59-6.24,5.67-5.24,9.23,1.2,4.3,5.19,5.83,9.23,5.24l77.36-11.29,11.17-1.63c4-.58,6.24-5.67,5.24-9.23-1.2-4.29-5.18-5.82-9.22-5.23Z"/></g><g class="cls-15"><path class="cls-16" d="M195.51,171.25l-49.84,7.28c-4,.58-6.24,5.67-5.24,9.22,1.2,4.3,5.18,5.83,9.22,5.24l49.85-7.27c4-.58,6.23-5.67,5.24-9.23-1.21-4.3-5.19-5.82-9.23-5.24Z"/></g></svg>