<svg id="Layer_1" data-name="Layer 1" xmlns="http://www.w3.org/2000/svg" width="954.89" height="416.45" viewBox="0 0 954.89 416.45"><defs><style>.cls-1{fill:#ff729b;}.cls-2{fill:#5294c1;stroke:#1d1d1b;stroke-width:8px;}.cls-2,.cls-3{stroke-miterlimit:10;}.cls-3,.cls-4{fill:#1d1d1b;}.cls-3{stroke:#fff;}.cls-5{fill:#fff;}</style></defs><rect class="cls-1" x="38.28" y="46.88" width="112.34" height="278.17"/><rect class="cls-1" x="82.87" y="46.88" width="89.2" height="122.42"/><rect class="cls-1" x="801.52" y="45.19" width="112.34" height="278.17"/><rect class="cls-1" x="846.11" y="45.19" width="89.2" height="122.42"/><rect class="cls-1" x="209.6" y="46.75" width="172.34" height="275.06" rx="25.28"/><rect class="cls-1" x="397.26" y="46.75" width="184.85" height="298.21" rx="47.78"/><path class="cls-1" d="M758.73,110.88c-.17-1.35-.31-2.7-.41-4a49.26,49.26,0,0,1,1.21-14.23,77,77,0,0,1-3.42-17.93,53.74,53.74,0,0,1,3-20.72,22.14,22.14,0,0,0-17-8H630.92a22.32,22.32,0,0,0-22.24,22.39V321.29a22.32,22.32,0,0,0,22.24,22.4h58.73c41.24,0,74.67-33.67,74.67-75.19V169.23c-6.35-9.67-9.6-21.4-10.43-32.85C753.3,128.13,755.23,119.13,758.73,110.88Z"/><path class="cls-2" d="M9.66,58.76l18.8-21.2h153.2v135.2l-21.2,18.8h-8.4v137.6L130.86,348h-92V191.56H9.66Zm135.6,107.6h29.6V44h-140v122.4h29.2v156.4h81.2Z"/><path class="cls-2" d="M384.46,282q0,12-8,24.2T349.26,334a50,50,0,0,1-14.8,10.2,41.4,41.4,0,0,1-17.2,3.8h-90a40,40,0,0,1-17-3.8,50.67,50.67,0,0,1-14.6-10.2,49.64,49.64,0,0,1-10.2-14.8,41.21,41.21,0,0,1-3.8-17.2V104.36a39.93,39.93,0,0,1,3.8-17,50.56,50.56,0,0,1,10.2-14.6q15.6-19.2,27.8-27.2t23.8-8h90a40.56,40.56,0,0,1,17.6,4,56.17,56.17,0,0,1,15,10.4,50.28,50.28,0,0,1,10.6,15,41,41,0,0,1,4,17.4Zm-6.4-197.6a34.42,34.42,0,0,0-3.4-14.8,46.41,46.41,0,0,0-9.2-13,45.53,45.53,0,0,0-13.2-9.2,35.76,35.76,0,0,0-15-3.4h-90a34.39,34.39,0,0,0-14.8,3.4,47.2,47.2,0,0,0-22.2,22.2,34.27,34.27,0,0,0-3.4,14.8V282a35.1,35.1,0,0,0,3.4,15.2,47.2,47.2,0,0,0,22.2,22.2,34.24,34.24,0,0,0,14.8,3.4h90a35.6,35.6,0,0,0,15-3.4,45.14,45.14,0,0,0,13.2-9.2,46.27,46.27,0,0,0,9.2-13,35.24,35.24,0,0,0,3.4-15.2Zm-81.2,157.2h-8.8V125.16h8.8Z"/><path class="cls-2" d="M565.25,348H384.45V104.36a39.93,39.93,0,0,1,3.8-17,50.56,50.56,0,0,1,10.2-14.6q15.6-19.2,27.8-27.2t23.8-8h89.2a39.72,39.72,0,0,1,17.2,4,56.17,56.17,0,0,1,15,10.4,53.33,53.33,0,0,1,10.8,15,39.33,39.33,0,0,1,4.2,17.4v244.8Zm-66.8-76.4v51.2h81.2V84.36a32.87,32.87,0,0,0-3.59-14.8,52.33,52.33,0,0,0-9.18-13,42.7,42.7,0,0,0-13-9.2A35.58,35.58,0,0,0,539,44H450a34.26,34.26,0,0,0-14.77,3.4A47.15,47.15,0,0,0,413,69.56a34.41,34.41,0,0,0-3.39,14.8v238.4h81.2v-51.2Zm-7.6-81.2v-65.2h7.6v65.2Z"/><path class="cls-2" d="M748.85,138.76a60.14,60.14,0,0,1,16.8,17.4,39.94,39.94,0,0,1,6.8,21.8V282q0,11.61-8,23.6t-27.2,28a52.55,52.55,0,0,1-15,10.6,40.08,40.08,0,0,1-17,3.8h-116v-91.6l13.6-13.2a58.48,58.48,0,0,1-11.8-15.6,39.14,39.14,0,0,1-4.6-18.4V104.36a39.93,39.93,0,0,1,3.8-17,50.56,50.56,0,0,1,10.2-14.6q15.6-19.2,27.8-27.2t23.8-8h106.4v94Zm3.2-13.6V44h-100a34.39,34.39,0,0,0-14.8,3.4,47.2,47.2,0,0,0-22.2,22.2,34.27,34.27,0,0,0-3.4,14.8v104.8a35.54,35.54,0,0,0,3.4,15,42.37,42.37,0,0,0,9.2,13,52,52,0,0,0,13,9.2,32.72,32.72,0,0,0,14.8,3.6h32.4v11.6h-70v81.2h110.8a35.6,35.6,0,0,0,15-3.4,42.61,42.61,0,0,0,13-9.2,52.22,52.22,0,0,0,9.2-13,33.53,33.53,0,0,0,3.6-15.2V178a34,34,0,0,0-3.6-15,47.2,47.2,0,0,0-22.2-22.2,34,34,0,0,0-15-3.6h-32.4v-12Z"/><path class="cls-2" d="M772.45,58.76l18.8-21.2h153.2v135.2l-21.2,18.8h-8.4v137.6L893.65,348h-92V191.56h-29.2Zm135.6,107.6h29.6V44h-140v122.4h29.2v156.4h81.2Z"/><path class="cls-3" d="M646.13,304.35a3.27,3.27,0,0,0-.18,1.06v.53c.62,0,1.24.8,1.85,2.39v.79a53.61,53.61,0,0,1,5.84-.53c1,0,1.59.89,1.68,2.57-.27,2.12-.71,4.94-1.42,8.39v.18c1-.8,1.42-1.42,1.42-2l-.18-1.42.53-.44H656l.71.62,7.51-6.45a24.92,24.92,0,0,1,5.84-2.39,5.4,5.4,0,0,1,2.21-.53h.17c10.17,6.8,15.2,12,15.2,15.82,1.33.88,2,5.21,2,13.08v.62a42.51,42.51,0,0,1-1.15,4.59c0,.62-.71,2.39-2.21,5.4a23.24,23.24,0,0,1-2.3,5.56,20.78,20.78,0,0,0-2.74,6,37.54,37.54,0,0,0-2.83,6.72c-.17,0-1,2.3-2.47,7V372c0,.09,0,.09.09.09-1.51,6.1-2.66,10.43-3.45,12.9l-.09.89a3.6,3.6,0,0,1,.09.61,19.9,19.9,0,0,0-.71,5c.53,0,2.39-1.06,5.48-3.09.8-1.15,2.83-3,6-5.75a19.81,19.81,0,0,1,2.48-1.59h.17a.88.88,0,0,1,.8.89c0,1.32-1.24,1.5-.44,1.5s3.09.88,6.8,2.65a1.93,1.93,0,0,1,.71-.09c.7.18,1.06.8,1.06,1.86v.35a9,9,0,0,0,.09,4.86.91.91,0,0,1,.7-.35h.27c.26.09.35.44.35,1.15a33.7,33.7,0,0,1-1,3.8c-.44,1.32-.44,1.06.09-.71l.35-.26h.27c.26.08.35.35.35.7a49.85,49.85,0,0,1-1.59,4.95c-.27,1.86-2,4.42-5.3,7.51l-4.33,3.36a61.34,61.34,0,0,1-6.9,2.65c-1.23.27-4.42-.61-9.63-2.56s-8.75-6.63-10.43-14a3.4,3.4,0,0,1-.26-1.24,32,32,0,0,1,.26-3.71,6.9,6.9,0,0,0-1.06-2.21c-.44-1.24-.79-2.3-1.06-3.18l.09-.27v-1.5a15.94,15.94,0,0,0-.09-2c.27-2,.44-4.25.53-6.63a.33.33,0,0,0-.09-.27A57,57,0,0,1,659.12,365c1.5-6.1,2.29-9.28,2.29-9.37,1-2.39,2-5,2.83-7.87q.13-.66,2.12-6.62h-.08a23,23,0,0,0-3.54,4.24,16.75,16.75,0,0,0-3.18,4.68,69.76,69.76,0,0,0-8.22,15.38,13.34,13.34,0,0,0-1.24,3.27c-1.41,3.09-2.83,5.83-4.15,8.31-.71,1.32-1.42,2.91-2.21,4.68l.09.44a21.17,21.17,0,0,0-1,3.27c0,.27-.35,2.13-1.14,5.57a26.41,26.41,0,0,1-1.06,5.13,83,83,0,0,1-2.74,10.78c-.45.18-1,1.68-1.77,4.6l-.36.35h-.35c-.26,0-.53-.53-.71-1.5l-.88-3.45c-.26,1.24-.79,1.86-1.41,1.86h-.18c-.71,0-1.24-.62-1.5-2a2.59,2.59,0,0,1-.36-.88c0-1.06-1.06-2.3-1.5-2.92l-1.15-1.5a.3.3,0,0,0,.09.26c-.62,1.51-1.24,2.21-1.94,2.21-.45,0-.8-.79-1-2.47a31,31,0,0,0,1.24-5.57c-2-1.5-3.18-2.74-3.36-3.8a14.63,14.63,0,0,1,1-3.53c.71-2.57,1.33-5.31,2-8.31.09-.44.26-1.68.44-3.63.27-.26,1-3.09,2-8.39a63.55,63.55,0,0,0,1.76-6.9c1.15-4.24,2.21-7.68,3.1-10.42l.62-2.66a85.74,85.74,0,0,0,1.85-9.45c1.15-4.95,2.56-9.9,4.16-14.94a52,52,0,0,0,1.32-6.1h-.09a61,61,0,0,1,2.12-7.24,6.3,6.3,0,0,1,1.42-4.07c0-1.68.35-2.65,1.06-2.91C645.68,303.56,645.86,303.82,646.13,304.35ZM634.9,409.08v.09a.48.48,0,0,0-.35.26h-.36c-.17,0-.35-.35-.61-1.15a1.57,1.57,0,0,1,.61-.79C634.64,407.49,634.81,408,634.9,409.08ZM679,332.45a3,3,0,0,0,.09.89c-.18,2.47-1.68,6.27-4.6,11.4-.61,1.59-2.2,5.13-4.86,10.52a27.12,27.12,0,0,1-1.76,4.77c-.36,1.41-.71,2.83-1.15,4.15-.36,0-1.24,2.65-2.74,8-.8,3.89-1.42,6.81-2,8.75a64.46,64.46,0,0,0-.7,6.81v1.5c.44,1.77.79,2.65,1.23,2.65h.09v-.17a2.71,2.71,0,0,0-.09-.89q.41-7.42,1.06-7.42c2.39-10.52,3.89-16.88,4.69-19.09a27.45,27.45,0,0,0,1.94-5.3l1.68-4.78c.8-1.76,1.77-4.24,2.92-7.33a32.4,32.4,0,0,0,2-4.95c2.56-5,3.8-7.69,3.8-8v-1a6,6,0,0,0,.27-1.23v-1.5h-.09c-1.24.35-1.86.7-1.86,1.06Z"/><path class="cls-3" d="M727.34,299.84h.45c.53.44.79.8.79,1.24v.44c.36,0,.53.18.53.62a.67.67,0,0,0-.09.35h-.17l-.71-1.06h-.35c-.62.18-1,.27-1,.53a1.09,1.09,0,0,0,1,.62h.09c.79,0,1.5.53,2.21,1.59a4.65,4.65,0,0,1,.61,2.12c0,.62-.44,1.06-1.23,1.33-.36-.09-.62-.18-.71-.18l-7.6,4.78a20.38,20.38,0,0,0-5.66,4.24,66.52,66.52,0,0,0-6.27,8.48c-.8.62-2.12,3-3.89,7.34,0,.09-.09.53-.18,1.15v.09h.09a70,70,0,0,1,6.1-8.67c2.21-3.09,4.15-4.86,5.83-5.48a35.13,35.13,0,0,0,4.42-5.21,104.29,104.29,0,0,1,9.55-6.27c2.56-1.86,4.33-2.83,5.12-2.83h.44c.89,0,1.33.79,1.33,2.29a73.17,73.17,0,0,1-1,8.31c.79,1.24,1.15,1.86,1.32,1.86v-.18c-.09-.35-.17-.53-.26-.53a.64.64,0,0,0,.09-.44h.35c.79,1.15,1.24,1.68,1.24,1.77v.17a.18.18,0,0,0,.17.18,5.37,5.37,0,0,0,1.15-.35l2.74-1.77a35.65,35.65,0,0,1,4.6-1.41,15.08,15.08,0,0,1,6.63-1.51c1.68,0,4.15,1.15,7.24,3.36a22.51,22.51,0,0,0,2.48,2.3c2.12,0,4.51,1.06,7.24,3.27a19.94,19.94,0,0,0,2.83,3.09c2.21,2.3,4.16,5.84,5.75,10.52.35,1.68,1.15,4.86,2.3,9.46.26,1.5.53,2.91.88,4.33l1,4.59v.27c0,1.32,0,2.91.09,4.86a39.08,39.08,0,0,0-.62,4.59l-.79,4.69a12.34,12.34,0,0,1-2.21,5.57c0,1.5-1,3.62-3,6.54a51.7,51.7,0,0,0-3.45,4.59c-1,1.68-3.71,4.69-8.13,9.19a25.89,25.89,0,0,1-3.62,2.65c-.44,1-2.39,2-5.74,3.36a79.62,79.62,0,0,1-9.11,3.89c0,.44-2.38,1.24-7.24,2.39a9.45,9.45,0,0,0-2.21.44,15.06,15.06,0,0,0-1.77-.09h-2.92a8.9,8.9,0,0,1-2-.26l-1.33.17a30,30,0,0,1-7.33-2.56c-.62-.53-2.12-1.5-4.33-2.92-4.16-4.15-6.63-6.36-7.34-6.45-4.33-3.8-6.54-6.1-6.54-7a31.35,31.35,0,0,1-4.06-10.08c-1.68-4.5-2.65-7.86-2.74-10.25l.17-.62v-.61a37.56,37.56,0,0,1-1.68-6.46,1.14,1.14,0,0,0,.09-.44,32.65,32.65,0,0,1-.44-5.74,69.33,69.33,0,0,1,1.86-14.94c.44-.62,1-3.09,1.68-7.42a15.39,15.39,0,0,0,1.23-3.36c.45-1,1.24-2.65,2.21-5.21a31.61,31.61,0,0,1,3.63-5.93,17.54,17.54,0,0,1,4.42-6l4.94-4.5ZM728.76,337a7.87,7.87,0,0,1,.79-1.5v-1a8.29,8.29,0,0,1,1.07-3.36l1.06-3.18a12.35,12.35,0,0,1,1.41-1.77.66.66,0,0,0,.09-.44,17.76,17.76,0,0,0-3.36,2.21,26.94,26.94,0,0,1-3.71,2.38,9.93,9.93,0,0,0-3.18,3.45c-.36.44-1.15,1.33-2.39,2.65a83.41,83.41,0,0,0-4.68,7.25c-1.15,1.5-2.57,7.16-4.07,16.88q-.39,3.58-.53,6.36c0,1.95.88,5,2.65,9.19.09,1.42,1.33,3.27,3.54,5.66a4.75,4.75,0,0,0,3.44,1.5,3.41,3.41,0,0,0,1.59.36h4.6a26.8,26.8,0,0,0,9.63-2c.62,0,2.83-.88,6.54-2.56a28.42,28.42,0,0,0,3.8-1.68,26.89,26.89,0,0,0,4.42-2.56c1.5-.62,3.27-2.12,5.22-4.69,3.09-2.91,4.95-4.86,5.57-6a22.91,22.91,0,0,0,3-4.33c2.21-2.74,3.36-4.5,3.36-5.12a50.52,50.52,0,0,0,1.32-8.31c0-.44-.61-1.68-1.85-3.8-.71-2-1.42-3.09-2-3.09a7.91,7.91,0,0,0-1.5-.09h-.7a4.07,4.07,0,0,0-2,.35,7.08,7.08,0,0,0-.88-.18,35.75,35.75,0,0,1-5.13,2.39,31.75,31.75,0,0,0-6.71,4.07c-1.15,1-2.3,1.85-3.63,2.83-.62,1.32-2.12,2.38-4.42,3.18a6.76,6.76,0,0,0-1.23-.18h-.09l-.8.62h-.17a1.46,1.46,0,0,1-.62-1.42l-1-1.67c0,.17-.27.35-.89.44H736c-.27-.09-.62-.71-1.06-1.86,0-1.59-.09-2.39-.36-2.39a3.57,3.57,0,0,1-.53.18H734l-.17-.18c0-.26-.36-.35-1-.35h-.44c-.62.53-1,.8-1.15.8-.35,0-.61-.45-.79-1.33,1.5-3.53,1.68-4.33,1.68-4.68,0-.53-.36-.8-1-.8C730.09,339.17,729.29,338.46,728.76,337Z"/><path class="cls-3" d="M796.1,394.94a2.14,2.14,0,0,1-1-1.68l.36-1.24c-1.15-.53-1.77-1.24-1.77-2.12l.71-3.18a31.69,31.69,0,0,0,1.5-4.24c2.38-3.45,4.5-6.45,6.54-8.84.26,0,1.15-.88,2.56-2.56,1,.61,1.5,1.32,1.5,1.94v.18c0,.09-.09.17-.26.17-.44-.44-.71-.7-1-.7a1.62,1.62,0,0,0-.62,1.15,1,1,0,0,0,.62-.18,2.61,2.61,0,0,1,1.94,1.33,2.26,2.26,0,0,1,.71,1.23,4.28,4.28,0,0,1,.35.62c0,.27-.18.44-.44.71,1.15,1,2.74.7,5.12-1.42a1.24,1.24,0,0,1,.71-.17,2.21,2.21,0,0,1,1.24,1.94,54.88,54.88,0,0,1,1.41,6.81,14.26,14.26,0,0,1-1,1.59v.26a4.35,4.35,0,0,1,1.15,2,7,7,0,0,1-1.68,2.65v.17a9.86,9.86,0,0,1,.09,1.24c0,.71-1.68,2.83-4.95,6.45l-3.36,3.63c-.79,1.23-1.41,1.85-1.94,1.85a6.65,6.65,0,0,0-1.06-.18c0,.18-.18.36-.45.45H803c-.27,0-.44-.36-.53-1,0-.79.7-1.32,2.21-1.41l-3.89.09c-.44-.09-1.15-1.5-2.21-4.24h-.27v-.09c-.62-.62-1.15-.53-1.76.09l-.62.44a1.54,1.54,0,0,1-.89-1.59v-.27Z"/><path class="cls-3" d="M883.51,248.05c3.27.8,5,1.24,5.3,1.24,1.51.8,2.21,1.77,2,2.92a2,2,0,0,0,.44,2.12c3.89.79,5.74,1.59,5.57,2.3a2.57,2.57,0,0,1,.7,1.85c-.08.18-.53.89-1.23,2a7.11,7.11,0,0,0,1.06,4.16l-.09.17-.27.36c-.08.44.45,2.21,1.6,5.21a.76.76,0,0,0,.35.53c.18-.62.53-.79,1-.7-.44-4.16-1.06-6.37-1.68-6.54a9.81,9.81,0,0,1-.26-1.24c.62-1.33,1.41-1.86,2.21-1.59,1.59.26,2.74,3.89,3.53,10.78l3.54,15.11A43.89,43.89,0,0,1,908.7,297q.27,14.46-.8,29.17c-.26,1.06-.61,4.6-1.06,10.69-.26,1.15-.62,2.74-1,4.69H906l-.18.17v.8a1.89,1.89,0,0,1-.26.44q-.13.93-.27,1.59l-.17.8a6,6,0,0,1-.62,1.41,3.25,3.25,0,0,1-.09.71,74.25,74.25,0,0,1-8.57,13.43,73.66,73.66,0,0,1-12.29,15.29,110.93,110.93,0,0,1-8.84,8,50,50,0,0,1-7.86,4.34q-6,2.78-19.36,7.95l-3.71,2a51.44,51.44,0,0,1-5.13,2.12c-4.15,2.12-6.54,3.18-7,3.1l-.26-.09a3,3,0,0,1-1.24-.62h-.8a2.93,2.93,0,0,1-.26-1.24c.09-.26.44-.53,1.24-.88.44.18.79.26,1.06.35h.09a6.37,6.37,0,0,0,3-1.24h-.09a8,8,0,0,0-2.74.09,1.32,1.32,0,0,0-.44-.17,5.77,5.77,0,0,1-3.45.26c-.44-.09-.7-.79-.79-2.12a4.56,4.56,0,0,1,1.15-2.56H828c-.18-.09-.71.09-1.5.35v-.26l2.56-2.13a30.53,30.53,0,0,0-4.07,1.86l-1,.44c-.44-.17-.62-.79-.53-1.76,1-1.15,3.09-2.48,6.54-3.89l.27-3.8a18,18,0,0,0-3.89,2.82,2.47,2.47,0,0,1-1.15,0c-.62-.08-1.15-.79-1.5-2.21v-.17l2.65-4.07c.44-1.85,3-3.62,7.69-5.48l8.57-4.42,20.5-8.57c3.27-1.32,7.69-4.51,13.44-9.54s8.84-8.58,9.45-10.52c.53-.44,2-2.56,4.51-6.45,2.39-2.65,3.8-4.95,4.24-6.81v-1.06l.8-2.38c.62-2.74,1.15-8,1.59-15.74.44-4.24.62-7.24.35-8.92h-.17c-.27.71-.45,1.24-.53,1.5v.18c-.71,2.74-1.42,5.74-2,9a53.48,53.48,0,0,1-5.92,14c-2.74,4.15-5.21,7.07-7.6,8.75a21.88,21.88,0,0,1-7.78,2.38,17.7,17.7,0,0,1-5.65.09l-2.21-.53a56.21,56.21,0,0,1-8.49-3.71,25.16,25.16,0,0,1-5.39-5.84c-1.5-2.74-2.74-4.41-3.71-5.12a21.6,21.6,0,0,1-4.06-5.66c-.89-2-1.33-6.27-1.24-12.81.26-2,.35-5.22.44-9.46a29.4,29.4,0,0,1,.88-5.21,3.68,3.68,0,0,0,.27-.89l.09-.62q3.57-15,8.22-23.86l2.82-4.42c.54-1,2.57-3.09,6.19-6.54l3.27-2.3a31.51,31.51,0,0,1,10.78-3.88,34.28,34.28,0,0,1,7.43.17Zm-38.62,62.13c.18,3.8.88,6.37,2.12,7.69v-.09a45,45,0,0,1-.62-5.3,24.53,24.53,0,0,1-1.32-2.3Zm46.22-38.71c-5.48-.79-8.66-1-9.63-.53-2.56,0-4.16.27-4.69.71a8.14,8.14,0,0,0-4,1.33c-3.71,1.59-6.19,3.35-7.34,5.21a15.11,15.11,0,0,0-5.12,6.36l-2.66,7.25a4.47,4.47,0,0,0-.08.88,61.83,61.83,0,0,0-2.21,7.43l-.8,3.71a14.51,14.51,0,0,0,.44,7.42,4,4,0,0,0,2.74,2.65c.44.36,2.12.89,5,1.68.44.09.62,0,.62-.17a.71.71,0,0,1,.35.17,20.09,20.09,0,0,0,14-2.65,14.48,14.48,0,0,0,4.15-5.12,89.75,89.75,0,0,0,4.24-13.08,12.76,12.76,0,0,1,.36-2.12l1.14-4.69a6.16,6.16,0,0,1,1.68-3.36,17.16,17.16,0,0,1,1.86-3.09c.09-.09,0-.09-.09-.09l.53-.35a1.19,1.19,0,0,1,.53,1.32c-.17.45-.26.71-.35,1,.44.08.71,1.06.79,2.91l2.21-.17a116.45,116.45,0,0,1-2.29-14.32c-.09,0-.18,0-.09-.09a1.38,1.38,0,0,1-.89,0Zm7.78,0c.44,3.63,1.41,8.75,2.74,15.47-.09.62.53,3.36,1.94,8.4l.89,6,.62,4.33h.17c.27-4.95.18-8.05-.26-9.28a27.59,27.59,0,0,1-1.68-7.87c-.53-1.15-1.33-5.21-2.39-12.37-.44-2.92-1.15-4.51-1.94-4.69Z"/><path class="cls-4" d="M289.68,130.33l-1,21.16c-.33,7-.83,14-.66,20.95s1.55,13.57,2.14,20.38a131,131,0,0,1-.08,20.49c-.56,7.73-1.26,15.5-.24,23.23a2.57,2.57,0,0,0,2.5,2.5,2.52,2.52,0,0,0,2.5-2.5c-.9-6.83-.46-13.71,0-20.56a150.75,150.75,0,0,0,.46-20.71c-.44-6.83-1.87-13.55-2.23-20.38s.12-13.79.44-20.67l1.12-23.89c.15-3.22-4.85-3.21-5,0Z"/><path class="cls-4" d="M677.6,330.29a116.43,116.43,0,0,1-4.5,15c-.83,2.3-1.61,4.62-2.57,6.87a50.47,50.47,0,0,1-3.73,6.75l4.57,1.92a18.82,18.82,0,0,1,3-7.38l-4.57-1.93c-2.69,6.42-5.54,12.84-7.36,19.58a69.77,69.77,0,0,0-2.32,21.29c.15,3.2,5.15,3.22,5,0A65.11,65.11,0,0,1,667.36,372c1.83-6.58,4.61-12.84,7.24-19.12a2.48,2.48,0,0,0-1.45-2.95,2.53,2.53,0,0,0-3.12,1,22.35,22.35,0,0,0-3.48,8.58c-.49,2.72,3,4.44,4.56,1.93a51.68,51.68,0,0,0,3.74-6.75c1.09-2.49,2-5.06,2.91-7.61a118.78,118.78,0,0,0,4.66-15.44c.67-3.14-4.15-4.48-4.82-1.33Z"/><path class="cls-4" d="M851,314.57a13.25,13.25,0,0,1-.6-1.19l.26.6c-.11-.26-.21-.52-.3-.79l-4.82,1.33a9.28,9.28,0,0,1,.58,2.14L846,316c0,.12,0,.23,0,.34l.09-.66,0,.09.64-1.11-.05.05,1.1-.65-.06,0H849l.59.25-.06,0,.5.39,0-.05.39.5,0-.07.26.59,0-.08.09.66a9,9,0,0,0-.33-2.19c-.24-.7-.61-1.32-.9-2l.25.6a3.35,3.35,0,0,1-.22-.84l.09.67a6.65,6.65,0,0,0-.82-3.25,3.05,3.05,0,0,0-.9-.89,2.45,2.45,0,0,0-1.59-.3,2.54,2.54,0,0,0-2.08,1.79,8.07,8.07,0,0,0-.1,2.35c.09.81.23,1.62.37,2.43.1.62.2,1.24.31,1.85a8,8,0,0,0,.68,2.16,2.51,2.51,0,0,0,1.5,1.15,2.58,2.58,0,0,0,1.92-.25A2.5,2.5,0,0,0,850,318a2.79,2.79,0,0,0-.25-1.92,2.14,2.14,0,0,1-.1-.22l.25.6a11.78,11.78,0,0,1-.49-2.27c-.13-.81-.28-1.62-.4-2.44l.09.67a6.94,6.94,0,0,1,0-1.82l-.09.67,0-.13-4.57.6a2,2,0,0,1,.21.35l-.25-.6a3.87,3.87,0,0,1,.17.69l-.09-.67a13.52,13.52,0,0,0,.29,2.12,17.59,17.59,0,0,0,.93,2.08l-.25-.59a4.92,4.92,0,0,1,.29,1.08l-.09-.67c0,.23,0,.45,0,.68a3,3,0,0,0,.84,2,2.67,2.67,0,0,0,4.43-1.12,5.13,5.13,0,0,0-.14-2.49,10,10,0,0,0-.45-1.41,2.73,2.73,0,0,0-1.15-1.5,2.6,2.6,0,0,0-1.93-.25,2.53,2.53,0,0,0-1.74,3.08,12.86,12.86,0,0,0,1.15,2.57,2.5,2.5,0,1,0,4.31-2.52Z"/><path class="cls-4" d="M896.29,267.91l.18.14-.5-.4a3.13,3.13,0,0,1,.54.55l-.39-.51a5,5,0,0,1,.6,1.08l-.25-.6a11.16,11.16,0,0,1,.46,1.38,2.6,2.6,0,0,0,1.15,1.49,1.86,1.86,0,0,0,.93.3,2,2,0,0,0,1,0,2.57,2.57,0,0,0,1.49-1.15,2.6,2.6,0,0,0,.26-1.93,13.73,13.73,0,0,0-.91-2.38,7.51,7.51,0,0,0-.86-1.25,3.26,3.26,0,0,0-.31-.33,8,8,0,0,0-.87-.66,1.77,1.77,0,0,0-.93-.3,2,2,0,0,0-1,0,2.8,2.8,0,0,0-1.49,1.15,2.51,2.51,0,0,0-.25,1.93l.25.6a2.48,2.48,0,0,0,.9.89Z"/><path class="cls-4" d="M898.83,262.07a5.22,5.22,0,0,1-.39-.43l.39.51a4.27,4.27,0,0,1-.54-.92l.25.6a4.59,4.59,0,0,1-.28-1l-4.57,1.92a15.28,15.28,0,0,0,2.16,2.45l.51.39a1.86,1.86,0,0,0,.93.3,2.39,2.39,0,0,0,1.59-.3,2.83,2.83,0,0,0,.9-.89,2,2,0,0,0,.3-.93,1.89,1.89,0,0,0-.05-1,13.24,13.24,0,0,0-3.41-5.18l-.5-.39a2,2,0,0,0-.93-.3,2.42,2.42,0,0,0-1.6.3,2.94,2.94,0,0,0-.89.9,1.71,1.71,0,0,0-.3.93,2,2,0,0,0,0,1,12.87,12.87,0,0,0,.77,1.79,11.47,11.47,0,0,0,1.09,1.59,9.25,9.25,0,0,0,.9,1,8.24,8.24,0,0,1,1,.94l-.39-.51a1.58,1.58,0,0,1,.15.24,2.51,2.51,0,0,0,3.42.9,2.48,2.48,0,0,0,1.15-1.49,2.65,2.65,0,0,0-.25-1.93,5.77,5.77,0,0,0-1.4-1.55,8,8,0,0,1-1.06-1.12l.39.51a8,8,0,0,1-1-1.74l.25.6c-.07-.18-.14-.35-.2-.54l-4.18,2.44a10.53,10.53,0,0,1,1.24,1.34l-.39-.51a10.68,10.68,0,0,1,1.36,2.33l-.25-.6c.06.14.11.27.16.41l4.18-2.43a12.61,12.61,0,0,1-1.58-1.69l.39.5c-.07-.08-.13-.17-.19-.25a1.83,1.83,0,0,0-.65-.7,1.89,1.89,0,0,0-.85-.45,2.5,2.5,0,0,0-1.62.13,2.36,2.36,0,0,0-1.2,1l-.25.6a2.5,2.5,0,0,0,0,1.33,6.35,6.35,0,0,0,.67,1.84,6.23,6.23,0,0,0,1.18,1.56,2.59,2.59,0,0,0,1.77.73,2.57,2.57,0,0,0,1.77-.73,2.53,2.53,0,0,0,.73-1.77,2.59,2.59,0,0,0-.73-1.76Z"/><path class="cls-4" d="M896.51,271.68a54.88,54.88,0,0,0,1.18,9.11,70.62,70.62,0,0,0,1.68,8.43,67.35,67.35,0,0,1,2.14,7.94c.53,2.87,1.24,5.73.94,8.67a2.51,2.51,0,0,0,2.5,2.5,2.56,2.56,0,0,0,2.5-2.5c.31-3-.38-6-.93-8.93a52.74,52.74,0,0,0-2.06-8.21,53.79,53.79,0,0,1-1.74-8.08,53.85,53.85,0,0,1-1.21-8.93c0-3.21-5-3.22-5,0Z"/><path class="cls-4" d="M895,287.84a5.34,5.34,0,0,1,0-1.87c0,.21-.06.33,0,0s.07-.34.11-.51.16-.61.25-.92.18-.53.28-.8.13-.33.19-.5c.13-.35-.16.36,0,0,.28-.62.56-1.23.86-1.84h-4.32c-.32-.65.22.43.1.5s0-.52,0-.08c0,.16,0,.32,0,.49,0,.71,0,1.41,0,2.12,0,1.45,0,2.9,0,4.35a2.5,2.5,0,0,0,4.91.67,30.51,30.51,0,0,0,1.35-12.22,2.5,2.5,0,0,0-4.91-.67,12,12,0,0,0-.49,3.42,2.5,2.5,0,1,0,5,0c0-.22,0-.43,0-.65s0-.78,0-.19a4.65,4.65,0,0,1,.3-1.25l-4.92-.66a27.44,27.44,0,0,1,0,5.73c0,.12-.09.91,0,.31,0,.21-.06.43-.09.64q-.12.69-.27,1.38a27.45,27.45,0,0,1-.76,2.83l4.91.66c0-1.6,0-3.2,0-4.81a11.46,11.46,0,0,0-.81-5.09,2.52,2.52,0,0,0-4.32,0c-1.33,2.76-2.71,5.76-2.35,8.9a2.55,2.55,0,0,0,2.5,2.5c1.22,0,2.66-1.11,2.5-2.5Z"/><path class="cls-4" d="M897.46,279.21c0-1.45,0-2.91,0-4.36a18,18,0,0,0-.88-4.71,2.5,2.5,0,1,0-4.82,1.32,25.93,25.93,0,0,1,.74,3l-.09-.66a24.46,24.46,0,0,1,.06,2.71v2.72a2.5,2.5,0,1,0,5,0Z"/><path class="cls-4" d="M897.09,279a24.56,24.56,0,0,0-2.37-10.28,2.51,2.51,0,0,0-1.49-1.14,2.55,2.55,0,0,0-1.93.25,2.58,2.58,0,0,0-.9,3.42c.06.12.12.25.17.37.21.46.06,0,0-.07.09,0,.25.65.3.76q.27.72.48,1.47a21.9,21.9,0,0,1,.66,3.12l-.09-.67a23.29,23.29,0,0,1,.19,2.77,2.52,2.52,0,0,0,2.5,2.5,2.55,2.55,0,0,0,2.5-2.5Z"/><path class="cls-4" d="M725.18,309.61a3.57,3.57,0,0,1,.65,1.46l2.41-3.16-.27,0,1.26.34c-1.8-1.15-3.27-.41-4.89.62s-2.91,1.93-4.32,3l3.42,3.42a15.84,15.84,0,0,1,1.62-2.79,2.52,2.52,0,0,0-.9-3.42,2.56,2.56,0,0,0-3.42.89,23.27,23.27,0,0,1-5,4.48,11.3,11.3,0,0,0-4.37,6.34,13.06,13.06,0,0,1-3.26,5.69,12.85,12.85,0,0,0-2.38,3,13.17,13.17,0,0,0-1.2,4.13,2.59,2.59,0,0,0,.9,2.63,2.5,2.5,0,0,0,2.78.19,4,4,0,0,0,1.71-2.28,7.6,7.6,0,0,0-.14-2.73c-.16-1.45.79-2.79,1.57-3.91,1.08-1.57,2.26-3.06,3.4-4.59.48-.63.94-1.29,1.44-1.91.24-.29.53-.54.78-.82s.46,0,.09-.31l-1.15-1.5c-.15-.42,0,.08-.13.38a6.54,6.54,0,0,1-.24.75,8.06,8.06,0,0,1-1,1.77,2.52,2.52,0,0,0,.9,3.42,2.55,2.55,0,0,0,3.42-.9c1.46-2,3.5-6.41.76-8.24s-6,.68-7.7,2.91-3.61,4.6-5.2,7a12.05,12.05,0,0,0-1.69,3.7,8.28,8.28,0,0,0-.21,2.22c0,.35.08.72.14,1.06s.08.37.11.55,0,.15,0-.21l.9-.9-.27.19,3.68,2.83a8.76,8.76,0,0,1,.89-3.3,20.55,20.55,0,0,1,2.21-2.46,17.49,17.49,0,0,0,3.62-6.63,7.72,7.72,0,0,1,1.12-2.75,10.89,10.89,0,0,1,2.32-1.9,24.64,24.64,0,0,0,5.56-5.37l-4.32-2.53a16.54,16.54,0,0,0-1.61,2.79,2.6,2.6,0,0,0,.39,3,2.5,2.5,0,0,0,3,.4,43.31,43.31,0,0,1,5.82-3.88l-1.26.35.31,0-1.27-.35a4.87,4.87,0,0,0,2.09.68,2.53,2.53,0,0,0,2.41-3.17,7.25,7.25,0,0,0-1.15-2.66,2.58,2.58,0,0,0-3.42-.9,2.53,2.53,0,0,0-.9,3.43Z"/><path class="cls-5" d="M897.23,258.82c.32.53.63,1.08,1,1.59a5.67,5.67,0,0,0,1.41,1.31.63.63,0,0,0,.86-.22.64.64,0,0,0-.23-.86l-.32-.23s-.11-.06,0,0l-.08,0-.14-.13a1.79,1.79,0,0,1-.28-.27l-.08-.09c-.06-.07,0,0,0,0s-.1-.14-.12-.17c-.33-.49-.63-1-.93-1.52a.65.65,0,0,0-.86-.22.63.63,0,0,0-.22.86Z"/><path class="cls-5" d="M900.49,262a.63.63,0,0,0,0-1.25.63.63,0,0,0,0,1.25Z"/><path class="cls-5" d="M895.91,256.33a2.23,2.23,0,0,0,.38,1.05,6.31,6.31,0,0,0,.52.82,3.54,3.54,0,0,0,.35.42l.16.17c.06.06,0-.08,0,0a.28.28,0,0,0,.06.09c0,.07,0-.11,0,0s0,.07,0,.11.05.14.08.22a4.41,4.41,0,0,0,.26.59.62.62,0,0,0,.85.22.63.63,0,0,0,.23-.85,2.26,2.26,0,0,1-.11-.22c0,.06,0,.05,0,0s0-.07,0-.11a4.81,4.81,0,0,0-.2-.53,3.31,3.31,0,0,0-.59-.75l-.08-.09c0,.05,0,.05,0,0a1.27,1.27,0,0,1-.13-.19l-.24-.39-.21-.39s-.1-.23-.06-.09l0-.1c0,.08,0,.08,0,0a.63.63,0,1,0-1.25,0Z"/><path class="cls-4" d="M737,318.15a.63.63,0,0,0,0-1.25.63.63,0,0,0,0,1.25Z"/><path class="cls-4" d="M736.71,318a.86.86,0,0,1,.23.06l-.14-.06a1.75,1.75,0,0,1,.29.18l-.13-.1c.39.31.67.75,1.14,1a.63.63,0,0,0,.48.07.62.62,0,0,0,.38-.29.66.66,0,0,0,.06-.48.57.57,0,0,0-.29-.37,2.61,2.61,0,0,1-.28-.17l.13.1c-.22-.18-.4-.39-.6-.58a1.83,1.83,0,0,0-.94-.52.52.52,0,0,0-.25,0,.49.49,0,0,0-.23.08.64.64,0,0,0-.29.37.67.67,0,0,0,.07.48.57.57,0,0,0,.37.29Z"/><path class="cls-4" d="M736.92,318c.48.29,1,.57,1.43.88a11,11,0,0,0,1.26.89,4.72,4.72,0,0,0,3.23.08.63.63,0,0,0-.33-1.21,3.21,3.21,0,0,1-2.51-.08c-.39-.23-.71-.57-1.1-.81s-.9-.55-1.35-.83a.63.63,0,0,0-.63,1.08Z"/><path class="cls-5" d="M889.87,271.88c.67.29.67,1,.79,1.64a12.33,12.33,0,0,0,.58,1.78,6,6,0,0,1,.23,3.69,9.7,9.7,0,0,1-1.74,3,19.32,19.32,0,0,0-1.62,3.66c-.3.74.9,1.07,1.21.33a16,16,0,0,1,2.07-4.1,6.94,6.94,0,0,0,1.48-3.58,8.63,8.63,0,0,0-.71-4c-.42-1.17-.31-2.84-1.65-3.42-.74-.31-1.37.76-.64,1.08Z"/><path class="cls-5" d="M888.51,287.89c.07-.19.14-.37.22-.55s.07-.18.11-.28-.05.13,0,0l.06-.14c.16-.36.32-.72.49-1.07a.66.66,0,0,0,.06-.48.62.62,0,0,0-.28-.37.64.64,0,0,0-.86.22c-.37.77-.71,1.56-1,2.35a.64.64,0,0,0,.06.49.61.61,0,0,0,.37.28.64.64,0,0,0,.77-.43Z"/><path class="cls-5" d="M887.66,288.9a.63.63,0,0,0,0-1.25.63.63,0,0,0,0,1.25Z"/><path class="cls-5" d="M888.19,288.84l.11-.54a3.14,3.14,0,0,1,.12-.51l-.06.15a1.91,1.91,0,0,0,.28-.83.68.68,0,0,0-.19-.45.63.63,0,0,0-.44-.18.64.64,0,0,0-.62.63v.07l0-.17a.75.75,0,0,1,0,.16l.06-.15-.13.27a2,2,0,0,0-.15.47l-.16.74a.69.69,0,0,0,.06.49.63.63,0,0,0,.38.28.62.62,0,0,0,.48-.06.67.67,0,0,0,.29-.37Z"/></svg>